<svg xmlns="http://www.w3.org/2000/svg" viewBox="0 0 152.41 58.96"><defs><style>.cls-1{fill:#122d7c;}</style></defs><title>資產 1</title><g id="圖層_2" data-name="圖層 2"><g id="homepage"><path class="cls-1" d="M74,33.18a.76.76,0,0,1-.21-.55V25.69a.71.71,0,0,1,.76-.76.76.76,0,0,1,.56.21.74.74,0,0,1,.21.55v6.93a.76.76,0,0,1-.21.55.75.75,0,0,1-.56.21A.73.73,0,0,1,74,33.18Z"/><path class="cls-1" d="M85.88,25.14a.76.76,0,0,1,.2.55v7a.7.7,0,0,1-.19.52.67.67,0,0,1-.5.19.63.63,0,0,1-.48-.19.73.73,0,0,1-.18-.52V27.82l-2,3.8a1.18,1.18,0,0,1-.31.38.63.63,0,0,1-.39.12.65.65,0,0,1-.39-.12,1.08,1.08,0,0,1-.31-.39l-2-3.74v4.81a.72.72,0,0,1-.18.51.64.64,0,0,1-.49.19.63.63,0,0,1-.48-.19.73.73,0,0,1-.18-.52v-7a.77.77,0,0,1,.19-.55.69.69,0,0,1,.53-.21.79.79,0,0,1,.72.51l2.62,5,2.61-5a.78.78,0,0,1,.7-.51A.71.71,0,0,1,85.88,25.14Z"/><path class="cls-1" d="M89,33.18a.76.76,0,0,1-.21-.56V25.72a.7.7,0,0,1,.19-.53A.74.74,0,0,1,89.5,25h2.9a3,3,0,0,1,2.08.67,2.73,2.73,0,0,1,0,3.75,3,3,0,0,1-2.08.67H90.29v2.54a.71.71,0,0,1-.77.77A.74.74,0,0,1,89,33.18Zm3.24-4.27q1.57,0,1.57-1.37t-1.57-1.37H90.29v2.74Z"/><path class="cls-1" d="M104.25,32.78a.55.55,0,0,1-.22.45.79.79,0,0,1-.51.18.77.77,0,0,1-.65-.35l-1.57-2.38a1.53,1.53,0,0,0-.5-.53,1.38,1.38,0,0,0-.69-.15H98.95v2.65a.77.77,0,0,1-.2.56.72.72,0,0,1-.54.21.74.74,0,0,1-.55-.21.76.76,0,0,1-.21-.56V25.72a.7.7,0,0,1,.19-.53.74.74,0,0,1,.54-.19h3a3.23,3.23,0,0,1,2.15.63,2.27,2.27,0,0,1,.74,1.82,2.31,2.31,0,0,1-.55,1.59,2.6,2.6,0,0,1-1.55.8,1.49,1.49,0,0,1,.6.3,2.61,2.61,0,0,1,.51.59l1.07,1.64A.75.75,0,0,1,104.25,32.78Zm-2.07-4.29a1.21,1.21,0,0,0,.4-1,1.19,1.19,0,0,0-.4-1,2.06,2.06,0,0,0-1.26-.31h-2v2.63h2A2,2,0,0,0,102.18,28.48Z"/><path class="cls-1" d="M106.74,33.13a.7.7,0,0,1-.19-.53V25.72a.7.7,0,0,1,.19-.53.74.74,0,0,1,.54-.19h4.26a.82.82,0,0,1,.53.15.53.53,0,0,1,.19.44.56.56,0,0,1-.19.45.8.8,0,0,1-.53.16H108v2.29h3.27a.82.82,0,0,1,.53.15.55.55,0,0,1,.19.45.53.53,0,0,1-.19.44.82.82,0,0,1-.53.15H108v2.43h3.51a.8.8,0,0,1,.53.16.56.56,0,0,1,.19.46.53.53,0,0,1-.19.44.82.82,0,0,1-.53.15h-4.26A.74.74,0,0,1,106.74,33.13Z"/><path class="cls-1" d="M115.43,33.18a3.79,3.79,0,0,1-1.32-.66.72.72,0,0,1-.12-1,.44.44,0,0,1,.35-.18,1,1,0,0,1,.48.17,3.54,3.54,0,0,0,1.06.53,4.28,4.28,0,0,0,1.23.17,2.42,2.42,0,0,0,1.32-.3,1,1,0,0,0,.46-.88.76.76,0,0,0-.43-.69,5.73,5.73,0,0,0-1.43-.47,8.5,8.5,0,0,1-1.69-.52,2.39,2.39,0,0,1-1-.76,2,2,0,0,1-.33-1.17,2.2,2.2,0,0,1,.41-1.31,2.73,2.73,0,0,1,1.15-.9,4.57,4.57,0,0,1,4.41.57.91.91,0,0,1,.22.25.74.74,0,0,1-.08.74.44.44,0,0,1-.35.18.65.65,0,0,1-.22,0l-.27-.13a4,4,0,0,0-.94-.53,3.19,3.19,0,0,0-1.12-.17,2.19,2.19,0,0,0-1.27.32,1,1,0,0,0-.47.9.83.83,0,0,0,.41.74,4.84,4.84,0,0,0,1.4.48,9.4,9.4,0,0,1,1.71.53,2.53,2.53,0,0,1,1,.74,1.78,1.78,0,0,1,.35,1.12,2.14,2.14,0,0,1-.41,1.29,2.66,2.66,0,0,1-1.15.87,4.31,4.31,0,0,1-1.69.31A6,6,0,0,1,115.43,33.18Z"/><path class="cls-1" d="M123.84,33.18a3.79,3.79,0,0,1-1.32-.66.72.72,0,0,1-.12-1,.44.44,0,0,1,.35-.18,1,1,0,0,1,.48.17,3.54,3.54,0,0,0,1.06.53,4.28,4.28,0,0,0,1.23.17,2.42,2.42,0,0,0,1.32-.3,1,1,0,0,0,.46-.88.76.76,0,0,0-.43-.69,5.73,5.73,0,0,0-1.43-.47,8.5,8.5,0,0,1-1.69-.52,2.39,2.39,0,0,1-1-.76,2,2,0,0,1-.33-1.17,2.2,2.2,0,0,1,.41-1.31,2.73,2.73,0,0,1,1.15-.9,4.57,4.57,0,0,1,4.41.57.91.91,0,0,1,.22.25.74.74,0,0,1-.08.74.44.44,0,0,1-.35.18.65.65,0,0,1-.22,0l-.27-.13a4,4,0,0,0-.94-.53,3.19,3.19,0,0,0-1.12-.17,2.19,2.19,0,0,0-1.27.32,1,1,0,0,0-.47.9.83.83,0,0,0,.41.74,4.84,4.84,0,0,0,1.4.48,9.4,9.4,0,0,1,1.71.53,2.53,2.53,0,0,1,1,.74,1.78,1.78,0,0,1,.35,1.12,2.14,2.14,0,0,1-.41,1.29,2.66,2.66,0,0,1-1.15.87,4.31,4.31,0,0,1-1.69.31A6,6,0,0,1,123.84,33.18Z"/><path class="cls-1" d="M131.31,33.18a.76.76,0,0,1-.21-.55V25.69a.71.71,0,0,1,.76-.76.76.76,0,0,1,.56.21.74.74,0,0,1,.21.55v6.93a.76.76,0,0,1-.21.55.75.75,0,0,1-.56.21A.73.73,0,0,1,131.31,33.18Z"/><path class="cls-1" d="M136.9,32.91a3.47,3.47,0,0,1-1.38-1.49,5.57,5.57,0,0,1,0-4.53,3.43,3.43,0,0,1,1.38-1.48,4.54,4.54,0,0,1,4.22,0,3.45,3.45,0,0,1,1.37,1.48,5.57,5.57,0,0,1,0,4.53,3.48,3.48,0,0,1-1.38,1.49,4.51,4.51,0,0,1-4.2,0Zm3.9-1.49a3.51,3.51,0,0,0,.64-2.27,3.49,3.49,0,0,0-.64-2.26,2.44,2.44,0,0,0-3.59,0,3.48,3.48,0,0,0-.64,2.26,3.51,3.51,0,0,0,.64,2.27,2.43,2.43,0,0,0,3.59,0Z"/><path class="cls-1" d="M152.22,25.14a.77.77,0,0,1,.19.55v6.93a.78.78,0,0,1-.2.55.68.68,0,0,1-.52.21.67.67,0,0,1-.58-.27l-4.31-5.61v5.11a.8.8,0,0,1-.19.55.74.74,0,0,1-1,0,.8.8,0,0,1-.19-.55V25.69a.75.75,0,0,1,.2-.55.71.71,0,0,1,.53-.21.66.66,0,0,1,.57.27l4.3,5.58v-5.1a.77.77,0,0,1,.19-.55.67.67,0,0,1,.51-.21A.69.69,0,0,1,152.22,25.14Z"/><path class="cls-1" d="M75.92,47.34a.74.74,0,0,1-.21-.55V40.42H73.56q-.71,0-.71-.63t.71-.63h5.82q.71,0,.71.63t-.71.63H77.24v6.38a.71.71,0,0,1-.76.76A.76.76,0,0,1,75.92,47.34Z"/><path class="cls-1" d="M88.46,46.89a.59.59,0,0,1-.22.46.74.74,0,0,1-.5.19.65.65,0,0,1-.61-.41l-.71-1.58H82.27l-.71,1.58a.67.67,0,0,1-.26.31.69.69,0,0,1-.37.1.75.75,0,0,1-.5-.19.58.58,0,0,1-.22-.46.73.73,0,0,1,.07-.31l3.26-7a.76.76,0,0,1,.32-.36.94.94,0,0,1,.93,0,.76.76,0,0,1,.32.36l3.27,7A.73.73,0,0,1,88.46,46.89Zm-5.68-2.53H85.9l-1.56-3.51Z"/><path class="cls-1" d="M90.7,47.35a.76.76,0,0,1-.21-.55V39.86a.71.71,0,0,1,.76-.76.76.76,0,0,1,.56.21.74.74,0,0,1,.21.55v6.93a.76.76,0,0,1-.21.55.75.75,0,0,1-.56.21A.73.73,0,0,1,90.7,47.35Z"/><path class="cls-1" d="M105.4,39.21a.74.74,0,0,1,.41-.12.73.73,0,0,1,.49.18.59.59,0,0,1,.21.47,1.2,1.2,0,0,1-.06.31l-2.54,7a.73.73,0,0,1-.31.37.92.92,0,0,1-.48.13,1,1,0,0,1-.48-.13.67.67,0,0,1-.31-.37l-2-5.56-2,5.56a.73.73,0,0,1-.31.37.94.94,0,0,1-1,0,.67.67,0,0,1-.3-.37l-2.54-7a1,1,0,0,1-.06-.31.58.58,0,0,1,.22-.47.83.83,0,0,1,.94-.06.66.66,0,0,1,.27.35l2,5.77L99.7,39.6a.75.75,0,0,1,.27-.37.7.7,0,0,1,.41-.14.72.72,0,0,1,.42.14.74.74,0,0,1,.28.38l2,5.8,2-5.84A.67.67,0,0,1,105.4,39.21Z"/><path class="cls-1" d="M115.51,46.89a.59.59,0,0,1-.22.46.74.74,0,0,1-.5.19.65.65,0,0,1-.61-.41l-.71-1.58h-4.16l-.71,1.58a.67.67,0,0,1-.26.31.69.69,0,0,1-.37.1.75.75,0,0,1-.5-.19.58.58,0,0,1-.22-.46.73.73,0,0,1,.07-.31l3.26-7a.76.76,0,0,1,.32-.36.94.94,0,0,1,.93,0,.76.76,0,0,1,.32.36l3.27,7A.73.73,0,0,1,115.51,46.89Zm-5.68-2.53H113l-1.56-3.51Z"/><path class="cls-1" d="M124.38,39.31a.77.77,0,0,1,.19.55v6.93a.78.78,0,0,1-.2.55.68.68,0,0,1-.52.21.67.67,0,0,1-.58-.27L119,41.68v5.11a.8.8,0,0,1-.19.55.74.74,0,0,1-1,0,.8.8,0,0,1-.19-.55V39.86a.75.75,0,0,1,.2-.55.71.71,0,0,1,.53-.21.66.66,0,0,1,.57.27l4.3,5.58v-5.1a.77.77,0,0,1,.19-.55.67.67,0,0,1,.51-.21A.69.69,0,0,1,124.38,39.31Z"/><circle class="cls-1" cx="33.54" cy="16.66" r="0.66"/><circle class="cls-1" cx="36.75" cy="17.1" r="0.89"/><circle class="cls-1" cx="32.9" cy="38.91" r="0.89"/><circle class="cls-1" cx="41.15" cy="38.91" r="0.89"/><circle class="cls-1" cx="39.45" cy="16.66" r="0.66"/><circle class="cls-1" cx="36.75" cy="14.67" r="0.66"/><circle class="cls-1" cx="33.6" cy="14.59" r="0.66"/><circle class="cls-1" cx="30.92" cy="14.38" r="0.35"/><circle class="cls-1" cx="38.92" cy="14.53" r="0.35"/><circle class="cls-1" cx="33.02" cy="41.31" r="0.66"/><circle class="cls-1" cx="41.37" cy="41.9" r="0.66"/><circle class="cls-1" cx="15.02" cy="39.99" r="0.89"/><circle class="cls-1" cx="11.24" cy="26.31" r="0.66"/><circle class="cls-1" cx="39.81" cy="36.96" r="0.66"/><circle class="cls-1" cx="39.87" cy="33.92" r="0.66"/><circle class="cls-1" cx="60.93" cy="36.37" r="0.66"/><circle class="cls-1" cx="8.83" cy="23.46" r="0.35"/><circle class="cls-1" cx="34.82" cy="36.88" r="0.35"/><circle class="cls-1" cx="33.06" cy="43.53" r="0.35"/><circle class="cls-1" cx="41.71" cy="18.49" r="0.35"/><circle class="cls-1" cx="41.28" cy="40.57" r="0.35"/><circle class="cls-1" cx="9.37" cy="27.26" r="0.35"/><circle class="cls-1" cx="34.47" cy="34.5" r="0.35"/><circle class="cls-1" cx="41.65" cy="14.64" r="0.34"/><circle class="cls-1" cx="15.05" cy="31.31" r="0.34"/><circle class="cls-1" cx="14.93" cy="35.09" r="0.34"/><circle class="cls-1" cx="13.26" cy="35.09" r="0.34"/><circle class="cls-1" cx="41.65" cy="13.05" r="0.34"/><circle class="cls-1" cx="44.32" cy="13.05" r="0.34"/><circle class="cls-1" cx="44.32" cy="14.38" r="0.34"/><circle class="cls-1" cx="41.65" cy="16.7" r="0.66"/><circle class="cls-1" cx="36.75" cy="19.51" r="0.66"/><circle class="cls-1" cx="17.17" cy="29.16" r="0.6"/><circle class="cls-1" cx="41.65" cy="16.55" r="0.06"/><circle class="cls-1" cx="42.92" cy="40.39" r="0.6"/><circle class="cls-1" cx="70.2" cy="15.8" r="0.6"/><circle class="cls-1" cx="60.84" cy="28.41" r="0.6"/><circle class="cls-1" cx="60.84" cy="32.75" r="0.6"/><circle class="cls-1" cx="66.06" cy="55.54" r="0.66"/><circle class="cls-1" cx="12.18" cy="29.77" r="0.6"/><circle class="cls-1" cx="14.86" cy="33.31" r="0.6"/><circle class="cls-1" cx="14.93" cy="38.35" r="0.34"/><circle class="cls-1" cx="13.26" cy="38.35" r="0.34"/><circle class="cls-1" cx="14.86" cy="36.57" r="0.6"/><circle class="cls-1" cx="62.92" cy="28.43" r="0.6"/><circle class="cls-1" cx="62.92" cy="26.48" r="0.6"/><circle class="cls-1" cx="64.8" cy="26.48" r="0.6"/><circle class="cls-1" cx="64.59" cy="28.48" r="0.32"/><circle class="cls-1" cx="69.96" cy="17.85" r="0.6"/><circle class="cls-1" cx="15.07" cy="29.26" r="0.6"/><circle class="cls-1" cx="12.25" cy="31.86" r="0.6"/><circle class="cls-1" cx="68.03" cy="22.59" r="0.32"/><circle class="cls-1" cx="57.32" cy="28.81" r="0.32"/><circle class="cls-1" cx="60.86" cy="34.76" r="0.31"/><circle class="cls-1" cx="67.81" cy="55.63" r="0.31"/><circle class="cls-1" cx="60.86" cy="30.8" r="0.31"/><circle class="cls-1" cx="58.77" cy="30.46" r="0.6"/><circle class="cls-1" cx="8.83" cy="27.24" r="0.05"/><circle class="cls-1" cx="58.43" cy="30.37" r="0.05"/><circle class="cls-1" cx="1.97" cy="8.08" r="1.22"/><circle class="cls-1" cx="0.68" cy="5.07" r="0.68"/><circle class="cls-1" cx="2.65" cy="1.81" r="1.22"/><circle class="cls-1" cx="40.82" cy="25.33" r="1.82"/><circle class="cls-1" cx="40.82" cy="28.31" r="1.59"/><circle class="cls-1" cx="40.82" cy="31.29" r="1.36"/><circle class="cls-1" cx="44.65" cy="40.39" r="1.13"/><circle class="cls-1" cx="41.82" cy="33.65" r="0.68"/><circle class="cls-1" cx="58.6" cy="5.07" r="0.68"/><circle class="cls-1" cx="65.74" cy="19.43" r="0.68"/><circle class="cls-1" cx="62.33" cy="24.54" r="0.68"/><circle class="cls-1" cx="69.19" cy="13.24" r="0.68"/><circle class="cls-1" cx="48.37" cy="12.02" r="0.68"/><circle class="cls-1" cx="41.86" cy="20.23" r="0.49"/><circle class="cls-1" cx="52.18" cy="51.74" r="0.49"/><circle class="cls-1" cx="44.12" cy="19.38" r="1.63"/><circle class="cls-1" cx="47.1" cy="19.38" r="1.63"/><circle class="cls-1" cx="44.12" cy="22.36" r="1.77"/><circle class="cls-1" cx="47.1" cy="22.36" r="1.77"/><circle class="cls-1" cx="44.12" cy="25.33" r="1.77"/><circle class="cls-1" cx="47.1" cy="25.33" r="1.77"/><circle class="cls-1" cx="44.12" cy="28.31" r="1.63"/><circle class="cls-1" cx="47.1" cy="28.31" r="1.63"/><circle class="cls-1" cx="44.12" cy="31.29" r="1.49"/><circle class="cls-1" cx="47.1" cy="31.29" r="1.49"/><circle class="cls-1" cx="47.1" cy="43.2" r="1.36"/><circle class="cls-1" cx="48.13" cy="48.34" r="1.09"/><circle class="cls-1" cx="50.52" cy="52.48" r="0.95"/><circle class="cls-1" cx="51.37" cy="54.42" r="0.95"/><circle class="cls-1" cx="50.47" cy="19.38" r="1.63"/><circle class="cls-1" cx="47.1" cy="16.11" r="1.63"/><circle class="cls-1" cx="50.47" cy="16.11" r="1.63"/><circle class="cls-1" cx="50.47" cy="22.36" r="1.77"/><circle class="cls-1" cx="50.47" cy="25.33" r="1.77"/><circle class="cls-1" cx="50.47" cy="28.31" r="1.63"/><circle class="cls-1" cx="50.47" cy="31.29" r="1.49"/><circle class="cls-1" cx="50.47" cy="43.2" r="1.36"/><circle class="cls-1" cx="50.47" cy="48.43" r="1.09"/><circle class="cls-1" cx="39.68" cy="20.69" r="0.95"/><circle class="cls-1" cx="50.47" cy="50.49" r="0.95"/><circle class="cls-1" cx="47.28" cy="13.34" r="0.95"/><circle class="cls-1" cx="57.15" cy="50.49" r="0.95"/><circle class="cls-1" cx="53.7" cy="51.16" r="0.95"/><circle class="cls-1" cx="68.94" cy="4.73" r="0.95"/><circle class="cls-1" cx="55.64" cy="29.7" r="0.49"/><circle class="cls-1" cx="53.7" cy="31.23" r="1.49"/><circle class="cls-1" cx="44.12" cy="34.23" r="1.63"/><circle class="cls-1" cx="47.1" cy="34.23" r="1.63"/><circle class="cls-1" cx="47.1" cy="40.44" r="1.49"/><circle class="cls-1" cx="50.47" cy="34.23" r="1.63"/><circle class="cls-1" cx="53.7" cy="34.23" r="1.63"/><circle class="cls-1" cx="53.7" cy="48.59" r="1.63"/><circle class="cls-1" cx="57.15" cy="53.08" r="1.63"/><circle class="cls-1" cx="60.25" cy="53.04" r="1.38"/><circle class="cls-1" cx="50.47" cy="40.44" r="1.49"/><circle class="cls-1" cx="53.7" cy="40.38" r="1.49"/><circle class="cls-1" cx="53.7" cy="43.14" r="1.36"/><circle class="cls-1" cx="59.53" cy="45.95" r="1.09"/><circle class="cls-1" cx="53.7" cy="28.66" r="1.09"/><circle class="cls-1" cx="56.57" cy="31.49" r="1.09"/><circle class="cls-1" cx="44.65" cy="42.84" r="0.95"/><circle class="cls-1" cx="59" cy="48.32" r="0.49"/><circle class="cls-1" cx="64.75" cy="58.1" r="0.49"/><circle class="cls-1" cx="39.59" cy="18.58" r="0.49"/><circle class="cls-1" cx="34.21" cy="18.58" r="0.49"/><circle class="cls-1" cx="57.15" cy="43.2" r="1.36"/><circle class="cls-1" cx="57.84" cy="55.69" r="1.13"/><circle class="cls-1" cx="47.1" cy="45.94" r="1.36"/><circle class="cls-1" cx="50.47" cy="45.94" r="1.36"/><circle class="cls-1" cx="53.7" cy="45.88" r="1.36"/><circle class="cls-1" cx="53.7" cy="53.56" r="1.36"/><circle class="cls-1" cx="57.15" cy="45.94" r="1.36"/><circle class="cls-1" cx="57.15" cy="48.43" r="1.09"/><circle class="cls-1" cx="59.48" cy="57.26" r="0.95"/><circle class="cls-1" cx="59.72" cy="43.02" r="0.95"/><circle class="cls-1" cx="62.26" cy="56.98" r="0.95"/><circle class="cls-1" cx="57.84" cy="57.79" r="0.49"/><circle class="cls-1" cx="64.93" cy="53.8" r="0.49"/><circle class="cls-1" cx="58.52" cy="32.39" r="0.49"/><circle class="cls-1" cx="65.2" cy="21.05" r="0.49"/><circle class="cls-1" cx="60.98" cy="55.44" r="1.09"/><circle class="cls-1" cx="63.86" cy="55.44" r="1.09"/><circle class="cls-1" cx="69.96" cy="55.44" r="1.09"/><circle class="cls-1" cx="69.77" cy="1.09" r="1.09"/><circle class="cls-1" cx="63.04" cy="53" r="1.09"/><circle class="cls-1" cx="7.14" cy="20.04" r="1.09"/><circle class="cls-1" cx="59.25" cy="50.44" r="1.09"/><circle class="cls-1" cx="55.65" cy="55.46" r="0.95"/><circle class="cls-1" cx="67.75" cy="51.69" r="0.95"/><circle class="cls-1" cx="57.15" cy="34.23" r="1.63"/><circle class="cls-1" cx="41.82" cy="36.61" r="0.68"/><circle class="cls-1" cx="44.12" cy="37.19" r="1.63"/><circle class="cls-1" cx="47.1" cy="37.19" r="1.63"/><circle class="cls-1" cx="50.47" cy="37.19" r="1.63"/><circle class="cls-1" cx="53.7" cy="37.19" r="1.63"/><circle class="cls-1" cx="57.15" cy="37.19" r="1.63"/><circle class="cls-1" cx="57.15" cy="40.44" r="1.49"/><circle class="cls-1" cx="44.12" cy="16.5" r="1.22"/><circle class="cls-1" cx="41.03" cy="22.38" r="1.22"/><circle class="cls-1" cx="33.55" cy="22.38" r="1.22"/><circle class="cls-1" cx="60.74" cy="3.94" r="1.22"/><circle class="cls-1" cx="50.47" cy="13.23" r="1.22"/><circle class="cls-1" cx="50.47" cy="10.77" r="1.22"/><circle class="cls-1" cx="63.43" cy="2.43" r="1.22"/><circle class="cls-1" cx="53.73" cy="19.38" r="1.63"/><circle class="cls-1" cx="53.73" cy="16.06" r="1.63"/><circle class="cls-1" cx="53.73" cy="12.74" r="1.63"/><circle class="cls-1" cx="53.73" cy="8.89" r="1.63"/><circle class="cls-1" cx="53.73" cy="25.67" r="1.63"/><circle class="cls-1" cx="56.7" cy="19.38" r="1.63"/><circle class="cls-1" cx="53.73" cy="22.36" r="1.77"/><circle class="cls-1" cx="56.7" cy="22.36" r="1.77"/><circle class="cls-1" cx="56.7" cy="25.96" r="1.77"/><circle class="cls-1" cx="60.07" cy="19.38" r="1.63"/><circle class="cls-1" cx="60.07" cy="25.67" r="1.63"/><circle class="cls-1" cx="56.7" cy="16.11" r="1.63"/><circle class="cls-1" cx="56.7" cy="10.55" r="1.63"/><circle class="cls-1" cx="56.7" cy="6.64" r="1.63"/><circle class="cls-1" cx="60.07" cy="16.11" r="1.63"/><circle class="cls-1" cx="60.07" cy="7.67" r="1.63"/><circle class="cls-1" cx="69.98" cy="7.67" r="1.63"/><circle class="cls-1" cx="69.98" cy="10.81" r="1.63"/><circle class="cls-1" cx="71.6" cy="4.79" r="1.63"/><circle class="cls-1" cx="63.61" cy="5.61" r="1.63"/><circle class="cls-1" cx="60.07" cy="22.36" r="1.77"/><circle class="cls-1" cx="56.7" cy="13.34" r="0.95"/><circle class="cls-1" cx="72.05" cy="1.81" r="1.22"/><circle class="cls-1" cx="60.07" cy="13.23" r="1.22"/><circle class="cls-1" cx="60.07" cy="10.77" r="1.22"/><circle class="cls-1" cx="63.52" cy="17.32" r="1.63"/><circle class="cls-1" cx="63.52" cy="14.05" r="1.63"/><circle class="cls-1" cx="63.52" cy="11.16" r="1.22"/><circle class="cls-1" cx="63.52" cy="20.32" r="1.22"/><circle class="cls-1" cx="63.52" cy="22.78" r="1.22"/><circle class="cls-1" cx="63.52" cy="8.71" r="1.22"/><circle class="cls-1" cx="66.97" cy="2.1" r="2.05"/><circle class="cls-1" cx="66.88" cy="14.23" r="1.63"/><circle class="cls-1" cx="66.88" cy="10.96" r="1.63"/><circle class="cls-1" cx="66.88" cy="8.07" r="1.22"/><circle class="cls-1" cx="66.88" cy="17.22" r="1.22"/><circle class="cls-1" cx="66.88" cy="5.62" r="1.22"/><circle class="cls-1" cx="33.88" cy="25.33" r="1.82"/><circle class="cls-1" cx="33.88" cy="28.31" r="1.59"/><circle class="cls-1" cx="33.88" cy="31.29" r="1.36"/><circle class="cls-1" cx="30.05" cy="40.39" r="1.13"/><circle class="cls-1" cx="32.89" cy="33.65" r="0.68"/><circle class="cls-1" cx="16.1" cy="5.07" r="0.68"/><circle class="cls-1" cx="8.97" cy="19.43" r="0.68"/><circle class="cls-1" cx="12.38" cy="24.54" r="0.68"/><circle class="cls-1" cx="5.51" cy="13.24" r="0.68"/><circle class="cls-1" cx="26.34" cy="12.02" r="0.68"/><circle class="cls-1" cx="32.84" cy="20.23" r="0.49"/><circle class="cls-1" cx="22.52" cy="51.74" r="0.49"/><circle class="cls-1" cx="30.58" cy="19.38" r="1.63"/><circle class="cls-1" cx="27.61" cy="19.38" r="1.63"/><circle class="cls-1" cx="30.58" cy="22.36" r="1.77"/><circle class="cls-1" cx="27.61" cy="22.36" r="1.77"/><circle class="cls-1" cx="30.58" cy="25.33" r="1.77"/><circle class="cls-1" cx="27.61" cy="25.33" r="1.77"/><circle class="cls-1" cx="30.58" cy="28.31" r="1.63"/><circle class="cls-1" cx="27.61" cy="28.31" r="1.63"/><circle class="cls-1" cx="30.58" cy="31.29" r="1.49"/><circle class="cls-1" cx="27.61" cy="31.29" r="1.49"/><circle class="cls-1" cx="27.61" cy="43.2" r="1.36"/><circle class="cls-1" cx="26.57" cy="48.34" r="1.09"/><circle class="cls-1" cx="24.19" cy="52.48" r="0.95"/><circle class="cls-1" cx="23.33" cy="54.42" r="0.95"/><circle class="cls-1" cx="24.24" cy="19.38" r="1.63"/><circle class="cls-1" cx="27.61" cy="16.11" r="1.63"/><circle class="cls-1" cx="24.24" cy="16.11" r="1.63"/><circle class="cls-1" cx="24.24" cy="22.36" r="1.77"/><circle class="cls-1" cx="24.24" cy="25.33" r="1.77"/><circle class="cls-1" cx="24.24" cy="28.31" r="1.63"/><circle class="cls-1" cx="24.24" cy="31.29" r="1.49"/><circle class="cls-1" cx="24.24" cy="43.2" r="1.36"/><circle class="cls-1" cx="24.24" cy="48.43" r="1.09"/><circle class="cls-1" cx="24.24" cy="50.49" r="0.95"/><circle class="cls-1" cx="27.42" cy="13.34" r="0.95"/><circle class="cls-1" cx="17.56" cy="50.49" r="0.95"/><circle class="cls-1" cx="21.01" cy="51.16" r="0.95"/><circle class="cls-1" cx="5.76" cy="4.73" r="0.95"/><circle class="cls-1" cx="19.06" cy="29.7" r="0.49"/><circle class="cls-1" cx="21.01" cy="31.23" r="1.49"/><circle class="cls-1" cx="30.58" cy="34.23" r="1.63"/><circle class="cls-1" cx="27.61" cy="34.23" r="1.63"/><circle class="cls-1" cx="27.61" cy="40.44" r="1.49"/><circle class="cls-1" cx="24.24" cy="34.23" r="1.63"/><circle class="cls-1" cx="21.01" cy="34.23" r="1.63"/><circle class="cls-1" cx="21.01" cy="48.59" r="1.63"/><circle class="cls-1" cx="17.56" cy="53.08" r="1.63"/><circle class="cls-1" cx="14.41" cy="53.08" r="1.63"/><circle class="cls-1" cx="24.24" cy="40.44" r="1.49"/><circle class="cls-1" cx="21.01" cy="40.38" r="1.49"/><circle class="cls-1" cx="21.01" cy="43.14" r="1.36"/><circle class="cls-1" cx="15.18" cy="45.95" r="1.09"/><circle class="cls-1" cx="21.01" cy="28.66" r="1.09"/><circle class="cls-1" cx="18.14" cy="31.49" r="1.09"/><circle class="cls-1" cx="30.06" cy="42.84" r="0.95"/><circle class="cls-1" cx="15.7" cy="48.32" r="0.49"/><circle class="cls-1" cx="13.51" cy="58.47" r="0.49"/><circle class="cls-1" cx="10.41" cy="57.56" r="0.49"/><circle class="cls-1" cx="17.56" cy="43.2" r="1.36"/><circle class="cls-1" cx="16.86" cy="55.69" r="1.13"/><circle class="cls-1" cx="27.61" cy="45.94" r="1.36"/><circle class="cls-1" cx="24.24" cy="45.94" r="1.36"/><circle class="cls-1" cx="21.01" cy="45.88" r="1.36"/><circle class="cls-1" cx="21.01" cy="53.56" r="1.36"/><circle class="cls-1" cx="17.56" cy="45.94" r="1.36"/><circle class="cls-1" cx="17.56" cy="48.43" r="1.09"/><circle class="cls-1" cx="15.22" cy="57.26" r="0.95"/><circle class="cls-1" cx="14.98" cy="43.02" r="0.95"/><circle class="cls-1" cx="12.45" cy="56.98" r="0.95"/><circle class="cls-1" cx="16.86" cy="57.79" r="0.49"/><circle class="cls-1" cx="9.78" cy="53.8" r="0.49"/><circle class="cls-1" cx="16.19" cy="32.39" r="0.49"/><circle class="cls-1" cx="9.51" cy="21.05" r="0.49"/><circle class="cls-1" cx="13.72" cy="55.44" r="1.09"/><circle class="cls-1" cx="10.85" cy="55.44" r="1.09"/><circle class="cls-1" cx="8.4" cy="55.8" r="1.09"/><circle class="cls-1" cx="4.93" cy="1.09" r="1.09"/><circle class="cls-1" cx="11.66" cy="53" r="1.09"/><circle class="cls-1" cx="15.46" cy="50.44" r="1.09"/><circle class="cls-1" cx="19.06" cy="55.46" r="0.95"/><circle class="cls-1" cx="26.57" cy="50.49" r="0.95"/><circle class="cls-1" cx="17.56" cy="34.23" r="1.63"/><circle class="cls-1" cx="32.89" cy="36.61" r="0.68"/><circle class="cls-1" cx="30.58" cy="37.19" r="1.63"/><circle class="cls-1" cx="27.61" cy="37.19" r="1.63"/><circle class="cls-1" cx="24.24" cy="37.19" r="1.63"/><circle class="cls-1" cx="21.01" cy="37.19" r="1.63"/><circle class="cls-1" cx="17.56" cy="37.19" r="1.63"/><circle class="cls-1" cx="17.56" cy="40.44" r="1.49"/><circle class="cls-1" cx="30.58" cy="16.5" r="1.22"/><circle class="cls-1" cx="13.97" cy="3.94" r="1.22"/><circle class="cls-1" cx="24.24" cy="13.23" r="1.22"/><circle class="cls-1" cx="24.24" cy="10.77" r="1.22"/><circle class="cls-1" cx="11.27" cy="2.43" r="1.22"/><circle class="cls-1" cx="20.98" cy="19.38" r="1.63"/><circle class="cls-1" cx="20.98" cy="16.06" r="1.63"/><circle class="cls-1" cx="20.98" cy="12.74" r="1.63"/><circle class="cls-1" cx="20.98" cy="8.89" r="1.63"/><circle class="cls-1" cx="20.98" cy="25.67" r="1.63"/><circle class="cls-1" cx="18" cy="19.38" r="1.63"/><circle class="cls-1" cx="20.98" cy="22.36" r="1.77"/><circle class="cls-1" cx="18" cy="22.36" r="1.77"/><circle class="cls-1" cx="18" cy="25.96" r="1.77"/><circle class="cls-1" cx="14.64" cy="19.38" r="1.63"/><circle class="cls-1" cx="14.64" cy="25.67" r="1.63"/><circle class="cls-1" cx="18" cy="16.11" r="1.63"/><circle class="cls-1" cx="18" cy="10.55" r="1.63"/><circle class="cls-1" cx="18" cy="6.64" r="1.63"/><circle class="cls-1" cx="14.64" cy="16.11" r="1.63"/><circle class="cls-1" cx="14.64" cy="7.67" r="1.63"/><circle class="cls-1" cx="4.72" cy="7.67" r="1.63"/><circle class="cls-1" cx="4.72" cy="10.81" r="1.63"/><circle class="cls-1" cx="3.11" cy="4.79" r="1.63"/><circle class="cls-1" cx="11.09" cy="5.61" r="1.63"/><circle class="cls-1" cx="14.64" cy="22.36" r="1.77"/><circle class="cls-1" cx="18" cy="13.34" r="0.95"/><circle class="cls-1" cx="14.64" cy="13.23" r="1.22"/><circle class="cls-1" cx="14.64" cy="10.77" r="1.22"/><circle class="cls-1" cx="11.18" cy="17.32" r="1.63"/><circle class="cls-1" cx="11.18" cy="14.05" r="1.63"/><circle class="cls-1" cx="11.18" cy="11.16" r="1.22"/><circle class="cls-1" cx="11.18" cy="20.32" r="1.22"/><circle class="cls-1" cx="11.18" cy="22.78" r="1.22"/><circle class="cls-1" cx="11.18" cy="8.71" r="1.22"/><circle class="cls-1" cx="7.73" cy="2.1" r="2.05"/><circle class="cls-1" cx="7.82" cy="14.23" r="1.63"/><circle class="cls-1" cx="7.82" cy="10.96" r="1.63"/><circle class="cls-1" cx="7.82" cy="8.07" r="1.22"/><circle class="cls-1" cx="7.82" cy="17.22" r="1.22"/><circle class="cls-1" cx="7.82" cy="5.62" r="1.22"/><circle class="cls-1" cx="37.14" cy="26.09" r="1.55"/><circle class="cls-1" cx="37.14" cy="28.94" r="1.75"/><circle class="cls-1" cx="37.14" cy="31.79" r="1.52"/><circle class="cls-1" cx="37.14" cy="34.63" r="1.3"/><circle class="cls-1" cx="37.14" cy="22.91" r="0.86"/><circle class="cls-1" cx="37.14" cy="39.48" r="0.86"/><circle class="cls-1" cx="37.14" cy="41.45" r="0.86"/><circle class="cls-1" cx="37.14" cy="26.09" r="1.64"/><circle class="cls-1" cx="37.14" cy="22.8" r="1.64"/><circle class="cls-1" cx="37.14" cy="28.94" r="1.68"/><circle class="cls-1" cx="37.14" cy="31.79" r="1.48"/><circle class="cls-1" cx="37.14" cy="34.63" r="1.27"/><circle class="cls-1" cx="37.14" cy="37.09" r="1.27"/></g></g></svg>