<svg xmlns="http://www.w3.org/2000/svg" viewBox="0 0 209.93 188.21"><defs><style>.cls-1{fill:#122d7c;stroke-width:3.62px;}.cls-1,.cls-2,.cls-3,.cls-5{stroke:#fff;stroke-miterlimit:10;}.cls-2,.cls-3,.cls-5{fill:none;}.cls-2,.cls-5{stroke-width:4px;}.cls-3,.cls-5{stroke-linecap:round;}.cls-3{stroke-width:6px;}.cls-4{fill:#fff;}</style></defs><title>資產 2</title><g id="圖層_2" data-name="圖層 2"><g id="rotate_mobile" data-name="rotate mobile"><rect class="cls-1" x="62.7" y="40.91" width="106.25" height="184.59" rx="19.89" ry="19.89" transform="translate(249.04 17.38) rotate(90)"/><line class="cls-2" x1="184.6" y1="79.54" x2="184.6" y2="185.54"/><line class="cls-2" x1="51.6" y1="79.54" x2="51.6" y2="185.54"/><line class="cls-3" x1="196.6" y1="126.54" x2="196.6" y2="138.54"/><circle class="cls-4" cx="36.54" cy="133.21" r="5.75"/><rect class="cls-1" x="1.81" y="1.81" width="106.25" height="184.59" rx="19.89" ry="19.89"/><line class="cls-2" x1="1.6" y1="25.54" x2="107.6" y2="25.54"/><line class="cls-2" x1="1.6" y1="158.54" x2="107.6" y2="158.54"/><line class="cls-3" x1="48.6" y1="13.54" x2="60.6" y2="13.54"/><circle class="cls-4" cx="54.93" cy="173.39" r="5.75"/><path class="cls-5" d="M184.6,63.54V43a16.43,16.43,0,0,0-16.43-16.43H122.6"/><polyline class="cls-5" points="173.91 57.16 184.37 67.62 194.88 57.11"/></g></g></svg>