<svg xmlns="http://www.w3.org/2000/svg" viewBox="0 0 630.26 162.78"><defs><style>.cls-1{fill:#c79f62;}</style></defs><title>資產 1</title><g id="圖層_2" data-name="圖層 2"><g id="圖層_1-2" data-name="圖層 1"><path class="cls-1" d="M103.23,25.8q6.37,8.55,6.37,16.75,0,11.69-10.84,11.69a17.27,17.27,0,0,1-2-.12l-2.33-7a12.64,12.64,0,0,0,1.71.12q4.27,0,5.26-1.44a5.68,5.68,0,0,0,1-3.3q0-7.81-6.84-16.51a138.31,138.31,0,0,0,6.14-16.78H93.36V70.4H86.25V2.29h22.69v7Q107,16.09,103.23,25.8ZM153.35,9.17H149v54a6,6,0,0,1-2.64,5.4q-2.64,1.71-9.91,1.71-1.79,0-3.92-.12L130,62.94l10.26-.08a1.44,1.44,0,0,0,1.09-.58,1.87,1.87,0,0,0,.5-1.24V9.17H111.74V2.29h41.61Zm-18,42.93H113.49V18h21.87Zm-6.84-6.68V24.75H120.4V45.42Z"/><path class="cls-1" d="M233.15,68.34H163.76V61.81H195V53.23H167.42V46.93H195V39.16H169.51V2.8H227.6V39.16H202v7.77h27.62v6.29H202v8.59h31.12ZM195,17.76V9.32h-18.3v8.43Zm0,15V23.93h-18.3v8.86Zm25.53-15V9.32H202v8.43Zm0,15V23.93H202v8.86Z"/><path class="cls-1" d="M309.23,70.32h-7.3V66.75H247.41V13.6h7.3V59.75h20.13V.89h7V59.75h20.09V13.6h7.3Z"/><path class="cls-1" d="M351.23,17.6H336.35q0,4.16-.31,9.36h13.44q-.12,16.2-.68,26.75T347.57,66a6.61,6.61,0,0,1-2.47,3q-1.81,1.28-8,1.28a22.72,22.72,0,0,1-2.41-.12l-1.9-6.84h7.07q1.4,0,1.57-1.13t.64-12.1q.47-11,.5-16.3H335.8q-1.32,23.66-8.2,36.79L322,65.23a54,54,0,0,0,5.56-17.41q1.63-10.22,1.75-30.23H322.9v-7h11.62a58.62,58.62,0,0,0-3.19-8.51L337.94,0a72.51,72.51,0,0,1,3.77,10.65h9.52Zm40.37-1.75H362.3a86.89,86.89,0,0,1-8.74,10.57l-5.25-4.16Q358.92,11.77,362.38.08l6.45,2.06a43.14,43.14,0,0,1-2.64,6.92h25.41ZM389,24.36a127.72,127.72,0,0,1-26,7.46V61.5A66.46,66.46,0,0,0,373.6,58l1.83,6.53q-14.22,5.09-19.35,5.87l-2-5.94a4.4,4.4,0,0,0,2.14-3.81V26.26a128.1,128.1,0,0,0,28.25-7.58Zm3.89,41.84-5.32,4.62Q372.87,58,370.26,33.88l6.45-1.48a76.35,76.35,0,0,0,1.83,9.36,61.44,61.44,0,0,0,6.68-9.56l6.22,3.34a99.4,99.4,0,0,1-10.68,14.26Q384,58.86,392.84,66.2Z"/><path class="cls-1" d="M426.6,3.34a70.77,70.77,0,0,1-21.25,18.92l-3.42-6.84q9.48-4.93,17.76-15.27Zm1.67,14.73a121,121,0,0,1-7.89,11.77V70.32H413v-32a50.11,50.11,0,0,1-8,6.6l-3.11-7.07q10.1-6.6,19.5-22.61Zm43.51,12.16H461.06V62.47q0,7.93-8.62,7.93-5.52,0-10.8-.23L439,62.94q3.34.08,12.35.08a2.23,2.23,0,0,0,1.5-.64,2,2,0,0,0,.72-1.57V30.23h-26v-7h44.17Zm-2-20.13h-40V3.19h40Z"/><path class="cls-1" d="M512.27,44.1l-5,5.09a52.2,52.2,0,0,0-6.92-8.7V70.09H493V43.67a68.91,68.91,0,0,1-6.76,6.14L482,44.25q13.87-11.46,18.22-22.92H483V14.49h24.75v6.84a60.23,60.23,0,0,1-5.83,11.38A70.46,70.46,0,0,1,512.27,44.1ZM501.93,9.56l-6.22,3.5a46.11,46.11,0,0,0-7.15-9.4L494.63.08A50.57,50.57,0,0,1,501.93,9.56Zm49.5,58.78H509.74V61.19h17.1V26h-15.5V18.84h15.5V.7h7.34V18.84h15.27V26H534.18V61.19h17.25Z"/><path class="cls-1" d="M55.6,161.77H45.34l-5.63-15.66H15.62l-5.36,15.66H0l22.69-60.18H33.06ZM37.1,138.38l-8.39-23.74a25.91,25.91,0,0,1-.93-4.55h-.27a22.83,22.83,0,0,1-1,4.47l-8.35,23.82Z"/><path class="cls-1" d="M85.4,141.56H62.47V134.8H85.4Z"/><path class="cls-1" d="M131.36,161.77H98.53V101.58h9.32v52.18h23.51Z"/><path class="cls-1" d="M138.12,104a5,5,0,0,1,1.57-3.79,5.55,5.55,0,0,1,4-1.5,5.71,5.71,0,0,1,4,1.5,5.21,5.21,0,0,1,0,7.58,5.7,5.7,0,0,1-4,1.5,5.53,5.53,0,0,1-4-1.52A5,5,0,0,1,138.12,104Zm.89,57.73v-43h9.13v43Z"/><path class="cls-1" d="M179.19,149.29a25,25,0,0,0,16.28,5.63q12,0,12-8.2a7.33,7.33,0,0,0-1.32-4.27,12.22,12.22,0,0,0-3.55-3.32q-2.23-1.42-8.84-4.57-8.12-3.88-11.35-7.89a14.53,14.53,0,0,1-3.22-9.4A14.32,14.32,0,0,1,185.29,105q6.14-4.47,15.7-4.47,9.05,0,13.68,2.21v9.56q-5.56-3.85-13.87-3.85a15.45,15.45,0,0,0-8.59,2.14,6.67,6.67,0,0,0-3.26,5.87,7.18,7.18,0,0,0,2.39,5.56q2.39,2.18,10.08,5.83,9,4.2,12.39,8.41a15,15,0,0,1,3.42,9.69q0,8.16-5.91,12.47T195,162.78a44.28,44.28,0,0,1-8.55-.93,22.36,22.36,0,0,1-7.23-2.49Z"/><path class="cls-1" d="M265.05,161.77h-9.13V137.13q0-12-8.9-12a9.5,9.5,0,0,0-7.5,3.46,13,13,0,0,0-3,8.82v24.4H227.4V98.16h9.13v27.51h.19q4.9-7.89,13.79-7.89,14.53,0,14.53,17.56Z"/><path class="cls-1" d="M278.18,121.67a29.27,29.27,0,0,1,15.19-3.89q16.28,0,16.28,16.82v27.16H300.8v-6.53h-.19a14.2,14.2,0,0,1-13.05,7.54q-6.33,0-10-3.42a12,12,0,0,1-3.63-9.21q0-12.12,14.41-14.14l12.47-1.71q0-9.6-8.43-9.6a22.75,22.75,0,0,0-14.22,5Zm13.17,20.13q-4.66.62-6.59,2.37a6.58,6.58,0,0,0-1.92,5.13,5.89,5.89,0,0,0,2.06,4.64,7.72,7.72,0,0,0,5.28,1.81,10,10,0,0,0,7.62-3.24,11.51,11.51,0,0,0,3-8.18v-3.81Z"/><path class="cls-1" d="M359.46,161.77h-9.09V137.48q0-12.39-9-12.39a9.51,9.51,0,0,0-7.52,3.44,12.86,12.86,0,0,0-3,8.72v24.52h-9.13v-43h9.13v7h.19a15.33,15.33,0,0,1,14-8q14.41,0,14.41,17.72Z"/><path class="cls-1" d="M438.22,161.77H427.3l-9.79-16.4q-2.88-4.82-5.23-6.57a8.78,8.78,0,0,0-5.38-1.75h-5.05v24.71h-9.32V101.58h19.15q9.36,0,14.47,4.22t5.11,11.95a15.84,15.84,0,0,1-3.54,10.37,18.59,18.59,0,0,1-9.87,6v.16q4,1.4,9.05,9.48Zm-36.37-52.49v20h8.28a11.36,11.36,0,0,0,8.26-3,10.14,10.14,0,0,0,3.09-7.61q0-9.44-11.19-9.44Z"/><path class="cls-1" d="M478,142.73H448.51q.58,13,13.25,13a21.59,21.59,0,0,0,13-4.27V159q-5.75,3.77-15.11,3.77-9.56,0-15-5.83t-5.4-16.32q0-9.95,5.81-16.4a18.76,18.76,0,0,1,14.55-6.45q8.7,0,13.54,5.5T478,138.42Zm-8.86-6.64q0-5.52-2.53-8.47a8.73,8.73,0,0,0-7.07-3,9.8,9.8,0,0,0-7.23,3.13,14.36,14.36,0,0,0-3.81,8.29Z"/><path class="cls-1" d="M486.59,104a5,5,0,0,1,1.57-3.79,5.55,5.55,0,0,1,4-1.5,5.71,5.71,0,0,1,4,1.5,5.21,5.21,0,0,1,0,7.58,5.7,5.7,0,0,1-4,1.5,5.53,5.53,0,0,1-4-1.52A5,5,0,0,1,486.59,104Zm.89,57.73v-43h9.13v43Z"/><path class="cls-1" d="M507.45,151.78A22,22,0,0,0,520,155.86q8.55,0,8.55-5.28a4.44,4.44,0,0,0-1.79-3.63q-1.79-1.42-8-3.75-6.57-2.53-8.86-5.38a11.08,11.08,0,0,1-2.29-7.17,10.87,10.87,0,0,1,5-9.4,21.05,21.05,0,0,1,12.32-3.46,29.33,29.33,0,0,1,10.53,1.86v8.08a20.39,20.39,0,0,0-11-3,9.85,9.85,0,0,0-5.59,1.44,4.36,4.36,0,0,0-2.14,3.77,4.47,4.47,0,0,0,1.57,3.61q1.57,1.32,7.25,3.5,7,2.56,9.54,5.46a10.52,10.52,0,0,1,2.54,7.21,11.11,11.11,0,0,1-5,9.6q-5,3.5-13.05,3.5a28.33,28.33,0,0,1-12.08-2.41Z"/><path class="cls-1" d="M583,142.73H553.49q.58,13,13.25,13a21.59,21.59,0,0,0,13-4.27V159q-5.75,3.77-15.11,3.77-9.56,0-15-5.83t-5.4-16.32q0-9.95,5.81-16.4a18.76,18.76,0,0,1,14.55-6.45q8.7,0,13.54,5.5T583,138.42Zm-8.86-6.64q0-5.52-2.53-8.47a8.73,8.73,0,0,0-7.07-3,9.8,9.8,0,0,0-7.23,3.13,14.36,14.36,0,0,0-3.81,8.29Z"/><path class="cls-1" d="M630.26,161.77h-9.09V137.48q0-12.39-9-12.39a9.51,9.51,0,0,0-7.52,3.44,12.86,12.86,0,0,0-3,8.72v24.52h-9.13v-43h9.13v7h.19a15.33,15.33,0,0,1,14-8q14.41,0,14.41,17.72Z"/></g></g></svg>