<svg xmlns="http://www.w3.org/2000/svg" viewBox="0 0 252.99 56.88"><defs><style>.cls-1,.cls-2{fill:#002c66;}.cls-2{fill-rule:evenodd;}</style></defs><title>資產 1</title><g id="圖層_2" data-name="圖層 2"><g id="圖層_1-2" data-name="圖層 1"><path class="cls-1" d="M56,27.78l-5.19-16A15.88,15.88,0,0,0,36.71,1.55H19.93a12.43,12.43,0,0,0-2.41.24c2.44.42,4.35,1.54,4.79,2.55,0,0,4.56,6.67-1.87,19.23a17.52,17.52,0,0,0-2.5-12.36,16.44,16.44,0,0,1,.59,12.08s-.84-6.65-9.77-12.14A5.17,5.17,0,0,1,6.91,9.37,13,13,0,0,0,6,11.27c2.65,1.27,10.29,5.41,11.92,11.66,0,0-3.61-3.9-7.26-4.3s-3.27-1.84-3.92-2.56a11.4,11.4,0,0,1-1.59-2.23l-4.53,14A15.89,15.89,0,0,0,6,44.4l1.72,1.25c1.52-1.74,2.94-4.44,2.85-5.15A3.13,3.13,0,0,1,11.43,38l1.25-1.57a7.21,7.21,0,0,1,1.8-5,15.22,15.22,0,0,0,2.38-3.26,16.63,16.63,0,0,1-1.28-1.63c-3.59-5.16-3-6-3-6s.78-.76,6.07,4.81a6.21,6.21,0,0,0,4.62,3.31c3.42.56,7.86,3.56,8.23,5.18s-3,.9-4.45.76a6.68,6.68,0,0,1-3.87-2.06A8.1,8.1,0,0,0,21,35.31c-1,2.51-4.11,3.34-4.11,3.34-.89.53-.43,1-1.56,2.34a3.46,3.46,0,0,1-2.56,1.28,24.19,24.19,0,0,1-3.94,4.18l.52.38c4.48-1.11,5.19-2.23,5.19-2.23-.41-1.86,3-1.81,3.71-1.83s.47.51.47.51c-1.78,3.34-3.32,2.56-3.32,2.56a49.58,49.58,0,0,1-5,1.56l1.79.07c1.64,0,3.35,0,5,0l.64,0H18A3.39,3.39,0,0,0,19.52,47c.15-1.9,3.35-.88,4.08-.68s.3.62.3.62C21.23,49.66,20,48.47,20,48.47a6.85,6.85,0,0,1-.79,0c-.9.05-3.88.19-7.46.07l7.84,5.7a15.89,15.89,0,0,0,17.47,0L50.63,44.4A15.89,15.89,0,0,0,56,27.78ZM24.1,4.49s7.67,2.33,11.58,5c0,0-3,4.84-15.35,15.18C20.33,24.64,27.66,11.9,24.1,4.49Zm-.89,22a51.45,51.45,0,0,1,6.17-8.47,57.48,57.48,0,0,0,6.35-8.59s9.5,7.27,7.69,10.7C43.41,20.18,34.09,17.56,23.21,26.54ZM44,35.78c-2.39-.74-2.52,0-2.6.43a2.91,2.91,0,0,1-.42.94c-2.07,3.14-7.36-.5-8.61-3.81s-6.5-5.57-6.5-5.57c11.88-3.85,23.08,5.05,23.08,5.05C49.31,35,46.35,36.52,44,35.78Zm5.87-4.29s-11-9.19-24.15-4c0,0,8.44-7.69,19.24-6.53C44.92,21,52.9,26.77,49.83,31.49Z"/><path class="cls-2" d="M92.94,2.9c.07.07.18,0,.24,0s.05.08.11,0,.06.06.14,0,.06.06.13,0,0,0,.08,0,0,0,.05,0,0,0,.07,0,.06-.07.09-.08,0,0,.07,0,0,0,.07,0,.12,0,.18,0,0,0,0,.06.06,0,.1,0,0,0,.05,0,0,0,.05,0,.39,0,.52,0,.06.06.08.07h.31c0-.05.12,0,.15-.08s.12.07.19.11.08,0,.11,0,0,0,.09,0,.13.16.18.06.06.09.11.11.17,0,.21.07.13,0,.15,0,.1.13.2.11,0,.05,0,.07.13,0,.18,0l0,0s0,0,.07,0,0,0,.07,0,0,0,0,0a.84.84,0,0,0,.19,0,.77.77,0,0,0,.19,0l.15.15c.12,0,.22,0,.27.07s.08,0,.12,0,0,.19.14.14,0,.07.11.07.08.09.11.14.09,0,.13.06.09,0,.12,0a.62.62,0,0,1,.14.14c.08,0,.11.09.19.06a.69.69,0,0,1,.14.15s.06,0,.08,0,0,0,0,0,0,.06.08.08.07.17.06.26,0,.06.07.08.07.17,0,.24.08.2.11.33l0,.05c0,.19.12.29.1.48.06,0,0,.1,0,.17s.06,0,.07.09,0,0,0,0l0,0c0,.08,0,.1.07.14s0,.14.07.2,0,0,0,.05a.17.17,0,0,0,.07.08c0,.1.08.09.06.2s0,0,.07,0a.06.06,0,0,0,.07.07c0,.06,0,.07.08.1s0,0,0,.05.08.14.16.11,0,.12.07.14.09,0,.13,0,.17.06.21.15h.1c0,.06,0,.07.07.1s.05,0,.05,0,.13,0,.15.08,0,0,0,0,0,0,.05,0h.17c0-.07.16,0,.22-.07s.08,0,.1,0,0,0,.08,0,.06-.07.08-.08.16.18.17,0,.36.05.44-.07.06.06.1,0,.1.1.16.14.09.06.15,0,.05.05.08.08.21,0,.32,0l.12.11s.06,0,.1,0,.16,0,.2.07a.41.41,0,0,1,.27.07c.14,0,.26,0,.39,0s0,.13.09.14,0,0,.08,0,0,0,0,0,.11,0,.16,0a.07.07,0,0,0,0,.07s.06,0,.08,0,0,0,0,0,.08,0,.12,0,0,.06.08.08,0,0,0,0l.08.08c.11,0,.2.1.32.06s.12.12.19.18.08,0,.13.06.15,0,.22,0l.22.21c.1,0,.15,0,.22,0s.07.08.12.11.05,0,.05,0l.08.08c.08,0,.08.06.16,0,0,.13.12.17.18.24a.51.51,0,0,1,.36.07s.05,0,.07,0,.11.17.19.18.09-.05.16-.07,0,0,.07,0,.13,0,.17,0c.19,0,.23.14.35.2s0,0,.08,0,.07.08.11.1.08,0,.13.07,0,0,.07,0,0,.06.06.07h.29s0,0,0,.07.17,0,.22,0,.23.07.2-.08a.22.22,0,0,0,.13,0l.12.11c.12,0,.13.1.21.14s.18,0,.26,0,.09.11.15.14.09.06.2,0,0,.13.07.17h.3s0,0,0,.07.07,0,.08,0,0,0,0,.06.12,0,.14.07.08,0,.11,0,.06.07.11,0a1.34,1.34,0,0,1,.11.11.2.2,0,0,1,.21.06c.08,0,.08.07.15,0s.08.15.17.1,0,0,0,0,.05,0,.08,0,.06-.07.09-.08l.07,0s.08-.06.13,0,.05.08.12.11,0,0,0,.06l.11.11h.09c0,.09.12.13.18.2s.05,0,.05,0a.08.08,0,0,1,0,.09.72.72,0,0,0,.15.15c-.05.19.15.25.24.37s0,.1.06.13,0,.07,0,.12,0,.14.08.16a.57.57,0,0,0,0,.2s0,0,0,.05,0,.09,0,.12,0,0,0,.07,0,0,0,.07-.08.06,0,.12a.09.09,0,0,0-.1,0c0,.15-.12.15-.2.21s0,.05,0,.06-.1,0-.17,0,0,.14-.11.18v.05s-.07.07-.1.11-.07,0-.13,0,0,.2-.16.17a1,1,0,0,0-.19.18c-.14,0-.2.06-.27.13s0,0,0,0,0,0-.1,0,0,0-.05,0-.09,0-.12,0-.07.1-.14.06a.34.34,0,0,0-.08.08c-.06,0-.17,0-.16.06s-.21,0-.28,0-.1,0-.13,0,0,0-.05,0a.52.52,0,0,1-.34-.07c-.11,0-.22,0-.27-.07h-.09a.25.25,0,0,0-.26-.17s0,0,0,0a1.32,1.32,0,0,0-.19,0,.29.29,0,0,0-.2-.07s0-.06-.09-.08-.33,0-.4-.07,0,0,0,0-.1-.1-.15-.14a.19.19,0,0,1-.21-.07c-.06,0-.12,0-.15,0a.2.2,0,0,0-.17,0c-.07,0,0-.2-.14-.13l0,0s0,0-.07-.07h0s0-.07,0-.07-.07,0-.11,0h-.05s-.06-.07-.1-.08-.12.09-.2,0a1,1,0,0,0-.19,0s-.06-.1-.13-.07,0-.12-.07-.15-.19,0-.25,0-.19,0-.23,0a.68.68,0,0,1-.41-.07s0,0,0,0-.16-.13-.17,0a.17.17,0,0,1-.19-.07.19.19,0,0,1-.2-.07s-.05,0-.05,0-.12-.17-.22-.21-.35,0-.52,0S105,12.84,105,13h-.41s-.07,0-.1,0,0,0-.07,0,0,0-.07,0,0,0,0,0h-.1s0,0-.05,0-.1,0-.12,0-.08.07-.12.11h-.05c0,.05-.12,0-.15.08s-.08,0-.12,0-.07.13-.12.18h0a2.83,2.83,0,0,0-.25.25s0,.05,0,.05-.12.12-.17.19-.06.16-.07.25-.06,0-.09.07-.07.12-.13.16,0,.1,0,.1,0,0,0,.05,0,.15,0,.2-.06,0-.07,0,0,.06,0,.09a.07.07,0,0,0-.1.09c0,.05-.07.07-.1.12a.11.11,0,0,1-.12.13s-.1.06-.07.13,0,.07-.08.09-.08,0-.12,0-.09.1-.15.14-.16.09-.24.13-.11.14-.17.21-.08.06-.16,0l-.15.1V16h-.08s-.06,0-.09.08,0,0,0,0-.27.22-.35.38c-.06,0-.07,0-.1.08v0s-.05.05-.07.09,0,.11,0,.2a.71.71,0,0,1,.08.22.17.17,0,0,0-.14.09s0,0-.05,0-.11.13-.19.17v.47s0,0,0,.05a1.57,1.57,0,0,0,0,.18s-.1.06-.07.13-.08.08-.11.12-.07.08,0,.15-.06.05-.08.08,0,.05,0,.05-.06,0-.08.08-.07.2-.06.32-.05,0-.07.08,0,.28,0,.46,0,0,0,.05a.32.32,0,0,1,0,.1s.06.06,0,.12,0,0,0,.07,0,0,0,.07,0,0,0,.05,0,0,0,0,0,.09,0,.12.11.1.14.16v.05a2.39,2.39,0,0,0,.24.25.1.1,0,0,0,.12.13s0,0,0,.06,0,.09.11.09,0,.06.06.1a.1.1,0,0,0,0,.1c.12,0,.2.11.32.06s.12.23.27.21,0,.06.09.08.05,0,.05,0,.09.1.15.15.05,0,.05,0l.12.11c.14,0,.14.19.29.16s0,.17.11.14.09.18.2.2,0,.07.07.1.05,0,.05,0c0,.13.12.12.19.18a.1.1,0,0,0,.12.13.24.24,0,0,0,.22.21c0,.1.07.15.16.13V23s0,0,.07,0,.17.16.24.27.14,0,.13.13a.09.09,0,0,0,.11,0c0,.14.1.09.2.1s0,0,0,.07.13.09.21.14a.18.18,0,0,1,.2.06c.16-.07.19.11.27.14s.09,0,.12,0,.07.08.12.1.09.06.15,0,.07.09.12.11h.05s0,0,0,0h.05s0,0,.07,0,0,0,.06,0,.1,0,.14,0,.14.15.22.21.13,0,.16,0h.12l.05,0h.05c.07,0,.1.1.15.14s.06,0,.1,0h0s0,0,.07,0,0,0,.07,0l.08,0s0,.06,0,.07.11.09.19.06,0,.06.08.07a.09.09,0,0,0,0,.05c0,.05.06.12.16.12a.87.87,0,0,1,.18.16c.12,0,.13.09.2.14s.13.1.21.13.23.19.35.21,0,0,.07,0a.21.21,0,0,1,.19,0h.49s0,0,.05,0,.28,0,.34,0,.12,0,.15,0,0,0,.07,0,.16,0,.2-.11.15,0,.28,0a.11.11,0,0,1,.17,0c.11,0,.22,0,.27.07s0,0,0,0,.12,0,.16.08.13,0,.18,0,.09.08.14,0,.2,0,.25,0h.13v.06L111,26s0,0,0,0,.07.07.12.11.05,0,.05,0,0,.09.13.08a2.08,2.08,0,0,1,.23.23s.17.21.25.21.06-.07.1-.08.06.07.08.08.07,0,.11,0,.12,0,.18.08a.06.06,0,0,0,.05.07s0,0,.08,0,0,0,0,0a.61.61,0,0,0,.17,0s.05,0,.08-.08.15,0,.2,0,.09.1.15.13,0,0,0,0,0,.06.11,0,0,0,.05,0,.08,0,.12,0,0,.07.11,0,0,.16.16.11.06.06.09.07.19.15.29,0,.06.09.12.11.17,0,.21.07.06,0,.1,0,0,0,0,0,.06.08.12,0,0,.11.07.14.19,0,.24,0h.12s.12,0,.15.06,0,0,0,0,.07.08.12.11.22,0,.32,0,0,.07.11,0,0,0,.12.05,0,0,.08,0h.2s.08.1.13,0,.07.12.15.11,0-.07.09-.07,0,0,0,0,0,0,.06,0,0,0,.07,0,.07-.06.09-.07c.27,0,.6,0,.95,0,0,0,.05.06.1,0a.31.31,0,0,0,.24.1s0,.06.09.07.06,0,.1,0h.05s0,0,.05,0h.12s0,.06.08.08.05,0,.05,0,0,.05.08.08.12.07.22,0,0,0,0,0h.3a1.4,1.4,0,0,0,.29,0l0,0s.06.08.1,0,.14.18.2.07a1,1,0,0,0,.27,0c0,.05.13,0,.16.08h.09c0,.07.07.09.11.13s.08,0,.12,0,0,0,.05,0h0s0,0,.07,0,.07-.05.13,0,.06.07.12.1.07,0,.12,0,.06.07.1,0,.09.15.17.1l0,0s0,0,.08,0,.06-.05.09-.07h1s.1,0,.11-.08a.49.49,0,0,0,.21,0s.05.07.1.08,0-.05.1-.08.09,0,.12,0,0-.06.08-.08.2,0,.2-.07a.1.1,0,0,0,.13-.12c0-.05.1-.1.14-.15s.15,0,.17,0,.09.16.18.1,0,0,0,0,0,0,.08,0,.06-.05.09-.08a.08.08,0,0,0,.1,0,1,1,0,0,0,.44,0,.11.11,0,0,0,.2,0c.19,0,.38,0,.58,0,0,0,0,0,.05,0a.25.25,0,0,0,.27,0s.11,0,.14,0,.11,0,.13,0,0,0,.07,0,0,0,.07,0,.09.1.13,0,.11,0,.13,0,.25,0,.32.1.17,0,.24,0,0,0,.05,0,0,0,0,0,.12,0,.18,0,.13,0,.16.08.08,0,.12,0,.06.1.16.08,0,0,0,0,.14.14.2.22a.12.12,0,0,0,0,.1s.06,0,.07,0,0,.11.07.15.08.15.07.27a.46.46,0,0,1,.13.18c0,.06,0,.11,0,.13s0,0,0,.07,0,.18,0,.27,0,0-.06,0-.14.11-.11.17,0,0,0,0-.07.06-.07.09-.09.13-.13.2,0,.05,0,.05l-.15.15a.1.1,0,0,1-.12.12c-.15.13-.28.28-.42.41s0,.05,0,.05-.1.16-.2.14a.06.06,0,0,0-.05.07.13.13,0,0,0-.17.14h0c-.08,0-.1.16-.21.14s0,0-.08.06-.22,0-.19.13-.11.1-.15.15-.16.07-.25.05-.1.1-.15.14-.13,0-.2,0,0,0-.08,0-.07.07-.13.11-.09.09-.19.06-.15.1-.18.2-.12.1-.17.15a.1.1,0,0,0-.13.12.17.17,0,0,0-.14.08h0c-.05,0-.08.07-.12.11V33c-.1,0-.26,0-.23.13a1.13,1.13,0,0,1-.17.17,1.14,1.14,0,0,0,0,.17c-.11,0-.16.14-.24.21s-.08,0-.16,0,0,0,0,.07a.27.27,0,0,0-.17.17s-.07,0-.07.07h0c-.11.12-.23.22-.34.34-.07,0-.12,0-.1.1s-.2,0-.2.09-.06,0-.08.07-.14.06-.2.1,0,0-.07,0-.07.24-.21.2-.06.1-.14.07a1,1,0,0,0-.25.27s0,0-.07,0v.14c-.09,0-.12.06-.17.1s0,.05,0,.05l-.08.09c0,.08-.05.07,0,.17s-.08.06-.16,0l0,0v.06c0,.09-.16.07-.2.14s0,0,0,0,0,.06-.07.07,0,0-.05,0-.08,0-.08.1-.07.06-.1.07-.13,0-.19.07l-.11,0a.22.22,0,0,0-.05.07s0,0-.08,0-.06.07-.08.07,0,0-.05,0a.13.13,0,0,0-.15,0,1.54,1.54,0,0,0-.25,0s0,.06-.09.08-.23-.06-.27.07a.48.48,0,0,0-.47.13c-.2,0-.19.15-.32.14a.6.6,0,0,0-.15.15h-.06a.43.43,0,0,1-.24.1c-.08,0-.07.13-.12.18s-.1,0-.13.07h0c-.08.12-.29,0-.36.14h-.58a.06.06,0,0,0,0-.07s-.05,0-.08,0-.05-.13-.13-.07,0-.08,0-.11-.09,0-.11,0-.06-.09-.1-.1a1,1,0,0,1-.29,0s0-.08-.11-.07,0-.07-.08-.1-.08,0-.11,0a.35.35,0,0,0-.27-.13l-.22-.21c-.09,0-.17,0-.26,0s-.1-.1-.16-.15-.15-.11-.23-.17h-.1c0-.06-.06-.12-.14-.1a.12.12,0,0,0,0-.06,4.45,4.45,0,0,0-.34-.35s-.06,0-.07,0a.19.19,0,0,0-.18-.2s-.05,0,0-.09a1.84,1.84,0,0,0-.2-.22c0-.12-.09-.13-.14-.2s0,0,0,0,0-.08-.12-.07-.09-.12-.14-.17-.12,0-.18,0,0-.08-.11-.08,0-.07-.08-.1-.05,0-.05,0,0-.09-.13-.07-.16-.16-.26-.24a.1.1,0,0,0-.12-.12s0-.1,0-.17,0,0-.06,0,0,0,0,0-.09,0-.07-.12a.44.44,0,0,0-.11-.12s0,0,0,0-.11-.2-.24-.21,0-.06,0-.09,0,0,0,0,0-.09,0-.12-.07-.07-.11-.12-.1,0-.12,0-.08-.08-.12-.11a.09.09,0,0,0-.11-.13c-.06,0-.1-.1-.16-.15s-.08,0-.12,0,0-.06-.09-.08-.08-.09-.2-.07,0-.18-.12-.13l-.15-.14h-.09a.06.06,0,0,0-.07-.07c0-.2-.18-.25-.33-.27,0,0,0-.06-.07-.06s0-.07-.07-.07,0-.07-.08-.1,0,0,0-.07a.08.08,0,0,0-.09,0c-.07,0-.1-.09-.15-.14s0,0,0-.05-.09-.12-.17-.15,0-.07-.07-.07-.12-.13-.18-.2,0,0,0,0a.57.57,0,0,1-.11-.11A.11.11,0,0,0,109,31c-.06,0-.06-.1-.14-.1v0l-.37-.36h0c-.08-.16-.23-.24-.33-.37v-.09c0-.06-.17-.05-.13-.16s-.12-.11-.17-.19-.05,0-.11,0-.07-.16-.06-.25,0,0,0-.05,0,0,0-.05,0-.08-.1-.08v-.08c-.06-.06-.08-.16-.17-.18v-.06s0-.08-.1-.08a.06.06,0,0,0-.07-.07s0-.05,0-.07H107c0-.16,0-.32-.19-.26s0-.22-.18-.17a.1.1,0,0,0-.12-.13c0-.13,0-.22-.17-.17s-.1-.1-.16-.14h-.09c0-.12-.05-.15-.11-.2a.19.19,0,0,1-.21-.07.22.22,0,0,1-.2-.06.26.26,0,0,1-.19,0s0,0-.07,0a.11.11,0,0,0-.2,0c-.1,0-.22,0-.27,0s-.47.09-.57,0-.12,0-.18,0-.06-.07-.1,0-.12-.12-.19-.17h-.09c-.06-.12-.17-.18-.25-.27s-.05,0-.05,0l-.13-.12c-.05-.05-.09-.14-.19-.12s-.15-.1-.24-.14-.11-.1-.14-.17-.08,0-.12,0a.34.34,0,0,0-.27-.14s-.05-.06-.08-.08,0,0-.06,0a1.37,1.37,0,0,0-.11-.11s0-.05,0-.08a.19.19,0,0,0-.23-.07c-.1-.08-.15-.27-.34-.21l-.08-.08c-.1,0-.09-.1-.19-.05l-.08-.08h-.51s0,0,0,0c-.17-.09-.44,0-.59-.1a1.73,1.73,0,0,0-.19,0,.54.54,0,0,0-.08-.08h-.16s0,0,0-.07-.07,0-.08,0a.09.09,0,0,0-.11-.13c-.06,0,0-.12-.08-.14s-.14-.07-.23,0,0-.07,0-.1-.1-.09-.17-.07l-.08-.07c0-.17-.14-.18-.21-.28s0,0,0,0-.09-.12-.17-.14,0-.05,0-.07,0,0-.05,0l-.11-.12c-.1,0-.09-.1-.19-.05s-.07-.08-.12-.11,0,0,0,0-.17-.06-.22-.14,0,0,0,0-.13-.17-.24-.21a.07.07,0,0,0-.05-.07s0,0-.08,0l-.06,0c-.06,0-.2,0-.25,0s-.05-.07-.09-.08-.16-.12-.29-.1l0,0s0-.05-.08-.06,0,0-.07,0,0,0-.05,0-.08,0-.11,0-.1-.13-.15-.21a3.08,3.08,0,0,1-.5,0l0,0h-.53c-.12,0-.21,0-.26.07-.08,0-.08.05-.15,0a3.67,3.67,0,0,0-.33.31.09.09,0,0,0-.12.12L93.8,24s0,.05,0,.05-.18-.06-.21,0-.21.07-.28.13-.09,0-.1,0,0,0-.05,0a1,1,0,0,0-.18,0c-.16,0-.22,0-.31.09h-.05s-.08,0-.08.11-.12.1-.17.14-.1,0-.13.07a1.31,1.31,0,0,0-.18,0c0,.06-.14,0-.2,0s0,.06-.1.08-.08,0-.12,0,0,.06-.08.07-.18-.05-.17.06-.11.09-.16.14-.09,0-.14.07S91,25,91,25s-.06.23-.2.2-.07.07-.12.1a.35.35,0,0,0-.27.07v.07a.27.27,0,0,0-.16.11h-.05c-.06,0-.14.05-.18.11s-.08,0-.1,0,0,0,0,0-.08,0-.11,0-.17.08-.25.13-.3,0-.27.15c-.07,0-.16,0-.17.06s-.05,0-.08,0-.05.07-.08.07-.09,0-.12,0-.08.07-.12.11a.14.14,0,0,0-.16.16s0,0-.07,0a.57.57,0,0,1-.11.1v.08a.1.1,0,0,1-.09,0,1.13,1.13,0,0,0-.15.14.1.1,0,0,0-.13.12c-.06,0-.14,0-.1.1s-.17.16-.25.25-.29.21-.43.29a0,0,0,0,0,0,0s-.07,0-.07.08a.18.18,0,0,0-.14.13c-.08,0-.1.1-.17.14h0a.23.23,0,0,1-.13.07s0,0-.05,0,0,0-.08,0a.07.07,0,0,0-.06.07s-.11,0-.17,0,0-.05-.08,0-.08.07-.13.11-.21,0-.32,0a.06.06,0,0,0-.09-.06l0,0s-.06,0-.08,0-.07.06-.1.07a.78.78,0,0,0-.18,0l-.05,0s0,0-.07,0,0,0-.07,0,0,0-.07,0-.09.07-.13.11-.18-.1-.21,0h-.08c0,.05-.12,0-.15.08a.2.2,0,0,0-.24.1.07.07,0,0,0-.1,0h-.54c0-.06-.13,0-.15-.08h-.22c-.11,0-.25,0-.28.07s-.1,0-.19,0a.06.06,0,0,0,0,.09c-.1,0-.13.06-.23,0s0,0-.1,0a1.24,1.24,0,0,0-.22.21.17.17,0,0,0-.24.15c0,.1-.17.13-.2.25h-.09s-.06,0-.08.07h0a.64.64,0,0,1-.21.07.06.06,0,0,0-.05.07c-.07-.09-.14,0-.17.07h0c-.05.06-.19,0-.25.11h-.05s-.07.06-.1.09-.17.13-.15.28c-.08,0-.1,0-.14.08-.24,0-.61-.06-.68.17,0,0,0,0-.05,0s-.15.14-.21.21-.17,0-.17.06-.07,0-.1.08h0a.46.46,0,0,1-.2.07.62.62,0,0,0-.16.15s0,0-.05,0a.94.94,0,0,0-.15.15.14.14,0,0,0-.16.15s0,.06-.09,0-.08,0-.09.1-.07,0-.1.08-.08.05-.15,0-.06.05-.08.08-.08.06-.15,0a1,1,0,0,0-.18.18c-.08,0-.23,0-.24.06h-.08c-.05,0-.07.07-.12.1a.25.25,0,0,0-.24.11h0a.22.22,0,0,0-.08.08c-.09,0-.17,0-.26,0s0,.05-.09,0a.23.23,0,0,0-.09.07.08.08,0,0,0-.1,0,.84.84,0,0,0-.18,0,.67.67,0,0,0-.32.24c-.08,0-.09.05-.15,0a.4.4,0,0,0-.12.11c-.05,0-.15,0-.14.06-.2-.13-.31.16-.44.25s-.06,0-.1,0h-.05l-.05,0s-.09,0-.12,0-.08.08-.12.11-.14,0-.16,0-.28-.06-.31.06-.1.05-.18,0-.08.07-.12.11a.3.3,0,0,0-.27.14H73.2a.77.77,0,0,0-.15.14H73s-.06,0-.08.08-.1.09-.1.19h-.08c-.07,0-.09.11-.15.14s0,.21-.13.2,0,0,0,.07h-.09a1.73,1.73,0,0,0-.25.24.08.08,0,0,0-.1,0c-.08,0-.22-.05-.24.06s-.08.08-.13.1a.27.27,0,0,0-.24.11.37.37,0,0,0-.12,0s0,0,0,0h-.05s0,.05-.1,0-.06,0-.09.08,0,0,0,0a.17.17,0,0,0-.08.07c-.14,0-.31,0-.43,0s-.11,0-.12,0-.09.07-.13.07,0-.08-.11,0,0,0-.09,0-.06,0-.07,0-.07-.13-.16,0l0,0s-.07-.12-.14-.07,0,0,0,0,0,0-.05,0-.14,0-.22,0l-.05,0-.19,0c-.06,0-.1-.11-.15-.15s0,0-.05,0,0-.06-.08-.07-.13-.09-.2-.14-.08,0-.12,0-.05-.06-.09-.08-.08-.06-.15,0l-.5-.51h0c0-.1-.12-.14-.17-.2a1.45,1.45,0,0,0,0-.19c0-.1-.09-.16-.07-.27s0-.06,0-.1,0,0,0-.05,0,0,0,0-.08-.14,0-.17,0-.29,0-.44,0,0,0,0,0-.09,0-.15,0,0,0,0c0-.24,0-.39,0-.63-.07,0,0-.14,0-.2s-.08-.07-.11-.12c.12-.11-.08-.16,0-.29s0-.06-.08,0-.05-.22-.13-.31,0-.07,0-.12,0-.17,0-.3,0-.12,0-.17l0,0s.09-.1,0-.13,0,0,0,0,0-.08,0-.12,0,0,0-.05v-.1s0,0,0-.1,0,0,0-.05,0,0,0-.05,0-.12,0-.18,0,0,0-.07,0,0,0-.07,0-.09,0-.1,0,0,0-.07,0,0,0-.06,0-.2,0-.25,0-.18,0-.26,0,0,0-.06,0,0,0-.07,0-.1,0-.1,0-.27,0-.39-.06,0,0-.1-.07-.07-.1-.12V27s-.06,0-.1-.06-.17-.18-.24-.29-.05-.24-.16-.23a.23.23,0,0,0-.12-.18c.1-.07,0-.16-.06-.2s0,0,0,0-.08-.05-.07-.14-.08-.07-.08-.15.06,0,.08-.09,0,0,0,0,0,0,0-.07,0,0,0-.07,0,0,0-.08-.07-.08-.11-.13a.08.08,0,0,0,0-.13s0,0,0,0,0-.08,0-.12,0,0,0,0v-.05c.09-.17.2-.37.42-.38.06,0,0-.06.09-.08s.17.06.16-.05h.16a.23.23,0,0,1,.18,0s0,0,.08,0,.05-.07.1-.08.1,0,.15.08.26,0,.3.1.09,0,.11,0,.08,0,.12,0,.08.13.17.14,0,0,0,.07.11,0,.1.09,0,0,.07,0,.11.09.13,0l.12.11s0,0,.05,0,0,.09.13.07.09.12.18.14,0,.05,0,.07h.1s0,0,0,.07.15.12.26.06c0,.11.12.35.24.25,0,.15.05.2.16.16s.13.12.17,0l.16.14a.06.06,0,0,0,0,0s0,.06.08.09.12.09.26.07a.11.11,0,0,0,0,.11s.06,0,.08,0,0,.05.06.07.08,0,.12,0,.09.13.18.15.09.07.11.14.09,0,.14.06.17.15.27.2a.19.19,0,0,0,0,.05,1.08,1.08,0,0,0,.18.19c.06,0,.07,0,.1,0s0,.12.08.1.12.12.19.17h.09c0,.09.1.12.15.17s.06,0,.1,0a1.07,1.07,0,0,0,.19,0c0,.07.12,0,.15.08a.21.21,0,0,1,.21.07c.06,0,.12,0,.16,0l.05,0s0,0,.08,0,.05,0,.09-.07c.29,0,.51,0,.75,0,0,0,.07.11.14.07s0,0,0,0,0,0,.07,0a.06.06,0,0,0,.06-.07s.09,0,.15,0,0,0,.06,0,0,0,0,0a.16.16,0,0,0,.21-.16c0-.11.2,0,.21-.11s.13,0,.17-.08h0s.06,0,.09-.08.08,0,.13,0,0,0,.07,0h0s0,0,.06,0,0,0,0,0,0,0,.05,0,.09,0,.1,0h.26a.11.11,0,0,0,0-.07c.05,0,.09,0,.13,0s.09,0,.12,0,.15-.19.22-.21.17.05.2-.07c.12,0,.21-.09.29,0s.08,0,.12,0,.16.1.2,0,.11,0,.14-.07.22,0,.27-.06.09.05.15,0,.07-.07.09-.08,0,0,.08,0,.1-.16.21-.14a.55.55,0,0,0,.15-.14c.13,0,.19,0,.24-.1s.14.07.13,0,.11-.1.17-.15h.05A.55.55,0,0,0,79,26a.08.08,0,0,0,.1,0s.08,0,.12,0,0,0,.06,0,0,0,0,0a.15.15,0,0,0,.15,0c0-.05,0-.08,0-.1s.07,0,.11,0,.2,0,.25,0A.22.22,0,0,0,80,25.7s.07,0,.12,0l0,0s0,0,.05,0h.17s0,0,0,0,.09,0,.12,0,.07-.07.12-.11.17-.07.26-.06.05,0,.08-.08h.06s0,0,0-.07.06,0,.06-.07.07,0,.1-.07,0-.08,0-.12.22,0,.25-.14c0,.14.15,0,.25,0s0-.05.11,0a2,2,0,0,0,.14-.14c0,.05.13-.05.16,0s0,0,.07.05a.68.68,0,0,0,.24,0s0,0,.05,0,.08,0,.1,0,0-.1,0-.1.13.11.13,0,.07,0,.1-.07H83a.77.77,0,0,0,.15-.14,2.15,2.15,0,0,0,.25,0,.45.45,0,0,1,.2-.06.27.27,0,0,0,.09-.08,2,2,0,0,0,.25,0s0,0,0,.07h.2a1,1,0,0,0,.18,0s0-.07.08-.08.29.07.34-.06,0,0,.07,0,0,0,.07,0,.09,0,.12,0,.07-.09.13-.06a.07.07,0,0,0,.05-.07h.09s0,0,.05,0,.09,0,.11,0,.08-.07.12-.11a.05.05,0,0,0,.05,0,.69.69,0,0,0,.16-.14.08.08,0,0,0,.1,0c0,.05.16,0,.14-.06s.07-.07.1-.12h.06c0-.06.1-.09.15-.15h0c.08-.07.18-.11.22-.21h0a1.55,1.55,0,0,1,.25-.17c0-.09.05-.12,0-.2s0-.06.12,0,.18-.11.22-.21.11,0,.14-.07.07,0,.13,0,0-.12.07-.14a.31.31,0,0,0,.27-.14s.12,0,.16,0a.85.85,0,0,1,.12-.12s.08,0,.12,0,.07-.07.12-.1.15,0,.13-.1,0-.06.12,0a1,1,0,0,0,.18-.18c.07,0,.08,0,.16,0s0-.08.11-.1.08,0,.11,0,.05-.06.09-.08.3.07.34-.07c.06,0,.08,0,.15,0s.13-.08.15-.17.06,0,.06-.07.18-.17.27-.25,0-.07,0-.1a.09.09,0,0,0,.12-.12s.12,0,.14-.08-.05-.15,0-.22,0,0,.07-.09a.16.16,0,0,0-.08-.18s0-.07,0-.12,0-.21,0-.31a.66.66,0,0,0-.2-.21h0s0,0,0-.07-.09,0-.15-.07-.07,0-.12,0-.07-.1-.13-.07-.16-.2-.25-.11a.08.08,0,0,0-.05-.1s0,0-.08,0,0,0-.05,0,0,0,0,0,0-.06-.08-.08a1.26,1.26,0,0,0-.19,0S89,19,88.92,19s0-.1-.07-.13-.08,0-.12,0-.12-.06-.12-.16-.08-.15-.19-.15a.74.74,0,0,1-.15-.14c-.08,0-.1-.06-.16,0s-.05-.32-.25-.35c0-.07-.07-.09-.11-.13s0,0,0-.05a.51.51,0,0,1-.07-.2s0-.08-.1-.08,0-.12-.06-.17a.19.19,0,0,0-.08-.2c0-.1-.09-.09-.06-.19a.08.08,0,0,0-.07,0c0-.1-.14-.11-.14-.23s0,0,0-.08-.07-.09-.11-.13-.07-.21-.14-.27a.09.09,0,0,0,0-.05.52.52,0,0,1-.07-.21c-.12-.1-.19-.24-.34-.31s-.12-.14-.18-.2-.2-.1-.32-.06-.13-.13-.17,0h0s0,0-.05,0-.11,0-.17.06-.12,0-.15,0-.08.08-.12.11-.16,0-.2.06-.11.06-.1.11a.21.21,0,0,0-.24.1c-.08,0-.08.06-.16,0s-.07.11-.13.13l-.06,0c-.06,0-.1.08-.13.08s0,0-.07,0-.13.16-.23.2-.13,0-.18,0,0,0-.05,0-.08,0-.12,0-.06,0-.12,0-.06-.07-.09-.07,0,0-.08,0,0-.07-.11,0-.06-.06-.13,0-.08-.07-.16,0-.14,0-.17,0-.11,0-.14,0-.14,0-.22,0-.07.05-.11,0,0,0-.07,0,0,0-.07,0,0,0,0,0,0,0,0,0-.05,0-.08,0-.06,0-.09.08-.35,0-.44.1a.1.1,0,0,1,0,.1c-.07,0-.11,0-.14.07s-.1,0-.13.07a2.79,2.79,0,0,0-.31,0,.07.07,0,0,0-.11-.06s0,0,0,0-.05,0-.08,0-.07.06-.09.08c-.17,0-.34,0-.53,0,0,0,0,0,0,0s0,0,0,0-.27,0-.39,0l0,0s-.09,0-.1,0-.18,0-.24,0-.09,0-.12,0a.16.16,0,0,0-.08-.15c-.06,0-.07,0-.1,0a.1.1,0,0,0-.12-.13s-.07-.08-.11-.1a.1.1,0,0,0,0-.05s0-.08-.1-.08,0-.07-.08-.1,0,0-.05,0,0-.19-.13-.13-.06,0,0-.09-.07-.1-.14-.12a.06.06,0,0,0-.07-.07.18.18,0,0,0-.14-.13s0,0,0-.09,0-.05-.09,0,0-.07-.11-.07v-.08a.42.42,0,0,1-.1-.24c0-.05-.07-.07-.11-.12s-.12-.16-.18-.23,0,0,0-.06a.47.47,0,0,0-.11-.12c0-.06,0-.08,0-.15s0,0,0,0,0,0,0,0,0,0,0-.05,0-.17-.07-.2a.09.09,0,0,0,0-.1.17.17,0,0,0,0-.17s.08-.07.11-.12,0-.1,0-.1.09,0,.05-.12.18-.11.18-.24.07,0,.07-.08.08-.06.15,0a1.23,1.23,0,0,0,.18-.17c.11,0,.12-.06.23,0a.21.21,0,0,1,.17,0s0-.05.1,0,.06-.05.09-.08,0,0,.06,0,.16-.11.15-.21a.19.19,0,0,0,.23-.09s.06,0,.1,0,.17,0,.21-.07c0,.05.09,0,.1,0s0,0,0,0,.25,0,.32,0,.1.12.15.14.25,0,.39,0l.08.07c.12,0,.27,0,.32-.07h.05s.05-.05.08-.08a.08.08,0,0,0,.1,0,.21.21,0,0,0,.16,0c.05-.11.23.09.25-.07.09,0,.2,0,.24-.08a1,1,0,0,0,.18,0,.45.45,0,0,1,.27-.07.12.12,0,0,1,.17,0h.19c.09,0,.22.05.23-.06s.16-.14.24-.21c.08.1.16,0,.2-.07a1.3,1.3,0,0,0,.18,0s.14,0,.16-.08.41.09.47-.09c.05,0,.07,0,.1-.07s.08,0,.15,0a.86.86,0,0,0,.16-.14h0c.06,0,.05-.09.13-.07s.05,0,.08-.07a.16.16,0,0,0,.21-.07c.1,0,.09-.08.19-.06s.06-.09.11-.11.2,0,.2-.09.11,0,.16,0,0,0,.05,0,.09,0,.11,0,.08-.08.12-.11.26,0,.39,0,0,0,.05,0,.12,0,.17,0,0,0,.06,0,.08,0,.11,0,0,0,.07,0,.23-.07.29-.16,0-.07.08-.08.09,0,.11,0,0,0,0,0,.05,0,.08,0,.11-.12.16-.14.25,0,.39,0,0,0,.05,0a.17.17,0,0,0,.21,0s0,0,.07,0,0,0,.07,0,.08,0,.14,0,0,0,.07,0,.14,0,.17,0,.08,0,.12,0l.05,0s0,0,0,0,0,0,.06,0,0,0,.06,0,0,0,.07,0,.11,0,.15,0,0,0,0,0,0,0,.06,0,0,0,0,0l.07,0s.07,0,.12,0,0-.05.1,0,.06,0,.08-.07l.23,0c.07,0,.1-.11.15-.15a.08.08,0,0,0,.11,0s.07,0,.12,0,.09,0,.17,0,0,0,.1,0,0,0,.05,0,0,0,.08,0,.06,0,.09-.08.15-.05.29,0,0,0,0,0,0-.06,0-.07.1-.09.19-.06a.69.69,0,0,0,.12-.11c0,.05.06,0,.1,0s.08,0,.12,0,0,0,.08-.07.06,0,.08,0,0,0,0,0,.06,0,.07-.07h.06s0,0,0-.09.21-.21.3-.32H92s0,0,0-.07.18-.16.27-.24,0-.17.1-.24a.76.76,0,0,1,0-.16s0,0,.07,0,.1-.23.13-.37,0,0,0-.07,0,0,0-.07,0,0,0-.06,0,0,0-.08-.08-.06-.08-.09,0-.06,0-.08-.06,0-.07-.09,0-.08,0-.14a.55.55,0,0,1,0-.26s0,0,0,0-.06,0-.06,0,0-.19-.13-.14,0-.2-.17-.18a.41.41,0,0,0-.28-.14c0-.08-.06-.08,0-.16a.08.08,0,0,0-.09,0c-.06,0-.06-.1-.14-.1s-.14-.16-.21-.24-.16,0-.23-.1-.06,0-.07,0-.09-.14-.14-.2-.08,0-.12,0,0,0,0-.06-.05,0-.08-.09a.24.24,0,0,0,0-.05s0,0,0-.05,0-.08,0-.11-.09-.06-.11-.12,0-.18-.07-.2,0,0,0-.05-.05,0-.07-.08,0-.2,0-.24.15-.11.1-.23.06-.17.15-.22,0,0,0-.05.1-.1.14-.15h0c.07-.07.19-.11.19-.25a0,0,0,0,0,0,0s.08,0,.09-.1.1-.08.15-.12,0,0,.05,0,.11-.1.17-.11h0s.07-.07.09-.08l0,0h.1s0,0,0,0S92,3,92,2.93h.49c0,.12.14,0,.16,0s.17-.05.24,0S92.92,2.91,92.94,2.9ZM94.4,13.49s0-.07-.08-.07-.13,0-.19,0-.05-.07-.08-.07-.09.07-.17,0a.63.63,0,0,0-.18.14s-.09,0-.11,0-.2,0-.32,0-.09.1-.15.14-.09,0-.13.07a1,1,0,0,0-.19,0l0,0h0l-.05,0c-.07,0-.15,0-.19,0s0,0,0,0,0-.07-.08-.08a.14.14,0,0,0-.16,0s-.06,0-.12,0L92,13.9a2.51,2.51,0,0,0-.25,0s0,0-.1,0-.12.13-.18.18a1.49,1.49,0,0,0-.19,0s-.05.06-.09.08-.09.1-.18.06l-.18.18a.08.08,0,0,0-.08,0,.53.53,0,0,0-.18.21c-.06,0-.07.06-.11.07s0,0-.05,0a.72.72,0,0,0-.14.16c0,.11-.09.13-.21.11a0,0,0,0,1,0,0v.27a.16.16,0,0,0,0,.2c0,.06-.1.07-.1.12s.08.07.1.15,0,.11,0,.19a.16.16,0,0,0,.07,0v.16a1.51,1.51,0,0,1,.17.18c0,.06,0,.11.09.09s.11.13.18.17a.11.11,0,0,1,.13.07s0,0,0,.05.06.1.07.14h.1a.13.13,0,0,0,0,0c.14.12.24.26.38.37h.08s0,0,0,.07.06,0,.08,0a.1.1,0,0,0,.13.13s0,.06.08.08h.08s0,0,0,.07.17,0,.27,0,.12,0,.15.07a1.11,1.11,0,0,0,.18,0,.17.17,0,0,0,.21.07.41.41,0,0,0,.12.11c.07,0,.06,0,.12,0s0,0,.07,0,.07.08.13.1h0a.8.8,0,0,0,.15.15c.09,0,.16.08.26.06a.1.1,0,0,1,0,.1.39.39,0,0,0,.12.11c.06,0,.06,0,.09,0h.05s0,.07.09.07.08-.06.15,0,.05.07.09.08.09-.05.15,0,0,0,.07,0,0,0,.07,0l.05,0c.07,0,.15,0,.24,0s0-.06.08-.08a2,2,0,0,0,.26,0s.09,0,.16,0,.12-.12.19-.18.13-.06.22,0,.17,0,.24,0,0,0,0,0,.05.07.08,0,.13-.17.28-.14a1.51,1.51,0,0,1,.21-.21s0,0,.05,0,.09-.1.15-.13.07,0,.09,0v-.13s.08-.07.1-.12.11-.12.13-.2S97,17,97,17s0-.12,0-.19,0-.11-.07-.19,0,0,0-.06,0,0,0-.07,0,0,0-.07,0-.08,0-.1.1-.07.1-.12,0-.05,0-.08S97,16,97,16s-.07-.12-.07-.19l0,0c0-.08-.05-.09-.07-.14s.06-.26,0-.37,0-.19,0-.29,0-.22,0-.32,0-.18-.09-.2a.06.06,0,0,0,0,0,1.72,1.72,0,0,1-.19-.21c-.07-.06-.15-.17-.22-.19s-.09,0-.12,0,0-.07-.08-.07h-.08s0,0,0-.07a.63.63,0,0,1-.22-.07c-.13,0-.25,0-.39,0s-.08,0-.11,0a.1.1,0,0,0,0-.1c-.06,0-.09,0-.14,0s-.13-.08-.2-.11,0,0-.06,0-.17-.07-.31-.07c0,0,0,0,0-.07S94.45,13.51,94.4,13.49Z"/><path class="cls-2" d="M216.86,0s.32.12.18.17,0,0,0,0,.05-.08,0,0,.48.09.37,0c.23-.22,0,.14.19,0,0,0,0,0,0,0s0,0,.05,0,0,0,0,0,0,0,0,0,.32.17.22.21a1.06,1.06,0,0,0,.35.22s0,0,0,0,0,0,0,0a.12.12,0,0,0,.14,0s0,0,0,0,.16-.07.12,0,0,0,0,0l0,0c.09-.07.12-.08.09,0s0,0,0,0,0,0,0,0v0c.09,0,.11,0,.06,0s.41.45.31.27c.29.1.38.15.26.15h.06l.08,0c.05,0,.13.1.06.08,0,.18,0,.24,0,.16s.22.17.23.27,0,0,0,0,0,0,0,0,.08-.05.07,0,0,0,0,0,0,0,0,0,0,0,.07,0,0,0,0,0,.17.07.13,0,0,0,0,.05c-.12-.09,0,.1,0,.07s0,0,0,0v0a.05.05,0,0,1,0,0s0,0,0,0,0,0,0,.09h0l0,0s0,0,0,0,0,0,0,0,0,.15,0,.09.09.19.11.18.28.14.28.17,0,0,.05,0,0,0,0,0,0,0,.07,0,0,0,0,0c.28,0,.38,0,.32.16.07,0,.22.14.14.12.09.12.1.14,0,0s.31.13.31.07.09,0,0,0l0,0c.29.19.38.25.26.19,0,.05,0,.09,0,.12s0,0,0,0,0,.16.05.12a.13.13,0,0,1-.05,0s.12.12.08.09c.18,0,.23,0,.15,0s0,.1,0,.1c-.41-.06.33.28,0,.23,0,0,0,0,0,0s0,0-.08,0,.11,0,.06,0,.05,0,.05,0,.09,0,0,0l.05,0s.41.05.27.13c0,0,0,0,0,0-.06.28-.13.36-.17.25s0,0,0,.06,0,0,0,0c-.07.18-.06.24,0,.19s-.05,0,0,.06,0,0,0,0,0,.08,0,.06-.12.07-.11,0,0,0,0,0,0,0,0,0,0,.06-.07.1,0,0,0,0-.07.18,0,.17,0,.12,0,.08,0,0,0,0-.09.14,0,.11c-.11,0-.13,0-.07,0s-.11,0-.1,0-.08.09-.07,0l-.07.07s0,0,.05-.06c-.2.1-.25.13-.16.1s-.09,0,0,0,0,0,0,0h0c0-.14,0,.05,0,0s0,.06-.07.09,0,0,0,0a.46.46,0,0,1-.17.22s0,.13,0,.08,0,0,0,0l0,0s0,0,0,0,0,.06,0,.07,0-.05,0,0,0,0,0,0,0,0,0,0,0-.07,0,0l0,0c-.1.1-.15.11-.14,0s0,.1,0,.14,0,0-.08,0,0,0,0,0,0,0,0,0-.07,0,0,0-.43,0-.32,0,0,0-.06,0,0,0,0,0-.08,0,0,0,0,0,0,0,0,0,0-.05,0,0-.06,0h0c-.08,0-.1-.06-.05,0-.13-.05-.09-.12-.13,0l0,0c0-.12-.19,0-.23,0s0,0,0,0,0,0-.08,0a0,0,0,0,1,0,0s0,0,0,0,0,0,0,0,0,0,0,0,0,0,0,0,0,0,0,0,0,0,0,0v0s0,0,0,.06,0,0,0,0,0,0,0,0-.21,0-.11,0,0,0-.07,0,0,0,0,0-.26-.1-.12-.07,0,0,0,0,0,0,0,0,0,0-.08,0,0,0,0,0,0,0-.08,0h0s0,0,0,0,0,0,0,0c-.23.06-.3.06-.2,0s0,.11,0,.08-.08,0,0,0,0,0,0,0,0,0,0,0c-.27-.07-.35-.15-.24-.24s0,0,0,0,0-.1,0-.05-.15,0-.1,0-.08-.1-.08,0,0,0,0,0,0,0,0,0,0,0,0,0h0s0,0,0,0,0,0,0,0-.7-.5-.61-.48,0,0,0,0l0,0c-.07,0-.11,0-.1,0s0,0,0,0,0,0,0,0,0,0-.07,0,0,0,0,0,0,0,0,0,0,0,0,0,0,0,0,0-.09,0,0,.05-.12-.06-.11-.05-.14.06-.08.07,0,0,0,0,0,0,0,0l0,0c-.07.07-.09.07-.08,0s0,0,0,0,0,0,0,0c-.16.12-.19.16-.11.13s0,.05,0,0,0,0,0,0,0,0,0,0,0,0,0,0c-.07-.26-.5.16-.5.16s0,0-.08,0,0,0,0,0-.34,0-.2-.08c0-.16-.54.5-.43.22,0,0,0,0-.05,0s0,0,0,0l0,0c-.29-.19-.37-.25-.24-.21-.17.07-.21.11-.14.11V5s0,0,0,0,0,0,0,0-.06.1-.11.09,0,0,0,0c-.6,0-.8,0-.59,0,0,.07,0,.09,0,0s-.32.11-.4.05-.11,0-.06,0,0,0-.05,0,0,0,0,0-.27.12-.18.13c-.14,0-.21.07-.21.16h0s0,0,0,0,0,0-.09,0,0,0,0,0-.06,0-.14,0,0,0,0,0a0,0,0,0,0,0,0s-.51.17-.49.11-.17,0-.14.11-.31-.09-.2-.13,0,0,0,0l0,0s0,0-.06,0,0,0,0,0,0,0-.1,0,0,0,0,0,0,0,0,0,0,0,0,0a.38.38,0,0,1-.33,0s0,0,0,0-.1,0-.19,0,0,0,0,0,0,0-.05-.06l0,0c-.07-.08-.1-.09-.08,0s0,0,0,0-.18,0-.09.1,0,0-.05,0l0,0s0,0-.06,0,0,0,0,0-.1-.21-.09,0c-.06,0-.07.06,0,.05s-.26-.1-.26-.1,0,0,0,0,0,0,0,0a.84.84,0,0,0-.12.13s0,0,0,0,0,.05,0,0,0,0,0,0,0,0,0,0v0h0c0,.09,0,.11,0,.06s-.12,0-.12.05,0,0,0,0-.33.13-.2.09c0,0,0,0,0,0a.05.05,0,0,1,0,0s0,0,0,0,0,0,0,0c-.05.19-.08.25-.08.18s0,0,0,0,0,0,0,0c0,.16,0,.2,0,.12a.18.18,0,0,0-.08,0s0,0,0,0-.08.09-.05,0-.07.06-.09,0l0,0h0s0,0,0,0a1,1,0,0,0-.26.1c0-.13-.27,0-.26,0-.17-.14-.21-.16-.1-.07s0,0,0-.06,0,.21,0,.14-.13,0-.08.06-.22.06-.19,0-.13,0,0,0c-.08-.12-.12-.15-.11-.08s0,0,0,0h0c0-.18-.34.18-.29,0,0,0,0,0-.06,0s0,0,0,0-.18.3-.13.16,0,0-.06,0,0,0,0,0l-.11,0s-.17-.1-.1-.13c.28.66-.49.13-.41,0-.1.09-.38,0-.36.22,0,0-.31.09-.26,0,0,0-.23,0-.22,0a.39.39,0,0,1-.21.08,0,0,0,0,1,0,0c-.07,0-.08.06-.05,0s-.15.07-.11,0,0,0,0,0,0,0,0,0h0c-.14.08-.16.12-.09.12-.12,0-.16,0-.09,0s0-.08-.06-.08,0,0,0,0c-.21,0-.27-.1-.19-.16h-.11c0,.12-.23.06-.2,0s0,0-.06,0,0,0,0,0-.31-.37-.09-.24c-.05,0-.09,0-.1,0h0c-.05,0,0,0-.06-.08s0,0,0,0-.12-.1-.06-.06l-.1,0s-.14,0-.11,0,0-.12-.07-.11,0,0-.07,0,0,0,0,0a.06.06,0,0,1,0,0s0,0,0,0,0-.06,0-.09,0,0,0,0,0-.24-.14-.19,0-.23-.06-.19c0-.18.16-.52,0-.3,0,0,0,0,0,0s0,0,0,0-.11,0,0-.06-.1,0,0,0c-.09-.23-.09-.28,0-.16.13-.06.17-.1.09-.12s0,0,0,0,0,0,0,0,0,0,0,0c.05-.2.05-.27,0-.2s0,0,0-.09-.12.14-.13.07,0,0,0,0v0c-.12.26-.09,0-.1.06s0,0,0-.09,0,0,0,0c0-.21,0-.28-.09-.21s0,0,0-.08,0,0,0,0,0,0,0-.07,0,0,0,0,0,0,0,0,0,0,0,0,0-.06.07-.12,0,0,0,0a.5.5,0,0,1,.07-.09s0,0,0,0,0,0,.06-.06,0,0,0,0,.06,0,0,0,0,0,0,0,0,0,0-.08,0,0,0,0,0,0,0-.07c-.29,0,.3-.32.15-.19,0,0,0,0,.07-.06s0,0,0,0,.12-.11.09-.05l.07-.06c0-.18.1-.26.12-.32s0,0,0-.08,0,0,0,0,0-.06,0-.09,0,0,0,0,.06,0,0-.07-.07,0,0,0,0,0,0,0,0,0,0,0,0,0,0,0a.28.28,0,0,0,.21-.1s0,0,0,0,0,0,0-.05,0,0,0,0l0,0s0,0,0,0c0-.17,0-.22.12-.17s0,0,0,0,0,0,0,0l0,0s0,0,0,0c.17-.28.22-.36.17-.25.09,0,0-.23,0-.17,0-.12,0-.16,0-.11,0-.14,0-.18,0-.1s0-.07.07,0h0s0,0,0,0v0s0,0,0,0,0,0,0-.08,0,0,0,0,.15-.16.21-.13,0,0,0,0c.08.25.29.18.38.06S207,2,207,2s.07-.08,0,0,.11-.21.1-.13,0,0,0,0,.34.19.29-.06c0,0,0,0,.06,0s0,0,0,0,0,0,0,0,0,0,0,0,0,0,0,0,0,0,.06,0,0,0,0,0,.17-.11.13,0l.07-.07s0,0,0,0c.15,0,.2-.1.14-.17.29-.16,0,.07.15,0v0l0,0s0,0,0,0c.23-.1.32-.1.25,0s0,0,.07,0,0,0,0,0,.12.07.06,0,.09,0,.06,0,.08-.14,0-.05,0,0,.09,0,0,0,0,0,0,0,.07,0,0,0,0,0,0,0,0,0l0,0a.15.15,0,0,0,.14-.1s0,.05-.06.08.06-.1.1-.06,0,0,0,0c.24-.07.3-.05.19,0,.07,0,.07-.07.12,0s0,0,0,0,0,0,0,0-.05-.1,0-.13,0,0-.05,0,.07-.1.1-.11,0,0,0,0a0,0,0,0,1,0,0l.24-.11s0,0,0,0,0,0,0,0,0,0,0,0h0s.1,0,.05.07.08.08.11.06l0,0c.15,0,.19-.05.12-.07.09,0,.12,0,.09-.05s0,0,0,0,0,0,0,0,.18-.1.13,0,0,0,.09,0,0,0,0,0,.06,0,.07,0,0,0,0,0,.17.09.18.09l0,0c.12,0-.14-.16.07-.13,0,0,0,0,0,0s0,0,0,0,0,0,0,0c.1-.16.12-.2.08-.11s0,0,.08,0,0,0,0,0,0,0,.06,0,0,0,0,0,.23.09.14.13l0,0s.31-.39.31-.05c0,0,0,0,0,0,.08-.16.07,0,.06,0s0,0,.08,0l0,0c.18,0,.23,0,.15,0s0,0,.08,0l0,0c.17-.13.23-.07.19-.15a.11.11,0,0,1,.07-.05s0,0,0,0,.11-.09,0-.07,0,0,.06,0l0,0c.16,0,.2,0,.13-.05.12,0,.15,0,.11.07s0,0,.09,0,0,0,0,0,.15.1.1.14c.25.06.34.06.26,0s0,0,0-.07.16,0,.12,0,.06,0,.1,0v0s0,0,.05,0,0,0,0,0,0,0,0,0,0,0,0,0,.12,0,.06,0c-.1-.45.14-.18.19-.17s0,0,0,0,0,.09,0,0,0,.12,0,.1.14,0,.07,0c.12,0,.16,0,.1,0L213,1c.1,0,.13,0,.09,0a.77.77,0,0,1,.17-.13c.08,0,.08,0,0,0s0,0,0,0,0,0,0,0,0,0,.08,0,0,0,0,0,0,0,.05,0,0,0,0,0c.17-.08.22-.09.16,0s.29,0,.24.06,0,0,0,0,0,0,0,0c.37-.18.47-.18.29,0l.1-.1c0,.05.06-.06.06,0s0,0,0,0,0,0,0,0,0,0,0,0,0,0,0,0,0,0,0,0,.06-.15.13-.1h0s0,0,0,.07h0s0,0,0,0a0,0,0,0,1,0,0c.07.05,0,0,.1,0-.11.05.14-.05.11,0s0,0,.1,0,0,0,0,0,0,0,.06,0l0,0c.14,0,.16,0,.1-.06s.07,0,0,0,.12-.11.08,0c.12,0,0-.15.11-.11s0,0,0,0l.06-.07s0,0,0,.05A.36.36,0,0,0,215.2.7v0c.05,0,0-.1.09-.07h0c.06,0,.09,0,.08,0s0,0,0,0,0,0,0,0,0,0,0,0,0,0,0,0c.15,0,.19,0,.12-.05.09.35.37-.29.28-.06,0,0,0,0,0,0l.07.06s0,0-.05-.06,0,.13,0,.12l.08,0c-.05.06.19-.29.11-.1.14-.08.19-.08.14,0s0,0,.06,0,0,0,0,0l0,0a.18.18,0,0,0,.07,0s0,0,0,0l0-.07s0,0,.07-.07-.12,0,0-.06a.05.05,0,0,0,0,0s0-.05.07-.08,0,0,0,0,0,0,.09,0,0,0,0,0c.16,0,.21,0,.16,0s.08-.17.08-.08c0-.07,0-.09,0,0s.07,0,.07,0,.14,0,.11-.07,0,0,0,0S216.85,0,216.86,0Z"/><path class="cls-2" d="M243.31,6.64s0,0,0,0,0,0,.12,0,0,0,0,0,0,0,.12,0c-.09,0,.14,0,.06,0s0,0,0,0,0,0,0,0,.06,0,0,0,0,0,0,0l0,0c.17-.07.22-.06.16,0s0,0,.08,0,0,0,0,0,.33.28.14.3c0,.1.07.15.15.14v0c.24-.06.15.16.2.07s0,.06.06,0,.06-.22.11-.19,0,0,0,0,.09,0,.07,0,0,0,0,0,0,0,0,0h.06c.21,0,.29,0,.24.12s0,0,0,0,0,0,0,0c0-.16.21,0,.22,0s0,0,.06-.07l0,0s0,0,.09-.08,0,0,0,.06c.16,0,.21,0,.14,0s0,0,.06,0,0,0,0,0,.41.05.38.11,0,0,.08,0,0,0,0,0,.05,0,.11.06,0,0-.06,0a.31.31,0,0,0,.21.07c0,.05,0,.07,0,0s0,0,0,0,.33.13.2.18c.12,0,.15,0,.11.1a.05.05,0,0,0,.08,0h0s0,0,0,0,0,0,0,0,0,0,0,0-.07-.06,0-.09l0,0c.18-.14.57.23.49.14a.45.45,0,0,0,.24.18c-.09.13-.05.19.13.16,0,.06,0,.07,0,0s0,0,0,0,0,0,.08,0,0,0,0,0a1.42,1.42,0,0,1,.24-.07c.19,0,.24,0,.16,0s0,0,.08,0,0,0,0,0,0,0,.05,0,0,0,0,0,.28.23.28.23c.36-.32.23-.13.58,0,0,0,0,0,0,0h0c.31,0,.41.1.32.22,0,0,0,0,.06,0s0,0,0,0,.17,0,.12,0,0,0,0,0,0,0,0,0,0,0,.07,0,0,0,0,0a.24.24,0,0,1,.08.14s0,0,0,0,0,0,0,.06,0,0,0,0,.1.11.05.08c0,.19,0,.06,0,.07h0s0,0,0,0,0,0,0,0c0,.16,0,.2,0,.13l0,0a1,1,0,0,0,.18-.2s0,0,0,0,0,.05.1,0c.19.45.32,0,.27,0s0-.09.27-.11.18,0,.13,0c.12,0,.14,0,.1.06s.1,0,0,0,0,0,.07,0,0,0,0,0c.17.17.41,0,.59.13l0,0c.17,0,.22,0,.17.09s.18,0,.08,0c.13,0,.16,0,.11,0a.25.25,0,0,0,.11-.09s0,0,0,0,.07,0,.08,0,0,0,0,0,.1.14,0,.11,0,0,0,0,0,0,0,0,0,0,.1,0,0,0,0,0,0,0,0,0,0,0,0,0C252,9,252,9,252,9c.19-.08.25-.08.19,0s0,0,.06,0,0,0,0,0c.16,0,.1.09.09.09s0,0,0,0,0,0-.08,0,0,0,0,0,.1.14.08.18,0,0,0,0,.09.07,0,0,0,0,.09,0,0,0,0,0,.1,0,.07,0,.21.06.09,0,0,0,0,0,0,0,0,0c-.49.15.12.16,0,.19s0,0,0,0,0,0,.05,0-.05.31-.06.22,0,0,0,.09,0,0,0,0,.09.06,0,0,.08,0,0,0,.15,0,.08,0,0,0,0,0l0,0,0,0s0,0,0,0,0,0,0,0,0,0,0,0,0,0,0,0,0,0,0,0,.07.11,0,.09l0,0s0,0,0,0l0,0s0,0,0,0a.19.19,0,0,1,0,.26s0,0,0,0,0,.13,0,.08c-.53.4.24.13.07.19.06.26.11.07.1.25,0,0,0,0,0,0s0,0,0,.06,0,0,0,0,0,.16,0,.1c-.08.1-.1.13-.07.08-.05.12,0,.16,0,.1l0,0c.05,0,.07,0,0,0s0,0,0,0,0,.06,0,.08-.08,0-.05,0l0,0s0,0,0,0c0,.16-.05.19,0,.08s0,0,0,0,0-.07,0,0,0,0,0,0-.06,0-.07.06,0,0,0,0-.11.77-.22.6c-.09.11-.12.11-.09,0a.2.2,0,0,1,0,.1s0,0,0,0,0,0,0,0,0,.16,0,.19-.26.09-.24.08-.08,0-.08,0,0,0-.07,0h0s-.2.11-.19.07c-.22.12-.28.17-.18.13-.13.12-.15.16-.08.13s0,0,0,0,0,0,0,0,0,.08-.09.05,0,0,0,0l0,0v0s-.31-.2-.29-.1,0,0,0,0,0,0,0,0-.07.18,0,.16,0,0,0,0-.14.32-.09.16c0,0,0,0-.05,0s0,0,0,0-.18-.12-.18-.13l0,0s0,0,0,0c-.34.19-.48.21-.4.08,0,0-.1.09-.08,0s-.12,0-.07,0-.15,0-.1-.06,0,0,0,0,0,.05,0,0h0c-.15-.08-.18-.11-.11-.08l-.16-.05s0,0-.07,0l0,0c.11.18-.26,0-.15,0s-.16-.07-.09-.09,0,0-.06,0,0,0,0,0-.17.05-.11,0-.2-.12-.11-.1,0,0,0,0l0,0s0,0,0,0c.14,0-.14,0-.12,0s0,0,0,0,0,0,0,0,0,0,0,0,0,0,0,0-.07-.05-.15,0,0,0,0,0c-.32.09-.42.13-.29.13h0c-.25.06-.33.1-.22.13l0,0c-.06-.16-.2.13-.16,0s0,0,0,0l0,0s0,0-.07,0,0,0,0,0v0s-.49.24-.27.2c0-.06-.06,0-.08,0s0,0,0,0l-.06,0c0,.05,0,0,0,0s0,0,0,.06,0,0,0,0a.12.12,0,0,0-.09,0s0,0,0,0,0,0-.06,0,0,0,0,0-.09,0-.06,0,0,0,0,0,0,0,0,0h0c-.11.1-.12.11,0,0s-.08.07-.12.1,0,0,0,0-.3.1-.2.15c-.1.1-.12.13-.1.07s0,0,0,0l0,0a0,0,0,0,0,0,0l0-.14s0,0-.06,0,0,0,0,0-.33-.09-.32-.12,0,0,0,0,0,0,0,0,0,.05-.07.07,0,0,0,0l0,0s0,0,0,0,0,.06,0,0l0,0s0,0,0,0,0,.05.05,0l0,0h0l0,0s0,0,0,0-.23.19-.18,0c0,0,0,0,0,0s0-.07,0,0,0,0,0,0a.16.16,0,0,1-.21-.11s-.28.19-.12.17v0l0,0s0,0,0,0l0,0,0,0s0,0-.05,0,0,0,0,0,0,0,0,0,0,0,0,0,0,0,0,0,0,.06,0,0,0,0,0,0,0,0,0-.05h0c-.06,0,0,0-.12,0s0,0,0,0,0,0,0,0,0,0,0,0a.15.15,0,0,0-.1,0l0,0c-.25.22-.33.27-.26.16-.07.1-.09.12-.07.07a2.84,2.84,0,0,1-.23.21s.05-.06.07-.09c-.15.12-.23.12-.21,0H245s0,0,0,0,0,0,0,0l0,0s0,0,0,0a.12.12,0,0,0-.12.11s0,0,0,0,0,0-.06.07,0-.06.06,0-.09.13-.09.08-.06.07,0,0,.4.54,0,.39c0,0,0,0,0,0h0s0,0,0,.06,0,0,0,0,0,.18,0,.13,0,0,0,.08,0,0,0,0c.06.12.06.17,0,.13s0,.1,0,.15.07,0,0,0a.23.23,0,0,0,.16.15s0,0,0,0,.1,0,0,.07,0,0,0,0,0,0,0,0,0,0,.11,0,0,0,0,0c.24.08.31.12.21.11.1.12.18.14.24.07s0,0,0,0,0,0,.1,0c-.45-.07.29.43.19.26h0s0,0,.08,0a0,0,0,0,1,0,0s0,0,0,0a.17.17,0,0,0,0-.05c0,.09,0,.12.11.1s0,0,0,0l0,0s0,0,0,0,0,0,0,0,0,0,0,0c.19.09.25.12.16.09.21.34.23.41.07.21-.32-.27.19.31.19.26l0,0s0,0,0,0,.08,0,0,0,.16.1.15.1.14.31.23.19c0,.1,0,.12,0,.08a.38.38,0,0,1,.1.11s0,0,0,0,0,.05,0,.06.11,0,.07,0a.2.2,0,0,0,.22.05c.06.12,0,.17,0,.14s.19.28.24.26l0,0s0,0,.05,0,0,0,0,0h.06c.15.06.2.06.17,0s0,0,0,0,0,0,0,0,.42.41.37.44l.06.24c-.2.15.15.1.07.13s.17.09.17.18,0,0,0,0,0,0,0,0,0,0,0,0,0,0,0,0,.12.07.08.1.31.23.18.28.08,0,.08,0c-.05.16,0,.23,0,.19s0,0,0,0,0,0,0,0,0,0,0,0h0s0,.06,0,.07,0,0,0,0,0,0,0,0l0,0a.5.5,0,0,1-.05.1c.09-.08.13.14.07.13s0,0,0,0-.1,0-.11,0,0,0,0,0,0,0,0,0-.07,0-.1,0l0,0s0,0-.07.07,0,0,0,0,0,.12,0,.08.18,0,.22.11,0,0,0,0-.06.14,0,.11-.05,0,0,0,0,0,0,0,0,0,0,.08,0,0,0,0,0,.11.05.1,0,0,0,0v0c0,.34,0,.44,0,.31,0,.19,0,.24-.06.13s0,0,.05,0-.06.08-.05,0-.06.08,0,.05,0,.09,0,.08,0,.1,0,.08,0,0,0,.06,0,0,0,0,.09.46.13.32a.06.06,0,0,1,0,.06s.07.2.07.19.05,0,0,.07v0c0,.06,0,.09,0,.08s0,0,0,0-.06.1,0,.07-.08.06,0,.05,0,0,0,0a.83.83,0,0,1,0,.13s0,0,0,0,0,.18,0,.18,0,.05,0,0,0,0,0,0,0,0,0,0a.67.67,0,0,1-.11.2.05.05,0,0,1,0,0c-.07.06-.07.09,0,.06s0,.1,0,.07,0,.05,0,.08,0,0,0,0,0,0,0,0,0,0,0,0-.06.06,0,.12,0,0,.05,0l0,0c.06.13-.12.32-.11.36s-.14.16-.06.11c-.08.16-.1.22,0,.18s-.08.13,0,.1,0,0,0,0,0,0,0,0a.31.31,0,0,1-.23.1c0,.07-.06.08,0,0-.1.11-.1,0-.1,0s0,0-.06,0,0,0,0,0c-.26,0-.32.09-.19.12a.44.44,0,0,0-.22.18s0,0,0,0,0,.06,0,.08,0,0,0,0,0,0,0,0a.08.08,0,0,1,0,0c-.06,0-.06,0-.11.06l0,0,0,0s0,0,0,0,0,0,0,0,0-.06,0,0,0,0,0,0,0,0-.06.06,0,0,0,0,0,.11-.1.13c.1,0,.1,0,0,.08s0,0,0,0-.17.22-.14.23-.09,0-.07,0-.2,0-.18,0,0,0,0,0,0,0-.08,0,0,.26-.06.07l.07.06s0,.08-.07,0,0,0,0,0H247s0,0,0,0c-.41.2.1.12-.08.23,0,0,0,0,0,0s0,0,0,0c-.09.23-.12.3-.07.21a.25.25,0,0,1-.21.06c0,.05-.05.06-.05,0s0,0,0,0,0,0,0,0l0,0s0,0,0-.05,0,0-.08.06,0,0,0,0l-.12.12s.05-.05.08-.06a1.67,1.67,0,0,0-.11.16s0,0,0,0,0,0,0,0-.05-.05,0-.08-.1.07-.07.1,0,0,0,0l0,0c0,.06,0,.1-.05.15s0,0,0,0-.13,0-.1.07,0,0,0,0,0-.06-.09,0,0,0,0,0c-.17,0-.22,0-.17,0-.25.26-.36.3-.35.13-.09,0-.12,0-.06,0l0,0h0s0,0,0,0-.08.14-.08.08-.09.11-.13.1-.17,0-.11,0,0,0-.07,0,0,0,0,0-.07-.17-.17-.1,0,0,0,0,0,0,0,0h0c-.06,0-.08,0-.08,0s0,0-.08,0,0,0,0,0,0,0,0,0,0,0,0,0a.2.2,0,0,1-.09,0s0,0,0,0,0,0-.09,0,0,0,0,0,0,0-.09,0h0c-.22.17-.2,0-.17,0s-.19,0-.11,0c-.08,0-.11,0-.06,0s-.12,0-.06,0-.05,0,0-.06,0,0,0,0,0,0,0,0,0,0-.05,0,0,0,0,0,0,0,0,0,0,0,0,0,0,0,0,0-.08,0-.06-.07h0c0-.1-.17-.09-.09-.13s0,0,0-.09c-.18.1-.23.11-.18,0s0,0-.07,0l0,0-.21,0s0,0,0,0-.16,0-.13,0,0,0-.05,0,0,0,0,0,0,0-.05,0,0,0,0,0l0,0c-.07,0-.06-.18-.17-.09s0,0,0,0-.08.08,0,0,0,0-.05,0,0,0,0,0l-.1,0c0,.08-.31,0-.24,0s0,0-.05,0l0,0c-.12.16-.14.21-.09.13-.11.07-.15.08-.12,0a.25.25,0,0,0-.21,0s0,0,0,0-.07-.07,0-.06,0,0,0,0,0,0,0,0,0,0,0,0l0,0c-.09,0-.12,0-.08,0s0,0-.07,0,0,0,0,0,0,0,0,0,0,0,0,0,0,0,0,0-.14.16-.09.1a.13.13,0,0,0-.1,0l0,0s0,0-.06,0,0,0,0,0c-.17.07-.21.09-.1.07-.05,0-.05.06,0,.1s-.15-.06,0,0,0,0,0,0,0,0,0,.08.17,0,.09.07,0,0,0,0-.05,0,0,0,0,0,0,0-.16.11-.14.11-.08-.1-.14-.07,0,0,0,0,0,0,0,0a0,0,0,0,1,0,0c.57.69-.57-.08-.36,0,0,0,0,0,0,0h-.18s0,0-.07,0h0s0,0-.06,0v0s0,0,0,0,0,0,0,0l-.07.05s0,0,0,0,0,0,0,0,0,0,0,0,0,0,0,0v0s0,0,0,0,0,0,0,0c-.17,0-.21,0-.15.05-.24,0-.32,0-.21,0h-.06s0,0,0,0,0,0,0,0l0,0s-.39.39-.3.14c0,0,0,0-.06,0s0,0,0,0-.17.08-.13,0c0,.09,0,.12-.06.1h0c-.09,0-.12,0-.08,0-.07.13-.64.29-.46.23,0-.17-.06.07,0,.08l0,0s0,0,0,0-.11.26-.35.23c-.08.07,0,.23,0,.23s0,0,0,0,0,0,0,0-.06.33,0,.22c0,.06.11,0,0,.05s0,0,0,0,0,0,0,.05,0,0,0,0-.15.16-.11.16,0,0,0,0-.06,0-.12.09,0,0,0,0,.05.25.07.34v0c0,.05.18,0,.1.09s0,0,0,0,0,.05-.07.08,0,0,0,0,0,0,0,.05.09,0,0,.14,0,0,0,0,0,0,0,.05,0,0,0,0,0,.12,0,.08,0,0,0,.06,0,0,0,0c0,.28,0,.38,0,.26-.09.16-.14.18-.13.1s0,.06-.07,0,0,0,0,0,0,0,0,0,0,0,0,0a.6.6,0,0,0-.11.11v0l0,0c0-.08,0,.23,0,.27s-.13.2-.12.11c-.16.11,0,.05,0,.11s0,0,0,0,0,.28,0,.21c0,.17,0,.21-.06.14,0,.14,0,.17,0,.11,0,.16,0,.21,0,.16s0,0,0,.06,0,0,0,0c.08.16.12.21.12.14s0,0,0,0,0,0,0,0-.06,0,0,.06,0,0,0,0,0,.07,0,.07,0,0,0,0,0,0,0,0,0,0,0,0c.1.23.1.31,0,.26s0,.09,0,.05,0,0,0,.06,0,0,0,0,0,.22,0,.24l0,0s0,0,0,0-.1.2-.08.17.08.13,0,.09a.58.58,0,0,0-.07.19s0,0,0,0,0,0,0,0-.05.1,0,.07,0,0,0,0v0s0,0,0,0,0,0,0,0,0,0,0,0,0,.05,0,.11l0,0a.49.49,0,0,1,0,.15s0,0,0,.06,0,0,0,0,0,.07-.07.16,0,0,0,0,0,.1,0,.06,0,0,0,0,0,0,0,0,0,0,0,.07,0,0,0,0,0,0,0,0,.17.14,0,.1c0,.09,0,.12,0,.08s-.07.06,0,.12,0,0,0,0a.24.24,0,0,1,0,.13c.14,0,0,.11.08.15-.07.05,0,.06-.08.15s0,0,0,0,0,0,0,.07,0,0,0,0a.07.07,0,0,0,0,.06s0,0,0,0,0,0,0,0,0,0,0,0,0,0,0,0,0,0,0,0c-.13.15-.15.21-.05.18s0,0,0,0l0,0a1.24,1.24,0,0,1,0,.15,0,0,0,0,0,0,0s0,0,0,0,0,0,0,0c.06.2.24.09.33.18s0,0,0,0h0c0,.08,0,.1,0,.05s0,0,0,.11,0,0,0,0,0,0,0,.05,0,0,0,0,.09.1,0,.07,0,0,0,0,0,0,0,0,0,0,0,0l0,0c-.06.31,0,.42,0,.32.08.3.09.4,0,.29s0,0,0,.07,0,0,0,0,0,0,0,0,0,0,0,0,.05,0,0,0,0,0,0,0v.23s0,.07,0,.1,0,0,0,0c-.12.22-.14.29-.07.21s0,0,0,0,0,0,0,0,0,.1,0,.06,0,.13,0,.09c-.06.14-.06.18,0,.12s0,0,0,0,.18,0,.12,0,0,0,0,.06,0,0,0,0,.05,0,0,0,.1,0,.05,0,0,.12,0,.11-.16.18-.07.1,0,0,0,0,0,0,.07,0,0,0,0,0-.11.09-.07.12-.06.15-.12.11,0,0,0,.05h0s0,0,0,0,0,0,0,0,0,.16-.08.13.25.14.18.16.07,0,.06.06,0,0-.09,0,.21.13.2.21,0,.07,0,.09,0,.3,0,.28,0,0,0,.05,0,0,0,0a.18.18,0,0,0-.09.07s0,0,0,0-.05.07,0,.14.24,0,.15,0c.1.23.06-.07,0,.08,0,0,0,0,0,0s-.1,0-.05,0,0,0,0,0h0s0,0,0,0,0,.12,0,.1c-.12.16-.17.19-.16.08s-.05.05-.09.08.05-.06.07-.05-.08.2-.08.13-.06.25-.11.17,0,0,0,0,0,0,.06,0c.05.26,0,.36-.08.3s0,.07,0,0,0,0,0,0l0,0c-.1.11-.1.16,0,.12,0,.12-.16.23-.14.08s0,0,0,0,0,0,0,0,0,0,0,0a.29.29,0,0,0-.08.19s0,0,0,0v0s0,0,0,0,0,0,0,0,0,0,0,.05,0,0,0,0-.08,0-.11.08,0,0,0,0,.11,0,0,.07,0,0,.05.07c-.14,0-.18,0-.1,0-.08,0-.1,0-.07,0s-.12,0-.06,0l0,0c0,.06-.07.07-.06,0s-.1.1,0,.06-.06.13,0,.1c-.06.2-.4.38-.37.34l-.13.17s0,0-.06,0,0,0,0,0,0,0-.07,0,0,0,0,0l0,0c-.13,0-.18,0-.13,0s0,0-.07,0,0,0,0,0-.19-.05-.13-.08-.07-.09-.1-.07.1-.09,0-.1,0,0,0,0,0,0-.06,0,0,0,0,0-.14,0-.1,0-.19-.15-.11-.18,0,0-.07,0,0,0,0,0c-.25-.08-.31-.12-.18-.11s0,0,0,0,0,0,0-.05,0,0,0,0h0s-.09-.12-.07,0,0,0,0,0l0,0s.06,0,0-.07,0,0,0,0-.09-.19,0-.17,0,0,0,0,0,0,0,0a.79.79,0,0,0-.5-.14c.18-.06-.16,0-.08-.08s0,0,0,0h0s0-.22,0-.18c.08.14-.7-.09-.43-.06,0,0,0,0,0,0s0-.08,0,0c-.08-.12-.09-.19,0-.18s-.13-.15-.21-.08,0-.09,0-.09c.13.09-.24.07-.13,0s0,0-.08-.05,0,0,0,0c-.14-.13-.18-.15-.09-.05a.37.37,0,0,1-.2-.28s0,0,0,0,0-.09,0-.06,0,0,0-.06,0,0,0,0,0,0,0,0,0,0,0,0c0-.19,0-.25,0-.17s0,0,0,0l0,0a.08.08,0,0,0,0,0s0,0,0,0l.11-.08,0,0c.23-.11-.23,0-.12-.08a.15.15,0,0,0-.17-.06s0,0,0,0c-.08.17-.19-.59,0-.24,0,0,0,0,0,0s0,0,0,0a.26.26,0,0,1,.18-.13l0,0s0,0,0,0-.2-.11-.2-.14,0-.06,0-.06h0s0,0,0,0-.07-.08,0-.1-.08,0,0,0-.1,0,0,0,0,0,0-.07,0,0,0,0a.06.06,0,0,0,0,0s0,0,0,0,.07,0,.05-.07-.05-.2,0-.19,0,0,0,0c-.05-.24,0-.25,0-.23s-.07-.13-.06-.08,0,0,0-.07l0,0c-.07,0-.08-.08,0-.1s0,0,0,0,0,0,0-.06,0,0,0,0,0,0,0,0,.09-.12,0-.13c.76-.55-.11-.16.06-.27,0,0,0,0,0,0s.05,0,0-.06,0,0,0,0,0-.25,0-.23,0-.05.11-.06,0,0,0,0,0,0,0-.06-.08-.06,0,0c0-.18,0-.08-.1-.12s0,0,0,0-.11-.19,0-.16c0-.14-.06-.18-.07-.11s-.07-.29,0-.25-.07,0-.06,0,0,0,0,0,0-.07,0-.07v-.05a.12.12,0,0,1,0-.14s-.17-.08-.1-.11l0,0s0,0,0,0v0c-.09.07-.1,0,0-.12l0,0s0,0,0,0,0,0,0,0,.06,0,0-.06-.12,0-.07-.09l0,0c-.09-.17,0-.28-.13-.21,0,0,0,0,0,0s0,0,0,0c-.14-.16-.11-.2-.07-.29s0,.05-.05,0,0,0,.08-.1l0,0s0,0,0,0,0,0,0,0,.07-.07.07,0,0,0,0-.08,0,0,0,0a.22.22,0,0,1,0-.13s0,0,0,0c.13-.26,0-.23-.19-.23,0,0,0,0,0,0s0,0,0,0,0,0,.07,0l0,0c.12,0,.15,0,.09,0s0-.05.06,0,0,0,0,0,0,0,0,0a.46.46,0,0,0,0-.29s.08,0,0-.07h0s0,0,0,0l0,0c-.06,0,.09-.07,0-.1a.11.11,0,0,0,.08-.09s0,0,0,0,0,0,0,0l0,0c.08-.49.39,0,.09-.09,0,0,0,0,0,0s0,0,0,0l0,0s0,0,0,0,0-.13,0-.15a0,0,0,0,1,0,0s0-.1,0-.15h0c0-.12,0-.14-.05-.07s0-.08,0-.07,0,0,0,0,0-.06,0-.09,0,0,0,0,0,0,0,0a.75.75,0,0,1-.08-.37v0s0,0,0,0,0,0,0,0,0,0,0,0-.32-.35-.22-.51l0,0c0-.1,0-.11,0-.06a0,0,0,0,1,0,0s0,0,0,0,.29-.15.22-.16,0,.05.08,0,0,0,0,0,0,0,.05,0h0c0-.09,0-.13-.11-.1s0,0,0-.06,0,0,0,0,0,0,0,0,0,0,0,0,0-.2-.06-.19,0,0,0,0,0,0,0,0,0,.06.05,0,0,0,0,0c.16-.08.11-.09.13-.19s0-.11,0-.07,0,0,0,0,0,.14,0,.1,0,0,0,0,0,0,0,0,0,0,0,0,0,0,0,0-.1.17-.08.07,0-.06,0-.09h0s0,0,0,0l0,0s0,0,0,0,0,0,0,0,0,0,0-.07h0c.17-.27.19-.38.06-.34s0,0,0-.06,0,0,0,0l0,0s0,0,0,0-.07-.24-.06-.25,0,0,0,0,0,0,0,0l0,0s0,0,0,0,0,0,0,0,0,0,0,0,.13.07.11,0-.1-.36,0-.34,0,0,0,0,0-.17.1-.19,0,0,0,0,0,0,0,0,0-.07,0-.1,0,0,0,0,.08-.08,0-.11.06-.16.11-.11,0,0,0,0l0,0c0-.09,0-.12,0-.07s0,0,0,0-.07,0,0,0,0,0,0,0,0,0,0,0a.54.54,0,0,0-.14-.28s0,0,0-.06h0s0,0,0,0,0,0,0,0,.1,0,.1-.07,0,0,0,0,0,0,0,0,.09-.23-.09-.06c0,0,.07-.06.1-.09s0,0,0,0,0-.12,0-.16,0,0,0,0l0,0s0,0,0-.07,0,0,0,0,0,0,0-.11,0,0,0,0,0,0,0-.06,0,0,0,0,0,0,0,0,0,0,0,0,.05,0,0,0,0,0,0,0,.14-.22.08-.24,0,0,0-.06,0,0,0,0,.07-.4,0-.4h0l0,0s0,0,0,0,0,0,0,0,0,0,0,0v0s0,0,0,0,0,0,0,0,0,0,0,0h0c0,.08-.07-.16-.06-.13s-.05,0,0,0l0,0s0,0,0,0,.25-.4.11-.35a.09.09,0,0,1,0-.08s0,0,0,0,0,0,0,0,0,0,0,0-.08-.41-.11-.29c-.07-.18-.07-.24,0-.2a.09.09,0,0,0,0-.13h0s0-.17,0-.17.07,0,.06,0,0,0,0,0,0-.06,0,0,.08,0,.06-.07,0,0,0,0,0,0,0-.05,0,0,0,0,0,0,0,0-.22-.37-.24-.38,0,0,0,0,0-.12-.05-.09c.1-.28.13-.36.13-.25a.13.13,0,0,1,.08-.1h0c-.17,0,.08-.17.07-.09s0,.07,0,.05,0,.1,0,.05l0,0s0,0,.06,0,0,0,0,0,0,0,0,0,.08-.08,0-.05,0-.06,0,0c.17-.13.23-.16.17-.08a.07.07,0,0,0,0,0s0,0,0,0,0,0,0-.07,0,0,0,0,0,0,0,0l0,0s0,0,0,0,0-.12,0-.1,0-.12,0-.08.06,0,0-.07v0s0,0,0,0,0,0,0,0,0,0,0-.06,0,0,0,0-.07-.4,0-.41l0,0c-.07,0-.08,0,0,0v0s0,0,0,0l0,0,0,0s.07-.11,0-.11,0,0,0,0-.22-.43-.21-.45,0,0,0,0,0,0,0,0,0,0,0,0,0,0,0-.08,0,0,0,0,0,0,0,0,0,0,0,0,0-.17,0-.12-.07-.21-.08-.17,0,0,0,0,0-.48,0-.39c0-.1,0-.12,0-.08s0-.07,0,0a.12.12,0,0,0,.12,0s0,0,0,0-.06-.23-.06-.19l0,0s.07,0,0-.07l0,0c0-.14-.08-.11-.09-.1s0,0,0,0,0,0,0,0c.06-.2.07-.25,0-.17a.54.54,0,0,0,0-.11l0,0s0-.06,0,0c.18-.05.07-.26,0-.28s0,0,0-.08-.07,0,0,0,0,0,0,0,0,0,0,0l.07-.15c0-.06.07-.11,0-.08s-.07,0,0,0v0c-.13-.12-.14-.16-.08-.13s0,0,0,0,0,0,0,0,0,0,0-.06,0,0,0,0,.29-.35.07-.32c0,0,0,0,0,0s-.07,0,0,0,0,0,0,0l0,0c0,.08,0,.11,0,.09s0,0-.05,0,0-.06.05-.1h0s0,0,0,0h0c-.06,0-.09,0-.08-.06s0,0,0,0,0,0,0,0,0,0,0,0l0,0s0,0,0,0,0,0,0,0a.12.12,0,0,1,0-.14s.05,0,0,0,.05-.12,0-.08,0,0,0,0,0,0,0,0,0,0,0,0,0,0,0,0h0c-.11-.12,0,0-.13,0s-.1-.3-.1-.28-.12.06-.1-.09l-.06.06c0-.17-.09-.23-.16-.15l0,0,0,0c0-.19,0-.25-.06-.18s0,0,0,0-.11-.16-.16-.09c0-.13,0-.17,0-.11s0-.13-.07-.11,0-.14,0-.09l0,0,0,0c.19-.21.26-.26.19-.16.1-.08.1-.13,0-.16s0,0,0,0h0c0-.07,0-.08-.06,0s-.06-.06,0,0-.06,0,0-.06,0,0,0,0,0,0-.07-.2,0,0,0,0,0,0,0,0l.18-.18c0-.07,0-.18-.08-.17h0s0,0,0,0-.05,0,0,0,0-.13,0-.08.2-.36.2-.25c.16,0,.19,0,.12-.07s0,0,0,0c.19-.19.24-.25.14-.2s0-.12.07-.08c0-.28,0-.38.12-.29.17-.39.17-.53,0-.44s0,0,0-.08,0,0,0,0-.18-.67-.15-.41c0,0,.08,0,0-.07s0,0,0,0,0,0,0,0,0,0,0,0c0-.15,0-.19,0-.13,0-.09,0-.12,0-.08,0-.11,0-.15,0-.12s0-.13,0-.12,0-.06,0,0,0,0,0-.06,0,0,0,0,.11,0,.09-.09,0,0,0,0,0,0,0,0l-.07,0c0-.06-.07-.08-.11-.06h0c-.13.19-.13,0-.11,0s0,0,0,0,0,.14-.09.11,0-.33.14-.25,0,0,.06-.08,0,0,0,0,0,0,0-.06,0,0,0,0a0,0,0,0,1,0,0s0,0,0,0,.05,0,0,0,0,0,0,0,0,0,0,0,0,0,0,0,0-.05,0-.08l0,0s0,0,0-.08,0,0,0,0a.08.08,0,0,1,0-.11s0,0,0,0,0,0,0,0,0,0,0,0l0,0a.06.06,0,0,0,0,0s0,0,0,0,0,0,.05-.06,0,0,0,0,0-.16,0-.1.05,0,0-.06,0,0,0,0,0,0,0,0,0,0,0,0,0,0,0,0-.12-.27-.15-.14a.05.05,0,0,1,0,0s0,0,0,0c0-.21-.05-.26-.09-.17a0,0,0,0,0,0,0c-.06,0-.08,0-.07,0s0,0,0,0-.12.08-.06-.08l0,0s0,0,0,0,.11-.12,0-.14.09-.1,0-.11.13.07.12,0h0s0,0,0-.05,0,0,0,0c0-.17-.07,0-.1-.08s0,.06-.07,0,0,0,0,0-.09-.06-.06,0-.34,0-.2-.08c-.12-.11-.15-.16-.08-.13s-.18-.08-.1,0,0,0,0,0,0,0,0,0l0,0c-.11-.17-.15-.22-.11-.15s0,0,0-.05,0,0,0,0-.09,0-.05,0-.29.15-.29.21,0-.1,0-.09l0,0s-.08,0,0-.06,0,0-.07,0h0c-.28.13-.37.15-.3,0-.11,0-.14,0-.09,0s0,0,0,0,0,0,0,0,0,0-.05,0,0,0,0,0,0,0,0,0,0,0,0,0,0,0-.05,0,0,0,0,0-.17-.18-.31-.13a2.59,2.59,0,0,0-.49.16h0c-.06,0-.51.11-.43.08s0,0,0,0,0,0,0,0,0-.17-.16-.14c0,0,0,0-.06,0s.2.07-.1.06c0,0,0,0,0,0s0,0-.05,0,0,0,0,0-.06.08-.09,0,0,0,0,0,0,0,0,0,0,0,0,0,0,0-.06,0,0,0,0,0,0,0-.05,0,0,0,0,0,0,0,0,0,0,0,0,0,0,0,0,0,0,0,0,0c-.35,0-.46,0-.33.07,0-.07,0,0-.08,0l0,0s0,0,0,0,0,0,0,0-.13.05-.08,0-.06,0-.14,0,0,0,0,0-.09-.06-.06,0-.24,0-.31-.06,0,0,0,0-.11,0-.07,0c-.11-.09-.13-.12-.06-.09s-.22-.27-.08-.1c0-.1,0-.13-.06-.08s0-.05,0-.09,0,0,0,0,0,0,0,0-.1,0-.07,0c-.09.24,0-.32-.07-.19,0,0,0-.08-.1-.08s0,0,0,0-.06,0-.05,0,0,0,0,0l0,0s0,0,0,0,0,0,0,0,0,0,0,0,.06,0,0-.06-.06,0,0,0a.06.06,0,0,0,0,0s0,0,0,0c0-.14,0-.18,0-.12s.1-.12.14-.16,0,0,0,0,0-.12,0-.07,0,0,0-.06,0,0,0,0c-.07-.21-.08-.27,0-.19s0-.06,0-.08-.06,0,0,0l0,0s0-.08,0-.1,0,0,0,0,.07-.21.07-.24,0,0,0,0,0,0,0,0,0,0,0,0,0,0,0,0,.09,0,.05,0,.15-.13.14-.06.06-.39.07-.37c.26,0,.34,0,.23,0s.08,0,.11,0h-.06a.28.28,0,0,1,0-.12s0,0,.05,0,0,0,0,0a.1.1,0,0,0,.13,0c.16,0,.21,0,.16-.05.11-.1.11-.1,0,0s.07-.08.1-.08,0,0,0,0l0,0s.08,0,0,0c.22-.24.29-.3.21-.19s0,0,.05,0,0,0,0,0,0,0,0,0v0c.06,0,0,0,.09,0s0,0,0,0,0,0,0,0l0,0c.11,0,.14,0,.1,0,.22-.16.29-.19.22-.1s.05,0,.1-.09,0,0,0,.06.05-.09.09,0,0,0,0,0,0,0,0,0l0,0c.15-.08.2-.08.14,0s0-.07.12,0,0,0,0,0,0,0,.05,0,0,0,0,0,0-.06,0,0,.28-.19.15-.14c0,.08.35,0,.3.14s0,0,.06,0,0,0,0,0,0,0,0,0,0,0,0,0,0,0,.05,0,0,0,0,0,0,0,.05,0l0,0s0,0,0,0,0,0,0,0h0s0,0,0,0,0,0,0,0c.23-.15.29-.17.18-.06s0,0,.07-.05,0,0,0,0l0,0s0,0-.06,0q.42-.27.33-.1s0,0,.08-.06,0,0,0,0c.17-.08.23-.09.18,0s0,0,.05,0,0,0,0,0,0,0,.06,0,0,0,0,0,0,0,.11,0-.06,0-.06.06,0,0,.06,0,0,0,0,0c.1-.28.11-.36,0-.25.14-.1.18-.12.14-.07.21,0,.27,0,.19,0h0c.1,0,.13,0,.07.08s0,0,0,0,0,.06,0,0l0,0s0,0,.05,0h0v0s.23-.39.12-.12a.61.61,0,0,0,.11-.11s0,0,0,0c.22,0,.28,0,.2-.09s0,0,0,0,0,0,0,0c-.08.27.5-.07.35,0,0,0,.16-.09.07-.12l0,0s0,0,0,0,.16-.12.14-.12.07-.13.12-.06.17.07.14,0c0,.17.12,0,.14.09h0c.08,0,.11,0,.1.06,0-.09,0-.12,0-.1s.27-.17.22,0,0,0,.06,0,0,0,0,0,0,0,.05,0,0-.1.07-.07,0,0,0,0c.19,0,.25,0,.17,0h.06c0,.07.14,0,.11.07.08-.07.11,0,.1-.13a.1.1,0,0,1,.13,0c-.08.05.13,0,0,0s0-.1,0-.06.2.09.13.21.05-.06.07-.06,0,0-.07.06a.2.2,0,0,1,.1.06s0,0-.07-.06.11.1.17,0l0,0s0,0,.06-.05l0,0s0,0,.05,0h0s0,0,0,0,0,0,0,0,.1-.08,0-.06.1,0,.09-.1l.15,0c0-.05,0,0,0,0l0,0s0,0,0,0c.14-.08.17-.12.09-.14s0,0,0,0,.4-.06.3,0,0,0,0,0,0,0,0,0,0,0,0,0,0,0,.06,0,0,0,0,0,.08,0,.15,0,0,0,0,0l0,0c0,.14.29-.2.25,0a.36.36,0,0,1,.17,0c.16,0,.21,0,.16.06s0,0,0,0,0,0,0,0,.08,0,.05,0l0,0c0,.06,0,.06.05,0s0,0,0,0,0,0,0,0,0,0,0,0,0-.08.07,0,0,0,0,0,.1,0,.14,0,0,0,0,0c-.21.21.52-.16.32-.09.21,0,.28,0,.21.1a.07.07,0,0,0,.13,0h0c.12,0,.14,0,.1,0,.15-.15.21-.18.15-.08a.43.43,0,0,0,.1-.06s0,0,0,0l0,0c-.09,0,.1.16.11.14h0s0,0,0,0,0,0,0,0,.06,0,.07,0,0,0,0,0c.1.36.4-.24.32-.07,0,0,0,0,.06,0s0,0,0,0,0,0,0,0,0,0,0,0,0,0,.05,0,0,0,0,0,0,0,.08,0l0,0c.09-.12.13.23.23.18s0,0,0,0,0,0,.1,0,0,0,0,0,.29-.08.18,0c.14,0,.18,0,.11,0,.32-.12.44-.11.38,0a.38.38,0,0,0,.42,0s0,0,0,0c.23,0,.3,0,.22-.06.09,0,.11,0,.08,0s0,0,.08,0,0,0,0,0,0,0,.05,0,0,0,0,0,.16,0,.09,0c.13.06.17.08.12,0,.12,0,.18,0,.17,0s.18-.08.11-.08c.1-.07.14-.08.09,0s0,0,.07,0l0,0s.25.07.16.1c.17-.06.23-.06.18,0,.14-.08.19-.08.14,0s0,0,.07,0,0,0,0,0v0s0,0,.06,0,0,0,0,0c.15,0,.2,0,.12,0,.27.1.35.13.24.07s.19-.09.15,0c0,0,0,0,.07,0l0,0c.06,0,0,0,.08,0s0,.08,0,.06,0,0,0,0,.09-.11.14,0v0c.14,0,.18,0,.1,0s.05,0,.08,0,0,0,0,0,0,0,0-.06h.07s0,0,0,0,0,0,.05-.06,0,0,0,0,.18-.08.1-.06c.26-.29,0,0,.15,0s0,0,0,0,0,0,.07,0,0,0,0,0,0,0,0,0,0,0,.05-.06,0,0,0,0c.33-.15.44-.19.3-.12s0,0,0-.07.08,0,.06,0,0,0,0,0S243.28,6.67,243.31,6.64ZM234,22a.33.33,0,0,0-.07.07Zm.87-14.51-.09-.09A.45.45,0,0,0,234.89,7.52Zm4.37,3.67s-.15,0-.09,0,0,0-.05,0,0,0,0,0a.12.12,0,0,0-.12-.1s0,0,0,0-.1-.09-.1-.06l0,0c-.07,0-.07,0,0-.06-.11-.06-.08,0-.13.08s0,0,0,0,0,0,0,0-.06-.1,0-.08,0,0-.07,0,0,0,0,0l-.1.08s0,0,0,0c-.15.11,0,.16,0,.14-.15.2.14,0,0,0,0-.44-1.6,0-1.18.1-1.06.59.64,2.66.51,2.82s0,0,0,0,.11-.14.11-.08c.11-.23,1.19-.27,1.44-.19a14.13,14.13,0,0,1,1.44-.58s.07,0,.1-.08,0,0,0,0,2.2-1,1.34-1.21a2.13,2.13,0,0,0-2.08-1.15l0,0s0,0,0,0m.12,6.15h0c-.17,0-.27.4-.42.28v0l0,0s0,0,0,0c-.16,0-.2,0-.13,0s-.07,0-.12,0,0,0,0,0,0,0,0,0-.18.12-.1,0l0,0s-.06,0-.06-.06-.07.11,0,.1-.07.07,0,.08l-.05,0s0,0,0,0v0s0,0,0,0l0,0s0,0,0,0l0,0v0c-.11,0-.15,0-.1-.09-.7-.1-2.58.46-1.68,1.65.05,0,0,.06,0,.08l0,0s0,0,0,0,0,0,0,0-.06.11,0,.06,0,0,0,0-.05,0,0,0l0,0s0,0,0,.07,0,0,0,0,0,0,0,.05l0,0s0,0,0,.06,0,0,0,0a0,0,0,0,0,0,0h0a.09.09,0,0,1,0,.1s0,0,0,0a.83.83,0,0,1,0,.23s0,0,0,0,0,.05,0,.07,0,0,0,0-.07.08,0,.12.12,0,0,.06,0,0,0,0,0,.09,0,.05c.12.56.1.74-.07.52.09.06,0,.08.09.13l0,0s0,0,0,0,.09,0,.11,0,0,0,0,0,0,0,0,0,0,0,0,0c0,.15,0,.19,0,.12.14.1.18.13.09.09s0,.1,0,.11,0,0,0,0c.21.1.27.14.18.1h.05c.05,0,0,0,.09,0s.1.19.09.18,0,.06,0,.09l0,0,0,0c.07,0,.09,0,0,0,.12.09.15.12.08.1.13.14.16.18.08.11s.07.1.12.08l0,0s0,0,0,0h0s0,0,0,0,0,0,0,0,.15.13.15.06,0,0,.06,0a0,0,0,0,0,0,0c.11,0,.15,0,.12.07s0,0,.06,0l0,0s0,0,0,0,0,0,0,0,0,0,0,0,0,0,.06,0,0,0,0,0c.24-.11.32-.13.22-.09.09,0,.16,0,.14.09s.09,0,0,0,0,0,.06,0,0,0,0,0,0,0,0,0,0,0,0,0,0,0,.07,0v0c.14,0,.17,0,.09-.07.18-.2,0,.14.16,0,0,0,0,0,0,0s0,0,.06,0,0,0,0,0,0,0,0,0c0,.17,0,.07.15,0s0,0,0,0,0,0,0,0c.17-.06.22-.12.15-.18h0s0,0,0,0,0,0,0,0l0,0c.09,0,0-.3,0-.22s-.09,0-.05,0l0,0s0-.07,0-.1h.09l0,0s0,0,0,0,.16-.06.11,0,0,0,0,0,0,0,0,0,0,0,.07.05h0s0,0,0,0,.1.06.07.1h.15s.05-.05.09-.07-.07.06-.06.08.14-.14.1-.06c0-.14.16-.12.15-.08s.07,0,.08,0,0,0,0,0l.07,0c.09,0,.13,0,.08,0s.17,0,.12.07l.21-.2c.08-.08.1-.09.06,0,.14-.11.18-.13.13-.06s.07,0,.07-.07,0,0,0,0c.09-.21.13-.27.13-.18s0,0,0,0,0,0,0,0,0,0,0,0h0a.06.06,0,0,1,0,0s0,0,0,0l0,0s.06,0,0,0,0,0,0,0,0,0,0,0,.05,0,0-.06,0,0,0,0,0,0,0,0,.11-.1.13,0,0,0,0,0h.09s.23-.13,0-.06c0,0,.24-.3.19-.16s.06,0,.09.05-.06,0-.1.05,0,0,0,0,0,0,0,0,0,0,0,0,0,.18,0,.15c.17,0,.22,0,.15,0s.3-.14.34-.18,0,0,0,0a.5.5,0,0,1,.17-.06s0,0,0,0c.19,0,.24,0,.16-.07.21.1.17.05.21.24,0,0,0,0,0,.06s0,0,0,0-.07.12,0,.09,0,0,0,0c.19-.12.26-.14.21-.06.16,0,0-.05.11-.08s0,0,0,0,0,0,0,0c.24-.07.33-.05.26,0s0,0,0,0,0,0,0,0,.07-.06,0,0l.06-.07s0,0,.08-.05,0,0,0,0c.21-.14.25-.06.26-.17s.09-.23,0-.17,0,0,0,0,0,0,0,0v0c.07,0,.09-.05.06,0s0,0,0-.05,0,0,0,0,.07-.07,0-.06,0,0,0,0,0-.06,0-.08,0,0-.06,0,.08-.08.07-.08,0,0,0,0l0,0s0,0,0,0c.21-.21.05-.27,0-.29s.11-.07.06-.11h0s0,0,0,0h0c0-.09,0-.12,0-.1s0,0,0,0l0,0s0,0,0-.05,0,0,0,0,0-.05,0,0,0,0,0,0,0,0,0-.09,0,0,0,0,0,0,0,0,0-.08,0-.08c.11-.43.1-.58,0-.46a.13.13,0,0,0-.08-.17c-.09-.05-.11-.07-.05-.07l0,0h0s0,0,0,0-.28-.1-.24-.14,0,0,0,0,0,0,0,0-.12-.15-.1-.17c-.21-.05-.28-.05-.2,0-.11-.11-.15-.14-.12-.07-.13-.08-.16-.1-.1-.07s0,0,0-.06h0s0,0,0-.06,0,0,0,0c-.23-.09-.31-.08-.25,0s0,0-.07,0,0,0,0,0l-.09,0a.46.46,0,0,1-.12-.16c-.06,0-.08,0,0,0s-.19.1-.16.09,0,0-.1,0h0s0,0,0,0,0,0,0,0,0,0-.06,0,0,0,0,0,0,0,0,0,0,0,0,0,0,0,0,0l-.07,0c0-.05,0,0-.05,0s0,0,0,0,0,0-.06,0,0-.13,0-.12-.18,0-.11,0,0,0-.09,0l0,0a.55.55,0,0,1-.15,0h0v-.06c-.09.09-.13.09-.13,0s0,0,0,0c-.15,0-.2,0-.12,0s0,0-.06,0,0,0,0,0-.07,0-.11-.06.06.07.09.07-.16-.37-.17-.27-.06,0-.07,0,0,0,0,0,0,0-.06,0h0c0-.05-.05,0-.09,0s0,0,0,0-.13-.06-.12,0-.13-.07-.07,0a1.8,1.8,0,0,0-.16-.19s0,0,0,0-.35.41-.28.17a.4.4,0,0,1-.15-.11c-.05-.06-.08-.07-.05,0s0-.07-.05,0,0,0,0,0S240.43,17,240.43,17.06Z"/><path class="cls-2" d="M214.63,6.82s0,0,0,0,0,0,.05,0,0,0,0,0,0,0,0,0,0,0,0,0,0,0,0,0,0,.08,0,.06,0,0,0,0,.12-.06.09,0L215,7c.1,0,.14,0,.1.1s.14.07.07.05c.09,0,.11,0,.07,0h.06c.06,0,0,.07.09.07s0,0,0,0c.09.18.23-.1.17-.08.17,0,.23,0,.16,0s.26,0,.21,0,0,0,.07,0,0,0,0,0,0,0,.09,0,0,0,0,0,0,0,.06,0c0-.21,0-.17,0,0,0,0,0,0,0,0s0,0,0,0,0,0,.05,0,0,0,0,0,0,0,0,0,0,0,0,0,.11-.11,0-.09,0-.06.05,0,0,0,0,0,0,0,.08,0,0,0,0,0,0,0,.06,0,0,0,0,0,0,0,.09,0v0c.09,0,.09,0,.18,0s0,0,0,0,0,0,0,0,0,0,0,0,0,0,.05,0h0c.12,0,.16,0,.13,0,.25,0,.32.07.23.16s0,0,0,0,0,0-.05,0l.07.06s0,0-.06-.06l.07.05,0,0c.22-.1.29-.11.22,0,.08-.06.06,0,.13,0s0,0,0,0,0-.09,0-.06,0,0,0,0l0,0c.13-.16.06.16.13.06s0,0,0,0,.09,0,.05,0c.05.23.14-.11.17,0s.34.08.41.1,0,0,0,0,.11.09,0,.07,0,0,0,0,0,0,0,0,.07.06.11,0l0,0c.09-.14.09.21.17.14s0,0,0,0c.34-.26,0,.31.29,0,0,0,0,0,0,0s0,0,.11,0l0,0c.14-.07.16,0,.13-.12s.06,0,0,0c.29-.27,0,.37.27.09,0,0,0,0,0,.06s.06,0,.11,0,0,0,0,0,.13,0,.08,0,0,0,.06,0,0,0,0,0c.15,0,.2,0,.12-.06.12.15,0,0,.16,0s0,0,0,0,.05,0,.12,0,0,0,0,0,.06,0,0,0,0,0,.06,0,0,0,0,0,.12.05.11,0,0,0-.07,0c.15-.15.18-.08.22-.07a.16.16,0,0,1,.1-.16s0,0,0,0,.19,0,.14,0,0,0,0,0-.09.15,0,.12c-.23.21.08,0,0,.11s0,0,0,0,0,0,0,0v0s0,0,0,0,0,0,0,0,0,0,.07,0,0,0,0,0,0,0,0,0,0,0,0,0,0,.07.07,0,0,0,0,0,.14-.11.11-.05c.25-.14.34-.16.25-.05s.28-.08.26,0,.06,0,.15,0,0,0,0,0,.34.09.16.16c0,0,0,0,0,0s0,0,0,0a.55.55,0,0,0,.21,0s0,0,0,0,0,0,0,0,0,0,0,0,0-.12.1-.09h0s.31,0,.26.12c0,0,0,0,.05,0s0,0,0,0,0,0,.1,0,0,0,0,0,.1,0,.06,0,.13,0,.1-.05a.09.09,0,0,0,.08-.06c0,.05,0,.07,0,0s0,0,0,0,0,0,0-.08,0,0,0,0,0-.06,0-.06,0,0,0,0,0,0,0,0l0,0s0,0,.05,0,0,0,0,0,0,0,0,0,.06.1,0,.06,0,.08,0,0,.3.36.46.35c.22.19.28.26.17.21s.19.34.21.3.06,0,.1,0-.05,0-.07-.06c.15.09.19.1.16,0s0,0,.05,0,0,0,0,0,0,0,0,0,0,0,0,0l0,0c0,.06.1,0,0,0s0,0,0,.06h0c0,.09,0,.12-.08.09s0,0,0,.07h0c.08.07.08.09,0,.07s.1,0,0,0,0,0,0,0,0,0,0,0,0,0,0,0-.12.12-.07.22,0,0,0,0,.16.17.18.15,0,.12,0,.07,0,0,0,0l0,0c-.07,0,0,.07-.06.11s0,0,0,0,0,0,0,.06,0,0,0,0-.06.13-.06.08,0,.12-.09.08a.05.05,0,0,1,0,0s0,0,0,0c0,.13-.11.09-.09.1s0,0,0,0,0,0,0,0,0,.18,0,.15-.29.23-.31.29a0,0,0,0,1,0,0s0,0-.05,0l0,0c-.08,0-.1.06-.1.11a.14.14,0,0,0-.07.07c0-.08,0-.1-.06-.07s-.13.09-.08.07c-.12,0-.15-.05-.1,0-.13,0-.44.25-.42.37s-.05.08-.11.1l0,0c-.08,0-.07,0-.15,0s0,0,0,0,0,0,0,0,0,0,0,0,0,0,0,0l0,0s0,0,0,0c-.22-.09-.32-.08-.27,0-.15.07-.22.07-.18,0s0,0,0,0,0,0,0,0,0,.09,0,.07,0,0,0,.05,0,0,0,0,0,.13,0,.08-.09.29-.17.16-.06,0,0,.05,0,0,0,0-.13,0-.09,0,0,0,0,0,.05,0,0-.07,0,0,0,0,0,0,0,0c.12-.24-.12,0-.13,0h0s0,0-.07,0,.07.16,0,0l0,0s0,0,0,0,0-.05-.05,0-.21.18-.16.05,0,0,0,0,0,0,0,0c-.15,0-.2,0-.15-.05-.13,0-.16,0-.09,0s0,0-.09,0-.16,0-.11,0,0,0,0,0c-.14.23-.2.29-.14.2s-.23.06-.24,0,0,0,0,0l0,0s-.13.11-.14,0c0,.12-.07.16-.07.1s0,.13-.06.19,0,0,0,0,0,0,0,.09,0,0,0,0,.07.09,0,.08,0,0,0,0-.07.1,0,.06,0,0,0,0,0,0,0,0,.13.08.05.13,0,0,0,0h0s.06,0,0,.07-.09.13,0,.12,0,0,0,0l0,0s0,0,0,.05,0,0,0,0-.05,0,0,0,0,0,0,0-.1.2,0,.16l0,0s0,0,0,0,0,0,0,0,0,0,0,0,0,0,0,0-.09.12,0,.09,0,.12,0,.08,0,0,0,0v0a.59.59,0,0,1-.06.31s0,0,0,0,0,0,0,0l0,0a.05.05,0,0,0,0,0s0,0,0,0,0,0,0,0,0,0,0,0,0,0,0,.07,0,0,0,0-.09.11-.09.06,0,0,0,0l0,0a.08.08,0,0,0-.09.05c.15-.15.18.11.09.09s0,0,0,0,0,.05,0,.05a.2.2,0,0,0,0,.13s0,0,0,0,0,0,0,.05,0,0,0,0c0,.14,0,.18,0,.13s0,0,0,0,0,0,0,0,0,0,0,0,0,0,0,0-.08.26-.08.25,0,0,0,0c0,.16,0,.22.08.18s-.05,0,0,0,0,0,0,0,0,0,0,0,0,0,0,0c0,.24,0,.32,0,.22s.11.06.07.16h0s0,.05,0,.05h0c.08.14.12.17.12.1s.32.21.2.25c.11,0,.14,0,.1,0a.13.13,0,0,0,.11,0c-.08,0-.1,0-.07,0s0,0-.05,0,0,0,0,0,0,0,0,0,.11,0,.06,0,0,0,.05,0l0,0c.07,0,.44-.07.37,0,.09,0,.12,0,.07,0s0,0,.05-.06,0,0,0,.06.21.17.24.2,0,0,0,0c.22,0,.29.1.19.17s0,0,0,0,0,0,0,0,.15-.07.09-.1,0,0,.06,0,0,0,0,0,.15-.12.13-.05c.13.06.16.08.09.05s.22,0,.13.08c.16,0,.21,0,.16.06.2,0,.25,0,.16,0,0,.16.49-.32.47-.25s0,0,.05,0,0,0,0,0v0l0,0,0,0a1,1,0,0,0,.1-.11s-.06.07-.09.1.09-.14.14-.08,0,0,0,0,.16-.08.12,0c.19,0,.25,0,.16,0,.18,0,.24,0,.18.07s.05,0,.12,0,0,0,0,0c.35,0,.46,0,.32,0,.06.06.09.06.06,0s.07-.08.05,0,0-.16,0-.11,0,0,.08,0,0,.08,0,.06,0,0,0,0,0-.07,0,0,0,0,0,0,.05,0,.08,0,0,0,0,0,.22.13.14.15,0,0,.05,0l0,0s0,0,.05,0,0,0,0,0,0,0,.05,0l0,0a.14.14,0,0,0,.1,0l0,0s0,0,.06,0,0,0,0,0c.15,0,.19-.06.11-.08s0,0,.05,0,0,0,0,0,0,0,.06,0,0,0,0,0,.35,0,.19.07c.15,0,.21,0,.15,0s.05,0,.08,0h0l.07,0v0l0,0c0,.07.17-.05.09,0s.4.45.29.47l0,0,0,0c.37.26.12.36.16.59,0,0,0,0,0,0s0,0,0,.07,0,0,0,0c0,.22,0,.29,0,.2,0,.2-.05.26-.05.17s-.05,0,0,.06,0,0,0,0,0,0,.06.13l0,0c.22.06-.2.41,0,.46-.06.17,0,.24,0,.21s0,0,0,0,0,0,0,0,0,.12,0,.08-.18.29-.12.19c0,.14.05.19,0,.13s0,.17,0,.11c-.08.14-.08.18,0,.14s0,.09,0,0-.2.11-.17,0,0,0,0,0l0,0s0,0,0,0,0,0,0,0a.08.08,0,0,0-.13,0s0,0,0,0,0,0,0,0,0,0,0,0a.19.19,0,0,1-.1.09l0,0c-.14.16-.16.22-.09.17-.16,0-.21,0-.13,0s0-.05-.06,0,0,.05-.05,0,0-.15,0-.08l0,0s0,0-.1.08,0,0,0-.06-.11.13-.15.06h0s0,0,0,0,0,0,0,0,0,0,0,0,0,0,0,0,0,0-.06,0,0,0,0,0,0,0-.07,0l0,0s0,0-.06,0,0,0,0,0-.09.08-.08,0,0,0-.05,0,0,0,0,0,0,0-.07,0,0,0,0,0-.14-.08-.08-.1,0,0,0,0l0,0c-.05,0,0,0-.07,0s0,0,0,0,0,0-.1,0,0,0,0,0,0,0-.06-.05,0,0,0,0-.07,0-.1,0,0,0,0,0c-.25,0-.33,0-.22,0-.07,0-.1,0-.09,0s0,0,0,0,0,0,0,0h0c0-.05,0-.09,0-.14s-.14,0-.08-.06A.1.1,0,0,1,223,18s0,0,0,0,0,0-.08,0,0,0,0,0-.16,0-.15,0-.14.1-.09,0,0,0,0,0,0,0,0,0l0,0,0,0c-.21.15-.12.06-.12.05s-.57-.77-.18-.46c0,0,0,0,0,0l-.06,0s0,0,0,0,0,0,0,0-.07.17-.07.13,0,0-.06,0,0,0,0,0,0,0,0,0-.09,0-.06,0,0,.09-.08,0,0,0,0,0,0,0,0,0,0,0-.05,0,0,0,0,0,0,0,0,0,0,0,0,0c-.27.14-.36.16-.27.08s0,0,0,0-.14,0-.09-.06,0,0-.06,0,0,0,0,0-.08-.14-.06-.08a.18.18,0,0,1-.14-.22s0,0,0,0,0,0,0,0l-.27-.08c0-.1-.25.14-.22.11l0,0c-.12.08-.17.08-.16,0s0,0,0,0,0,0,0,0a.14.14,0,0,0-.1,0v0c-.06,0,0,0-.08,0s0,0,0,0,0,0,0,0v0s0,0,0,0h0c0,.06-.25.11-.2.11v0s0,0,0,0,0,0,0,0,0,0,0,0,0,0,0,0-.21,0-.15,0,0,0-.07,0,.05.08,0,.12,0,0,0,0-.09,0-.06.07-.42,0-.34-.07c-.08,0-.09,0-.06,0a.11.11,0,0,0-.09,0s0,0,0,0l0,0s0,0,0,0,0,0,0,0,0,0,0,0,0,0-.06,0,0,0,0,0-.1,0-.06,0,0,0-.06.07,0,0,0,0a0,0,0,0,1-.07,0s0,0,0,0,.06,0,.06,0,.07,0,0,0,0,0,0,0c-.16.07-.21.08-.17,0s0,0,0,0,0,0,0,0c-.15.07-.22.06-.21,0-.08.09-.21.05-.18,0s-.09,0-.08-.1,0,0-.06,0h-.07s0,0,0,0h-.14c.14,0-.21.37-.14.1,0,0,0-.05-.05,0l0,0c-.23,0-.31-.09-.22-.16s0,0-.07,0,0,0,0,0,0,0,0,0,0,0,0,0v0s-.05,0,0,0,0,0,0,0,0,0-.05,0,0,0,0,0-.2,0-.13,0,0,0-.08,0,0,0,0,0,0,0,0,0h0s0,0,0,0,0,0-.05,0,0,0,0,0-.17,0-.12,0a0,0,0,0,1,0,0h0s0,0,0,0,0,0,0,0-.1,0-.2,0,0,0,0,0-.18,0-.17,0-.06.07,0,0l0,0c.07,0,.08,0,0,0s.11,0,.06,0c.13.09-.09.11-.09.11s-.07.06,0,0c-.14,0-.18.05-.11.07v0l0,0,0,0c-.23,0,0,0,0,0s.09,0,0,0,0,0,0,0,0,.06,0,0-.08.07-.08,0c0,.09-.05.11,0,0s0,0,0,0,0,0,0,0c0-.18-.31.09-.29,0s0,0,0,0,0,0,0,0,0,0,0,0,0,0,0,0,0,0,0,0-.27,0-.1.19c0,.06-.06,0,0,.07s0,0,0,0a.08.08,0,0,1,0,0c-.12,0-.15,0-.12,0s-.11,0-.06,0-.14.18-.12.12c0,.1,0,.13,0,.09s0,0,0,0,0,0,0,0c-.19.09,0,.1-.09,0s0,0,0,0-.08.17-.1,0c0,.08-.05.12-.12.11l-.24.09c-.12-.07-.15-.08-.13,0s-.05,0,0,0a.48.48,0,0,0-.14,0c0-.11,0-.13-.1-.08,0,0,0-.05-.05,0,.08,0-.17,0-.06,0s0,0-.06,0,0,.11-.09.14,0,0,0-.05a.6.6,0,0,0-.39.45c-.08.09-.12.1-.11,0s-.12,0-.08.08-.18,0-.21,0-.16-.07-.1-.09-.2-.09-.13,0,0,0-.07,0l0,0c-.1,0-.14,0-.11.06s0,0,0,0,0,0,0,0,0,0,0,0,0,0,0,0,0,.11-.13.14,0,.05-.06,0,0,0,0,0-.2.18-.16.07,0,0-.06,0,0,0,0,0-.08,0,0,0-.1,0-.05,0c-.24.06-.3.1-.2.13l0,0s0,0,0,0v0c-.07.07-.42.09-.3,0,0,0,0,0-.06,0h0s0,0-.05,0,0,0,0,0,0,0-.05,0l0,0a.53.53,0,0,1-.3,0c.26-.21-.29.24-.21.08,0,0,0,0,0,.07a0,0,0,0,0,0,0c.11.17-.29.18-.25.22s0,0,0,0-.18.08-.14,0-.11.05-.06.07-.1,0-.06,0c.06.14-.65.23-.57.37-.09,0-.23.16-.37.17l0,0c-.12,0-.18,0-.15.1s0,0,0,0,0,0,0,0,0,0,0,0l0,0s0,0-.05,0,0,0,0,0,0,0,0,0a.16.16,0,0,0-.08.07s0,0,0,0-.24.08-.26.13c-.18.12-.18.1-.18.07s-.11.06-.08,0-.1,0-.14,0-.33.1-.27,0l0,0s0,0,0,0,0,0-.06,0,0,0,0,0,0,.09,0,.06-.1.06-.07,0c-.25.05-.34,0-.25,0s0,0-.05,0,0,0,0,0,0,.05-.05,0,0,0,0,0,0,0-.07,0,0,0,0,0a.57.57,0,0,1-.18-.06c-.13,0-.16.07-.09.09s0,0-.06,0,0,0,0,0,0,0-.09,0,0,0,0,0,0,0-.06,0,0,.15-.11.08h0s0,0,0,0-.16-.09-.08-.11,0,0-.06,0-.19.07-.12.06-.1,0-.1,0c-.41.13-.55.23-.38.31,0,0,0,0-.05,0s0,0,0,0,0,0-.08,0,0,0,0,0-.1-.07-.05-.05c-.22-.17-.25.1-.42.22,0,0,0,0,0,0s0,0,0,0,0,0,0,0h-.1v0s0,0,0,0,0,0,0,0,0,0,0,0,0,0,0,0v0s-.14.13-.11,0c-.17.06-.21,0-.16,0-.62-.07-.82-.06-.6,0-.1-.2-.14-.25-.1-.17-.1-.09-.13-.13-.07-.13-.08-.15-.21,0-.2-.06s0,0-.06,0,0,0,0,0-.18,0-.17,0-.2.12-.15.13-.06.07-.06,0-.05,0-.05.06l0,0c-.09.11-.39.36-.49.29s-.11,0-.08,0,.24,0,0,.18v0c-.08.14-.09.17-.08.09,0,.06,0,.08-.11,0l0,0s0,0,0,0-.07,0-.1,0l0,0s0,0-.07,0,0,0,0,0-.25,0-.14-.09h-.13v0s0,.06-.07,0,0,0,0,0,0,0,0,0l0,0h0c-.1.09-.13.1-.08,0s0,0-.06,0,0,0,0,0-.52,0-.54,0,0,0,0,0-.1,0-.06,0c-.23.15-.33.16-.32,0-.13.06-.16.07-.11,0-.12,0-.14,0-.08,0s0,0-.08,0h0s0,0,0,0,0,0,0,0h0s0,0-.07,0h0c-.09.1-.1.13,0,.09-.21.18-.28.22-.22.12s0,0-.12,0,0,0,0,0,0,0,0,0-.1.16-.07.06,0,0-.08,0,0,0,0,0,0,0,0,0-.31.1-.16.2c0,0,0-.05,0,0-.22.29-.25.35-.08.2s-.08.29-.11.23-.08,0-.16,0,0,0,0,0,0,0,0,0v0s0,0,0,0-.17.16-.1.15-.41,0-.36,0,0,0,0-.06,0,0,0,0,.1-.06.06-.08,0-.06,0,0,0,0,0,0-.15.18-.11.08,0,0-.06,0,0,0,0,0h0s0,0,0,0,0,0,0,0,0,0,0,0,0,0-.07,0l0,0c-.06,0,0,0-.09,0s0,0,0,0,0,0,0,0-.11.06-.07.07,0,0,0,0,0,.08-.08,0-.37,0-.32-.17c0,0,0,0-.06,0l0,0s0,0-.05,0,0,0,0,0v0c-.07.07-.1.08-.1,0s0,0,0,0,0,0,0,0l-.08.08s.05-.05.06-.08-.06.1-.1.06,0,0,0,0c0-.16-.09,0-.06,0s-.05,0-.07.07,0-.05.05,0c-.15.13-.2.15-.14.08s0,0-.06,0,0,0,0,0,0,0-.05,0,0,0,0,0,0,0,0,0-.18.4-.24.21c0,0,0,0,0,0h0l-.06,0s0,0,0,0,0,0,0,0,0,0,0,0-.14,0-.11,0,0,0-.08,0,0,0,0,0-.08,0,0,0,0,0,0,0,0,0,0,0,0,0,0,0-.16.13-.08.09c-.15.15.12.24,0,.29s0,0,0,0,0,0,0,0,0,.08-.07,0h0s-.27.15-.29.16,0,0,0,0-.12.08-.08,0,0,0,0,0,0,0,0,0,0,0-.07,0-.16.05-.06,0-.12,0-.08,0a0,0,0,0,1,0,0h0c-.24,0-.31-.05-.21,0s0,0,0,0l0,0c.06,0-.51,0-.3-.15-.17,0-.22-.07-.14-.06s0,0,0,0-.19.1-.14,0c-.25,0,0-.07-.12-.14s0,0,0,0a.1.1,0,0,1,0,.06,0,0,0,0,1,0,0s0,0,0,0-.12,0-.11,0-.09,0-.07,0-.09-.08,0-.07,0,0,0,0a0,0,0,0,1,0,0s0,0,0,0,0,0,0,0-.12-.12,0,0,0-.12-.09-.08,0,0,0,0,0,0-.06,0,0,0,0,0,0,0-.05,0h0s-.05,0,0,0-.09.11-.07.05,0,0,0,0,0,0,0,0-.1.07-.15.06,0,0,0,0-.08.11-.11.08,0,0,0,0,0,0,0,0l0,0c-.08.07-.26,0-.17-.09a.94.94,0,0,0,0-.18c-.05.06-.34,0-.23,0l-.31-.33v0s0-.13,0-.09-.16-.49-.25-.45-.11,0-.06,0,0,0,0-.07h0l0,0c0-.09-.08-.12-.11-.07s0,0,0-.06,0,0,0,0,0-.27,0-.24,0,0,0,0h0c0-.11,0-.14-.06-.1s0-.09,0-.1h-.07c0-.07-.14,0-.08,0s0-.1-.06-.06c0-.18,0-.24,0-.18s0,0,0-.08-.09-.2-.11-.22v0s0,0,0-.07l0,0c0-.3-.06-.4-.11-.29a.15.15,0,0,1,0-.1s0,0,0,0-.07-.43,0-.28c0,0,.12,0,0-.08s0,0,0,0-.06,0,0,0,0,0,0,0,0-.08.06,0c.12-.22.14-.29.08-.22s0,0,0-.05,0,0,0,0,.07-.21.05-.23.14-.18.11-.12,0,0,0,0,0,0,0,0a0,0,0,0,1,0,0s0,0,0,0,0,0,0,0l.24-.12s0,0,0,0,.18-.1.15,0,0,0,0,0,0,0,0,0l.1-.13s0,0,.06,0l0,0c.16-.14.1.49.27,0,.24-.06.31-.1.21-.13s0,0,0,0q.17-.21.07-.15c0-.05,0,0,.05,0s0,0,0,.06.08,0,0,0,.07-.13,0-.07,0,0,.05,0,0,0,0,0,.11,0,.08,0,.14,0,.09,0c.12,0,.14,0,.08,0s.17-.11.17-.06,0,0,.06,0v0s0,0,.07,0,0,0,0-.08,0,0,.06,0,0,0,0,0,0,0,0,0a.28.28,0,0,1,.09-.06l0,0s0,0,.06,0h0s0,0,0,0h0c0,.07.14,0,.17,0s-.05,0-.06.08.29,0,.19,0,0,0,0,0,0,0,0,0,.06,0,.08,0,0,0,0,0,.34.08.27,0,0,0,0,0,0,0,0,0,0,0,0,0l0,0c.11-.06.14-.08.08-.06-.1-.29.39-.09.3-.06l0,0,0,0s0,0,0,0l0,0,.07-.07s0,0,0,0,0-.17.06-.13,0,0,0,0c.22.14.43-.23.43-.25s.05,0,0,0,.07-.09.07,0,.23-.14.17-.16,0,0,0,0,0,0,0,0,0-.07,0,0,0-.19.15-.22,0,0,0,0,0,0,.07,0l0,0c.05,0,0,0,.09,0s0,0,0,0q.37,0,.18,0v0s0,0-.06,0,0,0,.06,0,0,0,0,0a.37.37,0,0,0,.1-.1s0,0,0,0,.12,0,.07,0c.14,0,.18,0,.11,0s.17,0,.11.2c0,0,.17-.09.13,0,.56-.28-.13,0,.29-.07,0,0,0,0,0,0s0,0,0,0a.14.14,0,0,0,.13,0v0s0,0,.06,0,0,.08.06,0,0,0,0,0,0,0,.09,0,0,0,0,0a0,0,0,0,0,0,0s0,0,0,0,0,0,.05,0,0,0,0,0,0,0,0,0,0,0,0,0l0,0a0,0,0,0,0,0,0c0,.07.37-.09.4-.09l0,0s0,0,.05,0,0,0,0,0,.12,0,.13-.07,0,0,0,0,.14-.14.07-.13c0,.18.14-.11.22-.06s0,0,0,0,.2,0,.13,0,0,0,0,0h0s0,0,0,0,0-.35,0-.32L201,17s0,0,0,.06a.17.17,0,0,0,.22,0c0-.08,0-.3.08-.2s0-.07,0-.11,0,0,0,0,.22-.23.19-.16,0,0,.06,0,0,0,0,0,0,0,0,0,0,0,0,0,0-.12,0-.07,0,0,0,0c.26-.37.37.33.29.17.09.06.38.2.32.31s0,.1.06.06.11.09.09.12.2.1.11.13,0,0,0,0,0,0,0,0l.13-.1h0c0-.1,0-.13,0-.09-.07-.15.2-.09.16-.08s.07-.08.1,0,0,0,0,0a3.76,3.76,0,0,0,.48.12s0,0,0,0,.19-.25.14-.11c.12,0,.24-.33.18-.37l0,0s0,0,0,0,0-.14,0-.07.14,0,.11,0,0,0,0,0l.17-.06s0,0,0,0,0,0,0,0,.07.12.1,0h0s0,0,0,0h0c0-.12,0-.15,0-.09s.07,0,0,0c.15,0,.19-.06.12-.08s.08,0,.06,0,.14,0,.08,0a.12.12,0,0,0,.16,0s0,0,0,0,.13,0,.08-.06c.15,0,.2,0,.13-.05.09-.06.15-.05.17,0h0s.08.1.14.05,0,0,0,0,.14-.14.09-.14,0,0,0,0,0,0,0,0,0,0,0,0,0,0,0,0c-.28,0,.27-.19.07,0,0,0,0,0,0,0s0,0,0,0,0,0,.11,0,0,0,0,0,.15,0,.1-.08.09,0,0,0,0-.06.07,0,0,0,0,0,.07,0,0-.06,0,0,0,0c0,.14.21-.25.15-.1,0,0,0,0,.05,0s0,0,0,0,.09,0,.06,0c.11-.13,0-.07.06-.08s.06-.33,0-.2c.06,0,0,0,.09,0s0,0,0,0c.14.06.16,0,.06-.1l0,0c0-.08.05,0,.05-.08h0c0-.06.07-.06,0-.11h0s0-.06,0-.09,0,0,0,0,0,0,0,0,0,0,0,0c.16-.09.22-.1.17,0s0,0,.07,0,0,0,0,0,.11-.11.1,0,.06-.06.08,0,0,0,0-.06,0,0,0,0l0,0s0,.08,0,0c.12-.17.14-.23.05-.17a.06.06,0,0,0,0-.06s-.11-.05-.07,0-.13-.21-.15-.12.22-.37.17-.23c.14-.11,0,0,0-.09s0,0,0,0,0-.06,0-.06,0-.09,0-.1,0,0,0,0,0,0,0,0v0s0,0,0,0,0,0,0,0,0,0,0,0,0,0,0,0,0,0,0,0,0-.11,0-.18l0,0a.17.17,0,0,1,0-.12l0,0s-.11-.23-.12-.21c0-.14-.11,0-.08-.08l0,0a.35.35,0,0,0-.18-.2s-.32-.06-.19-.08c0-.09-.07.07-.11,0s0,0,0,0-.1,0-.05,0,0,0-.08,0a0,0,0,0,1,0,0s0,0-.07,0,0,0,0,0,0,0-.07,0,0,0,0,0,0,0-.08,0l0,0s0,0,0,0,0,0,0,0,0,0,0,0-.07.15,0,.17c-.2.06-.26.06-.19,0-.13-.08-.15-.12-.08-.15s-.07.1-.08,0,0,0,0,0-.3,0-.36,0c.06.22-.14,0-.3.06-1,0,0,0-.34-.09-.07-.1-.09-.12-.07-.06s-.28-.19-.26-.22-.09,0,0,0c-.18-.17-.24-.24-.14-.19-.09-.08-.11-.1-.09-.06s-.24,0-.1-.06c-.11,0-.14,0-.1,0s0,0,0,0,0,0,0,0,0,0-.07,0-.06-.13,0-.14,0-.23-.07-.22,0-.09,0,0,0,0,0-.06,0-.11,0-.1,0-.07,0,0c.19-.06,0-.06.13-.07s0,0,0,0,0-.05,0-.07a.2.2,0,0,1-.09-.06s0-.06,0-.06,0,0,0,0,0,0,0,0,0,0,0,0,0,0,0,0,.08,0,0-.1,0,0,0,0,0-.06,0-.06.1-.07.1,0c0-.13,0-.17,0-.11.06-.26.05-.35,0-.26s0-.07,0,0a1.24,1.24,0,0,1,0-.17c.09,0,0-.1.08-.12s0,0,0,0,0-.06,0-.08l0,0s0,0,0,0,0,0,0,0,0,0,0,0,0,0,0,0a.06.06,0,0,1,.06,0v0s0,0,0,0,0,0,0,0,0-.08.06-.06,0,0,0,0,.06-.27.16-.27.13-.11.1-.06.21-.06.16-.15c.14-.09.16-.14.1-.13.2-.06.38.2.45,0s.11-.15.11-.14,0,0,0,0,0,0,0,0,0-.16,0-.09l.07,0,0,0s.09,0,.12,0h0s.21,0,.22,0,0,0,0,0,0,0,0,0,0,0,0,0c.33-.06.42-.11.29-.15l.06,0c.09,0,.11,0,.07,0a.38.38,0,0,0,.08-.08c0,.14.18-.09.13,0s0,0,0,0a0,0,0,0,0,0,0c.3-.06.39-.11.27-.15s0,0,0,0l0,0c0-.06.06,0,.11,0s-.05,0-.07-.05a.12.12,0,0,0,.11.07s0,0,0,0,0,0,.1.05h0s0,0,.05,0,0,0,0,0,0,0,0,0l0,0c.07,0,0,0,.12,0s0,0,0,0c.25,0,.33,0,.23,0,.13-.09.18-.1.13,0,.12-.15.19-.18.17-.08s0,0,0,0,0,0,0,0c.2.07.28.06.24,0s.09,0,.07,0l0,0s0,0,0,0,.16-.23.09-.25.09-.1.07-.06.1-.08.06,0c.27-.08.34-.08.21,0a.19.19,0,0,1,.13-.16.13.13,0,0,1,0,0l.07,0s0,0,0,0,.08,0,0-.07,0,0,0,0c.16-.12.23-.14.16-.06.18,0,.23-.08.15-.1.16,0,.2,0,.13,0s.17-.14.13,0a.14.14,0,0,0,.13,0l0,0c.05-.08.05-.1,0-.08s.06-.07.05,0,.1-.08.06,0,0,0,.09,0,0,0,0,0,.09.05.11,0,0,0,0,0,.05,0,.13,0c-.07.26.26-.09.23-.08s.08,0,0,0l0,0,0,0s0,0,0,0l0,0s0,0,.06,0,0,0,0,0c.19-.05.22,0,.11.07s.06-.08.09-.07,0,0,0,0,.16-.08.09,0c.17,0,.21-.05.13-.09l0,0s0,0,0,0,.08,0,0,0,0,0,0,0,0,0,.06,0l0,0s0-.07.06,0,0,0,0,0,0,0,0,0l.07-.07s0,0,0,0,0-.06.07,0,0,0,0,0,.36-.12.21-.21c0,0,0,0,0,0s.08-.06,0,0,0,0,.08,0,0,0,0,0,0,0,0,0,.13-.16.09-.1,0,0,.05,0v0c.07,0,.09,0,.05-.06s0,0,0,0,.13-.1.09,0,.12,0,.08-.07c.19,0,.24,0,.16,0,.13-.07.17-.07.13,0s.11,0,.18-.06,0,0,0,.06.16-.11.11,0a.24.24,0,0,0,.29,0s0,0,0,0c.15.08.19.09.15,0s0,0,0,0,0,0,0,0,0,0,.05,0,0,0,0,0c.24-.14.33-.16.28-.06.17,0,.21,0,.14,0s0,0,0,0,0,0,0,0,0,0,0,0c.33,0,.44,0,.3,0,.14,0,.18.06.13.12.11,0,.14,0,.08,0s0,0,0,0,0,0,0,0,0,0,.06,0l0,0s0,0,.06,0,0,0,0,0,0,0,.05,0,0,0,0,0v0l.07-.05s0,0,0,0,.23-.1.13-.12c.17-.1.22-.13.17-.07.22-.06.29-.14.23-.25a0,0,0,0,0,0,0s0,0,0,0,0,0,0,0c.19-.05.23-.09.15-.12s0,0,0,0,.1,0,.05-.06.09,0,.06,0c.19,0,.24,0,.16-.06l0,0s0,0,0,0,0,0,0,0,0,0,.06,0,0,0,0,0,.14,0,.08,0l0,0s0,0,0,0,0,.08,0,0,0,0,0,0,.14-.09.09,0,.12,0,.08,0,0,0,.05,0,0,0,0,0,0,0,.07,0,0,0,0,0,.1-.08.06,0l.07-.07c0,.05,0,.07.07,0s.43-.15.17-.25c0,0,0,0,0,0l0,0S214.63,6.81,214.63,6.82Zm3.78.76a.36.36,0,0,0-.09-.09ZM205.51,21.12s.05.05.06.07S205.53,21.15,205.51,21.12Zm8.33-9.55a.42.42,0,0,0-.31,0s0,0,0,0-.19.14-.12.1,0,.09-.07,0,0,0,0,0,0,0,0,0,0,0-.06,0,0,0,0,0-.1,0-.05,0-.11.14-.14.07,0,0,0,0-.07.05-.11.08,0,0,.06,0-.13,0-.07,0,0,0-.09,0,0,0,0,0,0,0,0,0a.05.05,0,0,0,0,0s0,0,0,0,0-.13,0-.1-.13,0-.14-.11-.06,0,0,0c-.12,0-.15,0-.09,0s0,0,0,0a0,0,0,0,0,0,0s0,0,0,0,0,.07-.08.07,0,0,0,0-.15.07-.11,0,0,0-.05,0,0,0,0,0c-.19,0-.24,0-.16,0s0,0,0,0a.06.06,0,0,0,0,0c-.06.07-.09.08-.08,0s-.05,0,0,0,0,0,0,.06,0,0,0,0-.25.29-.24.36,0,.06,0,.06,0,0,0,0-.57.4-.4.25c0,.18-.06.24-.11.17l0,0h0c-.06,0-.07.05,0,.07s0,0,0,0a1.34,1.34,0,0,1,0,.14s-.07,0-.08,0,0,0,0,0a.06.06,0,0,1,0,0s0,0,0,0,0,0-.05,0,0,0,0,0,.06,0,.08,0,0,.19,0,.2,0,0,0,0,0,0,0,0,0,0,0,0,0,0,0,0,0,0-.07.09,0-.05,0,0-.08.1-.12.13,0,0,0,0c0,.17-.06.23-.06.15s0,.05,0,.11l.08,0c0,.13,0,.16,0,.11s.09.15,0,.16,0,.09,0,.1,0,0,0,0,0,.06,0,.09l0-.05s0,.06.05.08.06,0,.07,0,.11,0,.06,0,.08,0,0,0,0,0,0,0c-.07.25-.06.3,0,.16l0,0c.05.09.07.11,0,.07h0c.08.05.11.05.1,0s.16,0,.15.06,0,0,.06,0l0,0c.14-.05.17-.05.11,0a3.38,3.38,0,0,1,.64,0,.44.44,0,0,1,.13-.11s0,0,0,0c.84-.58,1.27-.65,1.26-.21.09-.14,1.79-2,.73-1.54,0,0,0,0,0,0s.08,0,.07,0c.25.35,0-.32,0-.15.07,0,0-.12,0-.13s0,0,0,0,0-.19,0-.13c-.11.07-.28-1.94-.54-.7l-.21.13C213.71,11.55,213.92,11.5,213.84,11.57Zm-.85.26a.29.29,0,0,0,.07-.06S213,11.83,213,11.83Z"/><path class="cls-2" d="M219.27,19.85c.25,0,.33,0,.25.08.07.05.08.06,0,0,.27-.09.37-.07.29,0,.08,0,.07,0,.15,0s0,0,0,0,.3.16.25.18.45.39.36.43l.08,0a.18.18,0,0,0,.11.1c-.08,0,.35.13.2.16.11,0,.15,0,.1.06s0,0,0,0,0,0,0,0h0s0,0,0,0c.14.19.2.23.2.14s0,0,0,0,0,.13,0,.09,0,.06,0,0,.11.29.1.19c0,.2,0,.26-.08.18s0,.23,0,.23,0,.06,0,.09v0s0,0,0,.08l0,0s0,0,0,0l0,0c.07.07,0,.07,0,.12s-.09,0-.1,0,.13.16.18.09,0,.06,0,.14-.06,0,0,.06,0,0,0,0,0,.41,0,.48c-.16.11.07.14.07.16s0,0,0,0,0,0,0,0v0l-.06.06,0,0s0,0,0,0-.07.05-.08,0,0,0,0,.11h0s.06,0,0,.07-.06,0-.06,0l0,0s0,0,0,0,0,0,0,0,.09.3.11.39-.08.14,0,.05c0,.18,0,.23,0,.17.06.21.07.27,0,.19.1.12.11.2,0,.24v0s0,0,0,0,0,.08,0,.06-.08.13,0,.1,0,0,0,0,0,0,0,0-.07.2-.07.13,0,0,0,0,0,0,.05,0,0,0,0,.07,0,0,0,0l0,0s0,0,0,0,0,.06,0,.12,0,0,0,0-.05,0,0,.06,0,0,0,0l-.06.06s0,0,0,0a.4.4,0,0,0-.17.1s0,0,0,0,0,0,0,0,0,0,0,0,0,0,0,0,0,0,0,0,0,.11,0,.06,0,.07,0,0,0,0,0,0,0,0,0,0,0,0,0,0h0s0,0,0,0,0,0,0,0,0,0,0,.06.08,0,0,0,0,0,0,0l0,0s0,0,0,0-.1.11,0,.07.15,0,.11,0v0s0,0,0,0,0,0,0,.08,0,0,0,0c0,.43,0,.56,0,.41-.05,0-.19.15-.13.17-.13.32.08.16.07.18s0,.18,0,.1,0,0,0,0c.16-.18,0,.12,0,.11s.07,0,0,0,.15.11.08.09c-.1.2-.11.26-.05.19-.05.14-.06.17,0,.1s-.08.2,0,0c.32.14-.09.24-.06.24h0s0,0,0,.06h0s0,0,0,0,0,0,0,0,0,0,0,0c.14.18.16.25.07.21s0,0,0,0,.09.06.12.08l0,0s0,0,0,0,0,0,0,0,0,0,0,0a.06.06,0,0,0,0,0c.07.06,0,.06.07.13s0,0,0,0c.19.06.25.13.18.19h0c-.07.13-.07.18,0,.15-.12,0-.17.1-.14.18s0,.05.1,0l0,0,0,0c0,.13,0,0,0,0,.18-.09,0,.08-.05.15.11-.11.08.29,0,.29a.21.21,0,0,1,0,.08s0,0,0,0,0,0,0,0,0,0,0,0,0,0,0,0-.09.1,0,.08,0,.09,0,.13,0,0,0,0,0,0,0,0h0c0,.09,0,.11,0,.06s0,0,0,0,0,0,0,0-.09,0-.08.07,0,0,.07,0a.62.62,0,0,1-.16.18s0,0,0,0a.06.06,0,0,0,0,0s0,0,0,0-.1,0-.1.05,0,0,0,0-.1.09,0,.1l-.06,0,0,0s0,0,0,0,0,0,0,0,0,0,0,0-.05,0,0,.06,0,0,0,0-.09.11,0,.12,0,0,0,0l0,0,0,0c0,.09,0,.11,0,.06s0,.05-.08.08,0,0,0,0,0,0-.05,0,0,0,0,0c-.12.15-.09.13-.06.09.19.05-.34.12-.16,0-.22-.12-.28-.16-.18-.13s0-.13,0-.08-.2,0-.08,0,0,0,0,0l0,0a.3.3,0,0,0-.1.09s-.17.18-.19.22-.07.15-.09.09,0,0,0,0,0,0,0,0,0,0,0,0a0,0,0,0,1,0,0h0c-.17,0-.24,0-.19,0s-.05,0-.09,0,0,0,0,0,0,0-.05,0,0,0,0,0-.11,0-.08,0-.25-.14-.29,0,0,0-.06,0,0,0,0,0,0,0-.05,0,0,0,0,0-.19,0-.2,0,0,0-.06,0l0,0s0,0-.06,0,0,0,0,0v0s0,0,0,0l0,0s0,0-.05,0,0,0,0,0l0,0-.08.08s.05,0,.07-.08a.37.37,0,0,1-.11.09s0,0,0,0-.14.11-.08.09,0,0-.05,0l0,0s0,0-.05,0,0,0,0,0-.09,0-.06,0-.06,0,0,0-.09,0,0,0c-.13,0-.16,0-.1,0s-.23-.31-.06-.24c0,0-.17-.17-.15-.17s0,0,0,0-.39-.17-.26-.14-.27-.17-.24-.17-.15.12-.11.07,0,0,0,0,0,0,0,0,0,.09-.06,0h0s0,0,0,0h0s0,0,0,0,0,0,0,0-.06,0,0,0c-.12.06-.17.07-.11,0s0,0-.05,0,0-.05,0,0l0,0s0,0-.07,0-.26,0-.17,0,0,0,0,0-.16,0-.16,0h0s0,0,0,.06,0,0,0,0,0,0,0,0,0,0,0,0,0,.11,0,.07,0,0,0,0,0,0,0,0-.07.1-.17.13,0,0,0,0a1.41,1.41,0,0,1-.23.1s0,0,0,0,0,0-.07,0,0,0,0,0,0,0,0,0,0,0,0,0,0,0,0,0-.17.15-.1.12,0,.1,0,.08,0,0,0,0,0,0,0,0-.05,0,0,0,0,0,0,0a.15.15,0,0,1-.06.06s0,0,0,0l-.1.12,0,0s0,0,0,0,0,0,0,0,0,0,0,0-.19,0-.12-.05,0-.1,0,0,.12,0,.07-.06.06,0,.06,0c0-.19,0-.25,0-.18s0,0,0,0,0,0,0,0,0-.14.06-.1,0,0,0,0v0s.06,0,0-.05,0,0,0,0,0,0,0,0-.13,0-.09,0,0,0,0,0,0,0,0,0,0,0,0,0,0,0,0,0,0,0,0,0-.07,0,0,.07,0,0,0,0l0,0a.05.05,0,0,0,0,0c-.06.1-.08.13,0,.08l0,0c-.06,0,0-.07,0-.1s0,0,0,0c.17-.46-.17.1-.1-.07,0,0-.07,0,0,0s-.2.38-.12.16c0,0,0,0-.05,0s0,0,0,0-.17,0-.14,0,0,0-.05,0,0,0,0,0-.13,0-.09-.06,0,0,0,0,0,0,0,0c-.31,0-.4.07-.29.07-.06,0-.07.08,0,.11s-.1,0,0,0c-.1,0-.14,0-.1,0s-.15,0-.15,0,0-.09,0-.07,0-.07-.06,0,0,0,0,0,0,0,0,0,0,0,0,0,0,0,0,0h0s0,0,0,0,0,0,0,0,0,0,0,0,0,0-.06,0,0,0,0,0,0,0,0,0-.15,0-.1,0,0,0-.05,0,0,0,0,0,0,0-.08,0l0,0c-.26,0-.34,0-.25,0s0,0-.07,0,0,0,0,0l-.06,0c-.12,0-.16,0-.1,0-.1,0-.13,0-.09,0s-.07,0-.16,0,0,0,0,0c-.24,0-.31.05-.21.08s-.75.06-.61,0c0,0,0,0,0,0s0,0,0,0-.08,0-.11,0,0,0,0,0,0,0,0,0-.11,0,0,0,0,0-.07,0l0,0c-.05,0,0,0-.09,0s0,0,0,0,0,0-.07,0,0,0,0,0,0,0,0,0,0,0,0,0c-.14.21-.19-.05-.24.06s0,0-.05,0,0,0,0,0,0,0-.05,0,0,0,0,0-.1-.07-.08-.06,0,0,0,0,0,0,0,0,0,0,0,0h0v0c-.06,0-.08,0-.06,0-.19.14-.25.18-.17.11,0,.09.06.11.05.07h0c-.44,0-.58,0-.41.06,0,0,0,0-.07,0s0,0,0,0-.06.07-.12,0h0c-.08,0-.1,0-.08-.09l-.07.06s-.15.18-.14.09-.07,0,0,0,0,0,0,0h0c-.08,0-.09,0-.05-.05s0,.15,0,.1,0,0,0,0-.09,0-.07,0-.09,0,0,0,0,0,0,0v0s0,0-.07,0,0,0,0,0v0s0,0,0,0-.05.05,0,.07,0,0,0,0c0,.16,0,.21,0,.14-.18,0-.22.05-.14.07s0,0,0,0,0,0,0,0-.53-.05-.42-.23c0,0-.11,0-.1,0s0,0,0,0-.14.08-.08.06-.12.16-.08.07,0,0,0,0h0c-.05,0-.07,0-.07,0a.12.12,0,0,0-.13.06s0,0,0,0c-.3,0-.39-.08-.26-.19,0,0-.05.08-.09,0s0,0,0,0c-.17,0-.22,0-.14.05s-.63.11-.69.13-.17,0-.06-.06,0,0,0,0,0-.07,0,0,0,0,0,0,0,0,0,0,0,0,0,0,0,0,0,0,0,0,0,0-.15,0-.12,0,0,0,0,0,0,0,0,0l-.07,0s0,0,0,0-.09.07-.16.07-.05-.07,0,0l0,0c-.13.12-.15.21-.05.24-.1.11-.15.12-.14,0v0s0,0,0,0,0-.06-.06,0-.08.11,0,0c-.26.3-.31.41-.16.36s-.12.23-.12.18,0,0-.05,0,0,0,0,0c0,.12-.07.13-.08,0s0,0,0,.08,0,0,0,0c-.08.19,0,.1-.09.11s0,0,0,0,0,.13,0,.1,0,0,0,0,0-.08.07-.05,0,0,0,0a.55.55,0,0,1,0,.17c0,.15,0,.2,0,.14-.36.27-.46.37-.29.28-.12.11.11.35,0,.46s0,0,0,0-.06.07,0,0,0,0-.05,0-.09.23,0,.17,0,0,0,0,0,0,0,0-.07,0-.09,0a2.3,2.3,0,0,1-.24.13l0,0s0,0,0,0-.1.07-.05.05c-.16.29-.21.39-.13.28-.09.09-.13.1-.13,0s-.1.1-.06,0c-.11,0-.15.07-.09.07s0,.09,0,.13c-.06-.25-.23.24-.24.19s0,.06-.06.06,0,0,0,0,0,.1,0,.06l-.14.22c-.1.08-.14.08-.11,0s0,0,0,0,0,0,0,0-.42.11-.35,0c-.14.13-.16.18-.08.15s-.09.14,0,0,0,0-.06,0,0,0,0,0l0,0s0,0,0,0,0,0,0,0,0,0-.06,0,0,0,0,0a.18.18,0,0,1-.14.08s0,0,0,0a0,0,0,0,0,0,0s0,0,0,0-.11-.06-.08-.12c-.26,0-.34,0-.24-.06s0,0,0,0,0,0,0,0,0,0,0,0,0,0,0,0-.35-.12-.24-.1c-.15-.14-.2-.17-.16-.09s-.27-.1-.22-.18-.25.06-.16,0,0,0-.08,0,0,0,0,0h0l0,0s0,0,0,0,0,0,0,0h0c.08.09-.12.16-.12.13s0,0,0,0,0,0,0,0,0,0,0,0-.06,0,0,0,0-.31-.15-.31c0,0,0,0,0,0s0,0,0,0,0,0,0,0c-.19-.26-.23-.37-.1-.32s0,0,0,0-.06-.16-.11-.08,0,0,0-.06,0,0,0,0,0,0,0-.07h0s0-.05,0-.08h0s0,0,0,0-.06,0-.05,0v0c.08-.15.09-.19,0-.15,0-.17,0-.22,0-.16s0,0,0-.08l0,0s0,0,0-.08l0,0a1,1,0,0,1,0-.27c.07-.11.08-.15,0-.1s0,0,0,0h0s0,0,0-.06,0,0,0,0,0-.14,0-.1-.19-.13,0-.11c0,0,0,0,0,0-.18-.18.23-.1.18-.1s0,0,0,0a.09.09,0,0,1,0-.1s0,0,0,0v-.21s.06,0,0-.05,0,0,0,0,0,0,0-.07,0,0,0,0,.08-.09,0,0c0-.15.05-.2.07-.14s0,0,0-.06,0,0,0,0-.07,0,0-.07,0,0,0,0,0,0,0-.06,0,0,0,0,.05-.1,0-.06,0,0,0,0h0s0,0,0,0,0,0,0,0,0,0,0-.09,0,0,0,0c-.25.4,0-.66,0-.29,0-.08,0-.1.09-.06s0,0,0,0,0-.07,0,0,0,0,0,0,0,0,0,0-.12-.59-.16-.39c0,0,0-.27.06-.15s.06,0,0-.05,0,0,0,0,0-.06,0-.06,0,0,0,0,.05,0,0-.05,0,0,0,0l0,0s0,0,0,0c.1-.19.12-.25.05-.18s0-.06,0,0c.06-.16.05-.2,0-.14s0,0,0,0a.06.06,0,0,0,0,0s0-.06,0-.06a.25.25,0,0,0,0-.07c-.05,0-.05,0,0,0-.15,0-.15-.06,0-.08,0,0,0,0,0,0s0,0,0,0,0,0,0,0,.13,0,.08,0c.2-.12.27-.14.22-.06s0,0,0,0,0,0,0,0c.16-.08,0-.09,0-.09s0,0-.09-.1,0,0,0,0-.07-.08,0-.06,0,0,0-.06,0,0,0,0,.16-.22.17-.23,0,0,0,0,0,0,0,0,0,0,0,0,.16-.16.08-.11,0-.06,0-.08,0,0,0,0,0,0,0,0,0,0,0,0,0-.06.05,0h0s0,0,0-.06,0,0,0,0,.06-.14,0-.11c.1-.07.14-.07.11,0,.23,0,.31-.13.24-.26s0,0,0,0,0-.38-.08-.27c0-.13-.2.1,0-.14,0,0,0,0,0,0s0-.06,0,0c.13-.24.15-.31.07-.23a.62.62,0,0,0,0-.09s0,0,0,0,.06-.13,0-.1,0-.12,0-.08l.05,0s0,0,0,0,.36-.08.24-.12c.1,0-.28-.08-.12-.14l0,0s0,0,0,0,0,0,0,0,.28,0,.32-.1l0,0c0,.06,0,.06,0,0s0,0,0,0,0-.06,0-.06l0,0s0,0,0,0c0-.18-.06-.23-.15-.17s-.11-.19,0-.15,0,0,0-.06,0,0,0,0c-.11-.19.15-.25.23-.25a.08.08,0,0,1,0,0s0,0,0,0a.18.18,0,0,0,.15-.11l0,0c0-.06,0-.1,0-.08s0,0,0,0,0,0,0,0,0,0,0-.06,0,0,0,0,.13-.19.13-.15,0,0,0,0,0,0,0,0a.1.1,0,0,0,.13-.1s0,.06-.05,0,0,0,.05-.11-.15,0-.12,0l0,0c.06.05,0-.33-.06-.23.1-.25.11-.34,0-.25,0-.1,0-.13,0-.09s.05,0,0-.06-.08,0,0,0,0,0,0,0,0,0,0,0,0,0,0,0h0s0,0,0,0,0,0,0,0-.1,0,0,0-.17-.27,0-.19l0,0s0,0,0,0,0,0,0,0c.14-.18.16-.27.05-.26l.18-.2c0,.72,0-.8,0-.57,0-.11,0-.14,0-.09s0,0,.06-.06,0,0,0,0c.1-.29.15-.37.15-.26.09-.1.11-.13,0-.1s0,0,0,0,0,0,0,0,0,0,0,0,0,0,0,0l.16-.16s0,0,0,0,0,0,0,0,.08,0,.14-.06,0,.05,0,0,0,0,0,0,.09,0,.05,0,.17-.17.21-.19,0,0,0,0,0,0,0,0,0,0,0,0,.11,0,.06,0,.1-.06.07,0c.08-.08.08-.05.08,0s0-.05.05,0,0,0,0,0,.17,0,.1-.06l0,0s0,0,0,0l0,0c0-.07,0-.09.1-.06s0,0,0,0,.08,0,.16,0v0s0,0,0,0,0,.1.06.07,0,0,0,0h.11s0,0,0,0,0,0,0,0,.13,0,.08,0,.05,0,.12,0,0,0,0,0,0,0,.09,0,0,0,0,0,0,0,0,0,0,0,0,.08.07,0,0,0c.12,0,.15.06.1,0s0,0,.07,0v0s0,0,0,0,0,0,0,0,.13,0,.08,0h.06s0,0,0,0h.13a.1.1,0,0,0,.13.05h0c0-.06,0-.08,0,0s0,0,.05,0,0,0,0,0,0,0,0,0l0,0c.18,0,.24,0,.18.11s0,0,.09,0,0,0,0,0,0,0,.05,0h0s0,0,.06,0c-.12-.29.15,0,.07,0,.17.1.24.1.21,0s.16,0,.14.05l.06,0s0,0,0,0,0,0,0,0,0,0,0,0,0,0,.05,0,0,0,0,0,.09,0,.06.07,0,0,.05,0,0,0,0,0,.19,0,.16,0c.16,0-.07,0,.07.14,0,0,0,0,0-.06s.08.06,0,.09,0,0,0,0,0,0,0,0,.09,0,.06,0,.09-.05.08,0,0-.15,0-.16,0-.05,0,0,0,0,0,0,.15,0,.08,0,.09.05.17,0,.13,0,.06,0l.21.05,0,0s0,0,0,0,0,0,0,0,0-.05.06,0,0,0,0,0,0,0,0,0,.12-.14.07-.09,0,0,0,0,.17-.11.16,0,.07-.07.06,0,.07-.11.07-.06.05,0,0-.06,0,0,0,0,.11-.16.09-.07,0,0,0,0c.2-.13.26-.14.2-.06s0,0,.06,0,0,0,0,0l0,0,0,0s0,0,0,0c.12-.17.14-.24,0-.2s0-.06.07,0,0,0,0,0,.14,0,.11,0,0,0,0,0,.07-.12,0,0,0,0,.05,0,0,0,0,0,.1,0,.07,0,0,0,.08,0,0,.11.06.06,0,0,0,0,0,0,0,0,0,0,0,0l0,0s0,0,0,0,.12-.07.06-.12c.22-.13.29-.15.23-.06s0,0,.05,0,0,0,0,0,0,0,0,0,0,0,0,0l0,0s0,0,.07,0-.17-.16.06-.16c0,0,0,0,0,0s.06-.09,0,0,.33-.15.26-.12.15,0,.13,0,.08-.08.1,0a.66.66,0,0,1,.26,0l0,0s.2,0,.12,0,0,0,0,0,0,0,0,0,.16-.07.1-.09c.2,0,.08.13.25.05s0,0,0,0c.16,0,.21,0,.15,0s.14-.09.11,0h.13c0,.09.17,0,.16,0h.11c-.06,0,.24-.19.24-.17h0c0,.07.3.07.2.11s0,0,.05,0,0,0,0,0a.17.17,0,0,0,.19-.1,1.28,1.28,0,0,0,.18-.17s0,0,0,0a.09.09,0,0,0,.11,0l0,0,.06,0,0,0c.06,0,0,0,.09,0s0,0,0,0,.14,0,.22,0,.07,0,.05,0,0-.18.05-.18,0,0,0,0,0,0,0,0,.05,0,0,0,0,0,0,0l0,0c0-.06.18-.19.17-.14s0,0,.06,0,0,0,0,.1,0,0,0,0,0,0,0,.07.08,0,.05,0,0,0,0,0,.1-.1.07,0l.18-.1v0s0,0,0,0,.13-.12.09-.06c.17-.16.19-.17.05,0,0,0,.08-.07.11-.11s0,0,0,0c.24-.13.07,0,.17,0s0,0,0,0l0,0c0,.09.23.14.23.06s0-.15,0-.19,0,0,0,0a.14.14,0,0,0,.09,0l0,0s0,0,.06,0,0,0,0,0,0,0,.08,0,0,0,0,0a.25.25,0,0,0,.2.09c0-.07,0-.11,0-.12s0,0,0,0l.09-.06c.14-.21.18-.28.1-.2s0,0,0,0,.05-.19.07-.11c.13-.14.13-.16,0-.06.05-.15.06-.19,0-.12s.12-.06.1,0,.06,0,.09,0l0,0a.51.51,0,0,1,.19-.09s0,0,0,0,0,0,.07,0l0,0c.09-.13.46.12.42-.16a.06.06,0,0,1,.1.06c.19,0,.24,0,.16,0s.06,0,.1,0a.06.06,0,0,1,0,0c.11,0,.14,0,.08,0,.08.25.19.33.3.23l0,0c.08,0,.1,0,.08,0s.11,0,0,0,0,0,0,0,0,0,0,0,.21.29.12.26-.05.05,0,.05,0,.25.15.21.14,0,.08,0,0,0,0,0,0,0,0,0,.13,0,.13.06,0,0,0,0,0,0,0,0,0,0,0,0,0,0,0,0,0,0,0,0,0,0,0,0l.06-.06s0,0,0,0,0-.16.07-.11,0,0,0,0v0s0,0,0,0,.05,0,0-.06,0,0,0,0,0,0,0-.05,0,0,0,0,0-.15,0-.1,0-.12,0-.07l0,0,0,0a.06.06,0,0,0,0,0c0,.05,0,.06,0,0s0,0,0,0,0-.2,0-.08c.11-.18.15-.23.15-.14s.08,0,0-.07,0,0,0,0,0-.13.06-.1,0-.12,0-.09l0,0s0,0,0,0,0,0,0-.06,0,0,0,0,0,0,.06,0l0,0s0,0,.05,0,0,0,0,0,.12-.09.14-.1,0,0,0,0,.15-.1.19-.06S219.23,19.81,219.27,19.85Zm-9.83,3.27-.06.06S209.43,23.14,209.44,23.11Zm5.76.88c-.18,0-.23,0-.15,0s0,.06,0,0c0,.19,0,.26-.08.19s0,.08,0,.05,0,0,0,0l0,0,0,0s0,0,0,0a.28.28,0,0,0-.06.06s0,0,0,0-.21.23-.19.15,0,0,0,0h0s0,0-.06,0,0,0,0,0h0l0,0c-.05,0,0,0-.09,0s0,0,0,0-.18,0-.13,0l-.08,0c-.11,0-.14,0-.08,0-.63,0-.83,0-.62,0,0,0,0,0,0,0a0,0,0,0,0,0,0h0s0,0,0,0,0,0,0,0-.09-.06,0,0-.12,0-.09,0-.08,0-.12.06,0,0,0,0-.16.24-.19.11h0c-.12,0-.15,0-.09,0s0,0,0,0a.06.06,0,0,0,0-.08s0,0,0,0-.06,0-.11,0,0-.08-.1,0h0s0,0,0,0,0,0,0,0,0-.06,0-.08,0,0,0,0,0,0,0,0l-.1,0s0,.05,0,0a.06.06,0,0,0,0,0s0,0,0,0,0,.06,0,0c-.18.09-.23.1-.18,0-.1,0-.12,0-.07,0l0,0c-.1-.1-.24,0-.31,0-.13.17-.19.2-.19.1s0,0,0,0c-.19.14-.49.15-.46,0s0,0-.06,0l0,0c-.12.07-.14.09-.08.07s-.36.26-.18.1c0,0,0,0,0,0s0,.06,0,.09,0,.26,0,.25,0,0,0,0,0,.06,0,0,0,0,0,0,0,.09-.06.14,0,0,0,0,0,.06-.05.06,0,0,0,0-.08.07,0,0,0,.08,0,.06,0,0,0,0-.13,0-.08,0,0,0,0,0,0,0,0,0c-.24.13.15,0,.05.09l0,0c0,.06-.1.11-.1.08l-.07.07s.07,0,0,0,0,0,0,0-.06.12,0,.08c-.1.19-.42.3-.25.38a1,1,0,0,1-.36.25h0s-.2.2-.15.27c0-.17-.26.37-.21.19-.15.12-.2.14-.16,0s-.07,0-.08,0,0,0,0,0-.06-.13-.07-.09-.28,0-.22,0-.05.1,0,.08,0,0,0,0,0,0,0,0-.09.16,0,.14l0,0s0,0,0,0,0,0,0,.07,0,0,0,0,.13.22.09.17,0,0,0,0,0,.07,0,0c-.11.13,0,.08-.1.26,0,0,0,0,0,0s0,0,0,0-.06.06,0,0,0,0,0,0,0,.05,0,0,0,0,0,0c0,.28,0,.37,0,.26,0,0,0,0,0,.07v0s0,0,0,0,0,0,0,0,0,0,0,0,0,.07,0,.08,0,0,0,0,.06.1.15.08,0,0,0,.06l0,0s0,0,0,0,.16-.09.08,0,.05,0,.13-.06-.06,0,0,.05,0-.08.07,0,.25-.06.22,0,0,0,.09,0l0,0s0,0,.06,0,.08,0,.05.06,0,0,.11-.1,0,0,0,0,.12-.1.08-.06c.15,0,.19,0,.12,0s0,0,.06,0l0,0c.06-.06.09-.07.08,0l0,0c-.14.14.33.08.32,0,.18,0,.2.05.09.09.12,0,.13,0,.14,0l0,0c.11-.08.14-.11.09-.11.13-.05.16-.1.07-.14.1-.05.12-.08.07-.08s0-.07.07,0,0,0,0,0,0,0,.06,0,0,0,0,0l.05,0h0s.11,0,.1,0,.08-.08,0,0c.09-.12.11-.15.08-.09s0,0,0,0,0,0,0,0,0,0,0,0,0,0,0,0c.18-.08.24-.08.19,0s0,0,0,0,0,.05,0,0,0,0,0,0h0s0,0,0,0v0s0,0,0,0,0,0,0,0,.26-.18.25-.1a.38.38,0,0,0,.39-.05c0-.05.05-.05.1,0s0,0,0,0,0,0,.06,0l0,0s.17.1.15.14,0-.06.15,0,0,0,0,0,0,0,.06,0,0,0,0,0c.2-.07.25-.05.16,0,.1-.06.13-.06.1,0s.11-.07.14,0,0,0,0,0,0,0,.06,0,0,0,0,0,0,0,0,0a.09.09,0,0,0,0,.06s0,0,0,0,0,0,0,0,0-.06.06,0,0,0,0,0,.14-.11.2-.06,0-.09.06,0,0,0,0,0a.24.24,0,0,0,.11-.05s0,0,0,0,.15-.11.1-.06,0,0,0,0,0,0,0,0,0,0,.06,0,0,0,0,0,.08,0,0,0,0,0,0,0,0,0,0,.06,0,0,0,0,0,0,.06,0l0,0s0,0,0,0,0,0,0,0,0,0,0,0l0,0c0,.06.09.07.13,0s0,0,0,0,.14,0,.1,0,0,0,0,0,0,0,0,0c.14-.07.19-.08.13,0l0,0s0,0-.06,0,0,0,0,0-.1,0-.09,0,0-.11,0-.06.13,0,.11-.08.24-.11.2,0,.13-.09.11,0,.08.14.08.11,0,0,.06,0,.06.07.1.05l0,0,0,0c.19-.35.22-.47.12-.36s0,0,0,0,.07-.11,0-.07,0-.06,0,0,0,0,0,0a.1.1,0,0,0,0,0s-.05,0-.08,0,0,0,0-.05,0,0,0,0,0-.05,0,0,0,0,0,0,0-.06,0,0,0,0,0,0,0-.06,0,0,0,0,0,0,0-.13,0-.08c.07-.2.1-.27.09-.18,0-.15.06-.15.06,0s0,0,0,0l0,0c0-.05,0-.06,0,0s0-.06,0-.06.16,0,.1-.05,0,0,0,0,.07-.13,0-.07,0,0,0,0,0,0,0,0,0,0,0,0,.13-.21.19-.25,0,0,.05,0,0,0,0,0,0,0,0,0,0,0,0,0,0,0,0,0,.07,0,0-.06-.07,0,0,0,0-.08,0,0h0s0,0,0,0,0,0,0,0,.13-.09.07-.07,0,0,0-.06,0,0,0,0,0,0,0,0,0,0,0,0,0,0,0,0,0,0,0,0,0,0,0-.07,0,0-.06,0,.06-.07.06-.08,0,0,0,0,0-.13,0-.2h0c0-.06.16-.12.12-.07.18.16.15-.38.12-.35s0,0,0,0,.06-.15,0-.09,0,0,0-.07,0,0,0,0,0,0,0-.07,0,0,0,0-.14-.12,0-.09.12-.11.12-.11,0,0,0,0l0,0s0,0,0,0-.08-.1,0-.12,0,0,0,0,0-.21,0-.17l-.06,0c-.29,0-.37,0-.26,0-.23-.07-.31-.11-.2-.16s0,0,0,0,0,0-.07-.1,0,0,0,0-.13.06-.06,0-.06.09-.08,0,0,0,0,0,0,0,0,0,0,0,0,0-.16-.05-.07-.07,0,0,0,0,0-.17,0-.13-.12,0-.06,0c-.11.08-.07-.07-.08,0s-.16,0-.13,0,0,0,0,0,0,0,0,0S215.19,24,215.2,24Z"/><polygon class="cls-1" points="129.81 12.99 130.86 12.43 131.22 12.68 133.5 12.62 133.69 12.99 134.55 12.74 135.22 12.86 135.84 12.68 136.4 12.12 137.69 12.62 138.31 12.19 138.99 11.63 139.66 11.57 139.97 11.2 140.4 10.71 141.26 10.22 142.12 10.16 142.49 9.91 143.23 10.16 143.66 9.54 144.59 9.23 145.26 8.8 145.75 8.37 146.25 8.37 146.62 8.24 147.23 8.24 147.42 7.69 147.73 7.51 148.22 7.51 148.53 7.08 149.4 6.58 149.7 6.82 150.19 6.65 150.69 6.65 151.3 6.65 151.48 6.34 152.1 6.89 152.1 7.63 151.6 7.75 151.6 8.06 150.44 8.98 150.13 10.58 149.57 11.51 149.63 12.93 149.52 13.73 149.02 14.34 149.08 15.02 148.59 16 148.65 16.25 147.91 17.3 147.73 18.16 147.79 18.71 147.85 19.94 147.66 20.68 147.98 21.48 148.28 22.28 148.16 23.64 148.16 24.5 148.03 25.42 148.28 25.92 147.79 26.78 148.03 27.7 148.03 28.32 148.1 28.94 147.79 29.8 147.91 30.47 147.11 31.64 146.81 32.44 146.56 32.94 146.92 33.24 146.19 33.67 145.2 34.04 145.02 33.61 144.34 33.24 144.52 32.44 144.1 31.89 143.78 31.39 143.53 31.02 143.36 30.6 142.87 30.29 143.29 29.92 143.29 29.06 143.11 28.57 143.04 27.02 143.17 26.23 142.99 25.18 143.29 24.56 143.04 22.16 143.41 21.23 143.6 20.13 143.17 18.59 143.41 17.85 143.04 17.48 143.17 17.23 143.11 16.31 143.23 15.88 142.8 15.26 142.25 15.08 140.9 15.57 139.79 15.57 139.35 15.88 138.74 16 138.18 15.94 137.2 16.68 136.59 16.68 136.46 17.3 135.96 18.4 135.1 18.65 134.61 19.39 133.93 19.2 133.44 19.64 132.46 19.76 131.53 20.68 130.79 20.87 130.55 21.05 129.44 20.87 128.76 20.19 128.88 18.84 129.26 17.3 129.68 17.17 129.93 16.62 130.24 16.25 130.05 15.76 130.37 15.51 129.87 14.46 129.81 13.79 129.81 12.99"/><path class="cls-1" d="M156.76,8l.51-.22.13-.64L158,6.9l.3-.21h.59l.08-.43,1,.3.73.3.13.55-.22,1.32.64.38.6-.13.55-.21V8.39l.51-.56h.51l.26-.39h.64l.9.56.3.17.26.3,0,.55.31.34.3,0,.08.51.34.34,1.41.77.73.51.47.47.43.21-.09,1.11-.55.55-.68.38-.43,0-.26.38-.56,0h-.68l-.6-.38h-.38l-.55-.21-1.15-.3-.47-.08-.51.21-.38-.3-.51.17-.77-.13-.6.6-.26.86-.17,1.28,0,.72.47.17,0,1.28.17.43.17.51,0,.6.39.47.76.25.26,0,1.07,0,.52.51.55.43.6.21.17.26h.38l.86.55,1,.3.6-.09.73.6h.9l.47.34,1,.17H172l.6.38.51-.08.77.26.51-.3.81.3,1.41-.09.81-.47.51-.6,1,0,.76-.17.17.38,1.92-.64,1-.81.86-.26.38-.38.56-.13.12-.39-.21-.3,1.19-.9.21-.43v-.72l.56-.81.3-.3-.18-.55.18-.22.47-.08.69-.43.64,0,1,.38.08.38.42.09.21.89-.13,1.07-.25.13-.47,1.15.13.34-1.15.59-.17.34-.34.47-.34.81-.56.21-.47.72,0,.6-.22.08-.64,1.5-.68.51-.6.77-.34.13-.13.47-.47-.09-.12.51-.51.47-.39.13-.6.38-.34.56-.77.43-.6.25-.09.43-.94.55-.34,0a3.18,3.18,0,0,0-.81.52c-.17.21-.69,1-.69,1l-.64-.26-.47-.38h-.34l-.38-.47-.76-.64-1-.21-.9-.81h-.6l-.77-.52-.77-.51-.85-.9-.42.09-.72-.35-.31.09-.81-.3-.73-.22-.59-.34-.39-.43-.55.13-.56-.34-1.11-.09-.86.09-.55-.34-1.2-.64-.55-.26-.94-.42-.81-.3-.6-1.15,0-.34-.26-.17-.47-1-.09-.47-.3-.34-.08-.55-.34-.81-.3-.51.17-.34-.43-1.07-.21-.34,0-.73.26-.77-.38-.47.17-.34,0-.47,0-.43-.22-.25.17-.42,0-.94-.22-.69.43-.59.3-.9.13-.55-.26-.34.55-1.15Z"/><path class="cls-1" d="M72.35,50.5c.28.56.54,1.12.83,1.64h0c.32-.56.62-1.19.92-1.8L75.25,48a7,7,0,0,0,.91-2.3c.41,0,.66,0,.9,0s.7,0,1.07,0a.25.25,0,0,1,0,.3l-.25,0c-.75.07-.85.3-.84,1.14,0,1.27,0,3.49.13,5.22,0,.6,0,.92.59,1l.38,0a.22.22,0,0,1,0,.3c-.49,0-1,0-1.42,0s-1,0-1.45,0a.22.22,0,0,1,0-.3l.35,0c.59-.06.59-.25.59-1l0-5h0c-.08.13-.54,1.09-.78,1.56L74.27,51c-.54,1.05-1.08,2.18-1.29,2.73a.14.14,0,0,1-.12,0,.14.14,0,0,1-.11,0c-.2-.64-.78-1.81-1.06-2.4l-1.08-2.31c-.25-.55-.5-1.17-.77-1.73h0c0,.74-.08,1.44-.12,2.13s-.08,1.8-.08,2.82.07,1.08.54,1.12l.46,0c.08.07.07.26,0,.3-.41,0-.87,0-1.33,0s-.82,0-1.22,0a.24.24,0,0,1,0-.3l.26,0c.5-.07.67-.14.74-1s.13-1.45.2-2.64c.06-1,.11-2,.13-2.67s-.07-.94-.8-1l-.19,0a.22.22,0,0,1,0-.3c.36,0,.65,0,.95,0s.6,0,1,0a4.59,4.59,0,0,0,.62,2Z"/><path class="cls-1" d="M80.16,47.61c0-1.27,0-1.47-.73-1.54l-.3,0c-.07,0,0-.26,0-.3.6,0,1,0,1.51,0s.89,0,1.49,0c.07,0,.1.25,0,.3l-.3,0c-.71.06-.73.26-.73,1.54v4.27c0,1.27,0,1.44.73,1.52l.3,0c.07,0,0,.26,0,.3-.6,0-1,0-1.49,0s-.91,0-1.51,0a.23.23,0,0,1,0-.3l.3,0c.71-.08.73-.25.73-1.52Z"/><path class="cls-1" d="M90.67,51.66c0,.36,0,1.79,0,2.1a.22.22,0,0,1-.23.13c-.14-.2-.49-.62-1.54-1.81l-2.78-3.17c-.32-.37-1.14-1.36-1.39-1.62h0a3.06,3.06,0,0,0-.06.78v2.61a9.38,9.38,0,0,0,.22,2.48c.07.13.31.2.61.23l.37,0a.22.22,0,0,1,0,.3c-.54,0-1,0-1.4,0s-.83,0-1.25,0a.22.22,0,0,1,0-.3l.32,0c.28,0,.47-.11.53-.24a11.58,11.58,0,0,0,.16-2.47V47.22a1.1,1.1,0,0,0-.26-.86,1.3,1.3,0,0,0-.74-.29L83,46a.21.21,0,0,1,0-.3c.5,0,1.14,0,1.35,0a4,4,0,0,0,.55,0A16.53,16.53,0,0,0,87,48.38l1.16,1.31c.83.92,1.42,1.59,2,2.17h0a1.21,1.21,0,0,0,0-.5V48.79a8.45,8.45,0,0,0-.24-2.48c-.07-.11-.26-.18-.74-.24L89,46c-.08-.07-.07-.26,0-.3.55,0,1,0,1.42,0s.83,0,1.24,0a.21.21,0,0,1,0,.3l-.17,0c-.38.06-.62.16-.67.25a9.66,9.66,0,0,0-.18,2.47Z"/><path class="cls-1" d="M93.61,47.61c0-1.27,0-1.47-.73-1.54l-.3,0c-.07,0,0-.26,0-.3.6,0,1,0,1.51,0s.89,0,1.49,0c.07,0,.1.25,0,.3l-.3,0c-.71.06-.73.26-.73,1.54v4.27c0,1.27,0,1.44.73,1.52l.3,0c.07,0,0,.26,0,.3-.6,0-1,0-1.49,0s-.91,0-1.51,0a.23.23,0,0,1,0-.3l.3,0c.71-.08.73-.25.73-1.52Z"/><path class="cls-1" d="M98.82,53.89a3.74,3.74,0,0,1-1.87-.44,5.53,5.53,0,0,1-.32-1.68c.06-.08.24-.11.29,0A2.18,2.18,0,0,0,99,53.52a1.36,1.36,0,0,0,1.5-1.38,1.8,1.8,0,0,0-1-1.68l-1.14-.74a2.56,2.56,0,0,1-1.29-2.06,2.16,2.16,0,0,1,2.45-2.06,4.63,4.63,0,0,1,1.12.16,1.62,1.62,0,0,0,.42.07,5.24,5.24,0,0,1,.22,1.46c0,.07-.24.11-.3,0A1.57,1.57,0,0,0,99.32,46a1.26,1.26,0,0,0-1.43,1.33,1.89,1.89,0,0,0,1,1.47l1,.6a2.7,2.7,0,0,1,1.5,2.3A2.26,2.26,0,0,1,98.82,53.89Z"/><path class="cls-1" d="M106.42,51.9c0,1.26,0,1.44.72,1.5l.38,0c.07,0,0,.26,0,.3-.68,0-1.09,0-1.57,0s-.9,0-1.67,0a.21.21,0,0,1,0-.3l.43,0c.68-.06.74-.24.74-1.5V46.54c0-.37,0-.38-.36-.38h-.66a2.46,2.46,0,0,0-1.48.3,2.19,2.19,0,0,0-.54.83.23.23,0,0,1-.31-.08,12.73,12.73,0,0,0,.46-1.79.3.3,0,0,1,.23,0c.07.38.47.37,1,.37h4.86c.65,0,.76,0,.94-.33.06,0,.19,0,.22,0a7.26,7.26,0,0,0-.18,1.82.23.23,0,0,1-.31,0c0-.3-.12-.74-.3-.88a2.39,2.39,0,0,0-1.39-.3h-.85c-.36,0-.35,0-.35.41Z"/><path class="cls-1" d="M111.46,47.59c0-1.14,0-1.34-.53-1.4l-.38,0a.2.2,0,0,1,0-.3c.67-.06,1.5-.1,2.67-.1a4.25,4.25,0,0,1,2,.36,1.79,1.79,0,0,1,1,1.68,2.22,2.22,0,0,1-1.5,2c-.06.07,0,.19.06.29a13,13,0,0,0,2.41,3.19,1.44,1.44,0,0,0,.83.34.1.1,0,0,1,0,.17,1.86,1.86,0,0,1-.53.06c-1,0-1.63-.3-2.48-1.51-.31-.44-.8-1.27-1.18-1.81a.86.86,0,0,0-.85-.38c-.54,0-.56,0-.56.26V51.9c0,1.26,0,1.4.72,1.5l.25,0a.23.23,0,0,1,0,.3c-.54,0-.95,0-1.43,0s-.94,0-1.5,0a.23.23,0,0,1,0-.3l.3,0c.7-.08.72-.24.72-1.5Zm1,1.71a.94.94,0,0,0,0,.4s.22.06.83.06a2,2,0,0,0,1.24-.31,1.72,1.72,0,0,0,.6-1.49,1.77,1.77,0,0,0-1.92-1.85c-.74,0-.78,0-.78.38Z"/><path class="cls-1" d="M121.15,51.87c0,1.28.07,1.48.72,1.52l.46,0a.23.23,0,0,1,0,.3c-.74,0-1.15,0-1.63,0s-.94,0-1.57,0a.23.23,0,0,1,0-.3l.37,0c.7-.07.72-.24.72-1.52v-.61a2.41,2.41,0,0,0-.38-1.49L118.37,47c-.41-.79-.59-.85-.95-.91l-.34-.06a.22.22,0,0,1,0-.3c.38,0,.82,0,1.39,0s1,0,1.28,0c.11,0,.11.23,0,.3l-.16,0c-.42.06-.5.12-.5.22a5.89,5.89,0,0,0,.37.92c.44.89.89,1.83,1.35,2.66.37-.64.77-1.33,1.13-2a10.94,10.94,0,0,0,.78-1.58c0-.07-.22-.16-.5-.19l-.22,0a.2.2,0,0,1,0-.3c.43,0,.78,0,1.15,0s.71,0,1.12,0a.2.2,0,0,1,0,.3l-.33.06c-.62.11-1,.86-1.58,1.89l-.75,1.31a2.76,2.76,0,0,0-.56,1.94Z"/><path class="cls-1" d="M127.56,49.82a4.15,4.15,0,0,1,4.27-4.23A4,4,0,0,1,136,49.7a4.1,4.1,0,0,1-4.16,4.19A4,4,0,0,1,127.56,49.82Zm7.23.25c0-2-.88-4.11-3.17-4.11-1.25,0-2.87.85-2.87,3.48,0,1.78.86,4.08,3.23,4.08C133.43,53.52,134.79,52.44,134.79,50.08Z"/><path class="cls-1" d="M139.07,49.16c0,.32,0,.32.4.32h.82a4.54,4.54,0,0,0,1-.07c.13,0,.23-.11.3-.42l.11-.48a.25.25,0,0,1,.31,0c0,.29,0,.77,0,1.21s0,.89,0,1.16c0,.07-.23.07-.31,0l-.12-.47a.57.57,0,0,0-.38-.46,4,4,0,0,0-.92-.06h-.82c-.36,0-.4,0-.4.32V51.9c0,1.26,0,1.44.73,1.5l.41,0c.07,0,0,.26,0,.3-.71,0-1.12,0-1.59,0s-.94,0-1.5,0a.23.23,0,0,1,0-.3l.3,0c.7-.08.72-.24.72-1.5V47.58c0-1.26,0-1.43-.72-1.51l-.19,0c-.07,0,0-.26,0-.3.5,0,.91,0,1.39,0h2.21c.77,0,1.46,0,1.62,0,0,.55,0,1.13,0,1.58a.21.21,0,0,1-.29,0c-.1-.54-.24-1-.84-1.14a5.11,5.11,0,0,0-1.16-.07h-.73c-.36,0-.36,0-.36.48Z"/><path class="cls-1" d="M148,46.61a5.17,5.17,0,0,1,3.24-1,9.24,9.24,0,0,1,2.12.29.92.92,0,0,0,.33,0c0,.28.07,1,.17,1.76a.25.25,0,0,1-.32,0A2.17,2.17,0,0,0,151.13,46a3.28,3.28,0,0,0-3.39,3.65c0,2.52,1.6,3.91,3.56,3.91a2.56,2.56,0,0,0,2.51-1.71.25.25,0,0,1,.31,0,4.51,4.51,0,0,1-.58,1.64,2.45,2.45,0,0,0-.42.12,7.08,7.08,0,0,1-1.9.28,5.26,5.26,0,0,1-3-.8,3.87,3.87,0,0,1-1.7-3.3A4,4,0,0,1,148,46.61Z"/><path class="cls-1" d="M161.61,48.79a8.64,8.64,0,0,0-.23-2.48.74.74,0,0,0-.6-.25l-.3,0a.22.22,0,0,1,0-.29c.46,0,.9,0,1.37,0s.83,0,1.26,0a.21.21,0,0,1,0,.29l-.29,0a.7.7,0,0,0-.6.29,10.72,10.72,0,0,0-.17,2.45v1.36a4.18,4.18,0,0,1-.84,2.87,3.16,3.16,0,0,1-2.29.88,2.87,2.87,0,0,1-3.18-3.49V47.57c0-1.25,0-1.45-.72-1.51l-.3,0c-.07,0,0-.25,0-.29.6,0,1,0,1.49,0s.89,0,1.48,0c.07,0,.1.24,0,.29l-.29,0c-.7.06-.72.26-.72,1.51v2.59c0,1.93.6,3.2,2.43,3.2s2.4-1.37,2.4-3.19Z"/><path class="cls-1" d="M164.85,47.58c0-1.26,0-1.45-.78-1.51l-.3,0c-.07,0,0-.26,0-.3.67,0,1.08,0,1.56,0s.88,0,1.47,0c.07,0,.1.25,0,.3l-.29,0c-.71.06-.73.25-.73,1.51v4.17c0,.76,0,1.07.25,1.3s.36.28,1.31.28,1.27,0,1.46-.16a2.57,2.57,0,0,0,.79-1.19c.07-.06.3,0,.3.07a9.61,9.61,0,0,1-.5,1.68c-.61,0-1.75,0-3,0h-1.1c-.5,0-.89,0-1.56,0a.23.23,0,0,1,0-.3l.36,0c.7-.07.72-.24.72-1.5Z"/><path class="cls-1" d="M173.16,51.9c0,1.26,0,1.44.72,1.5l.38,0c.07,0,0,.26,0,.3-.68,0-1.09,0-1.57,0s-.9,0-1.67,0a.21.21,0,0,1,0-.3l.43,0c.68-.06.74-.24.74-1.5V46.54c0-.37,0-.38-.36-.38h-.66a2.46,2.46,0,0,0-1.48.3,2.19,2.19,0,0,0-.54.83.23.23,0,0,1-.31-.08,12.71,12.71,0,0,0,.46-1.79.3.3,0,0,1,.23,0c.07.38.47.37,1,.37h4.86c.65,0,.76,0,.94-.33.06,0,.19,0,.22,0a7.26,7.26,0,0,0-.18,1.82.23.23,0,0,1-.31,0c0-.3-.12-.74-.3-.88a2.39,2.39,0,0,0-1.39-.3h-.85c-.36,0-.35,0-.35.41Z"/><path class="cls-1" d="M183.92,48.79a8.64,8.64,0,0,0-.23-2.48.74.74,0,0,0-.6-.25l-.3,0a.22.22,0,0,1,0-.29c.46,0,.9,0,1.37,0s.83,0,1.26,0a.21.21,0,0,1,0,.29l-.29,0a.7.7,0,0,0-.6.29,10.72,10.72,0,0,0-.17,2.45v1.36a4.18,4.18,0,0,1-.84,2.87,3.16,3.16,0,0,1-2.29.88,2.87,2.87,0,0,1-3.18-3.49V47.57c0-1.25,0-1.45-.72-1.51l-.3,0c-.07,0,0-.25,0-.29.6,0,1,0,1.49,0s.89,0,1.48,0c.07,0,.1.24,0,.29l-.29,0c-.7.06-.72.26-.72,1.51v2.59c0,1.93.6,3.2,2.43,3.2s2.4-1.37,2.4-3.19Z"/><path class="cls-1" d="M187.15,47.59c0-1.14,0-1.34-.53-1.4l-.38,0a.2.2,0,0,1,0-.3c.67-.06,1.5-.1,2.67-.1a4.25,4.25,0,0,1,2,.36,1.79,1.79,0,0,1,1,1.68,2.22,2.22,0,0,1-1.5,2c-.06.07,0,.19.06.29a13,13,0,0,0,2.41,3.19,1.44,1.44,0,0,0,.83.34.1.1,0,0,1,0,.17,1.86,1.86,0,0,1-.53.06c-1,0-1.63-.3-2.48-1.51-.31-.44-.8-1.27-1.18-1.81a.86.86,0,0,0-.85-.38c-.54,0-.56,0-.56.26V51.9c0,1.26,0,1.4.72,1.5l.25,0a.23.23,0,0,1,0,.3c-.54,0-.95,0-1.43,0s-.94,0-1.5,0a.23.23,0,0,1,0-.3l.3,0c.7-.08.72-.24.72-1.5Zm1,1.71a.94.94,0,0,0,0,.4s.22.06.83.06a2,2,0,0,0,1.24-.31,1.72,1.72,0,0,0,.6-1.49,1.77,1.77,0,0,0-1.92-1.85c-.74,0-.78,0-.78.38Z"/><path class="cls-1" d="M194.89,47.58c0-1.25,0-1.43-.73-1.51L194,46c-.07,0,0-.26,0-.3.52,0,.92,0,1.41,0h2.25c.77,0,1.48,0,1.62,0a13.37,13.37,0,0,1,.19,1.59.24.24,0,0,1-.3,0c-.18-.56-.29-1-.91-1.14a5.68,5.68,0,0,0-1.16-.07h-.86c-.36,0-.36,0-.36.48V49c0,.33,0,.33.4.33h.7a4.48,4.48,0,0,0,1-.07c.14,0,.23-.12.29-.42l.1-.49a.24.24,0,0,1,.31,0c0,.29,0,.75,0,1.21s0,.89,0,1.15a.24.24,0,0,1-.31,0l-.11-.47a.51.51,0,0,0-.37-.46,4,4,0,0,0-.92-.06h-.7c-.36,0-.4,0-.4.32V51.8c0,.63,0,1,.23,1.25s.4.28,1.45.28a3.51,3.51,0,0,0,1.54-.18,3,3,0,0,0,.85-1.16.22.22,0,0,1,.3.08,10.53,10.53,0,0,1-.54,1.67c-1.08,0-2.15,0-3.21,0h-1.08c-.52,0-.92,0-1.63,0a.23.23,0,0,1,0-.3l.4,0c.68-.06.74-.24.74-1.5Z"/><path class="cls-1" d="M202.67,53.41a1.87,1.87,0,0,1-1.56,1.74.2.2,0,0,1-.07-.29c.37-.12,1-.42,1-1s-.58-.64-.68-.7a.36.36,0,0,1-.2-.35.54.54,0,0,1,.59-.54A1.06,1.06,0,0,1,202.67,53.41Z"/><path class="cls-1" d="M210.24,51.9c0,1.26,0,1.44.72,1.5l.38,0c.07,0,0,.26,0,.3-.68,0-1.09,0-1.57,0s-.9,0-1.67,0a.21.21,0,0,1,0-.3l.43,0c.68-.06.74-.24.74-1.5V46.54c0-.37,0-.38-.36-.38h-.66a2.46,2.46,0,0,0-1.48.3,2.19,2.19,0,0,0-.54.83.23.23,0,0,1-.31-.08,12.72,12.72,0,0,0,.46-1.79.3.3,0,0,1,.23,0c.07.38.47.37,1,.37h4.86c.65,0,.76,0,.94-.33.06,0,.19,0,.22,0a7.26,7.26,0,0,0-.18,1.82.23.23,0,0,1-.31,0c0-.3-.12-.74-.3-.88a2.39,2.39,0,0,0-1.39-.3h-.85c-.36,0-.35,0-.35.41Z"/><path class="cls-1" d="M217.85,50.92c-.08-.26-.13-.3-.49-.3h-1.81c-.3,0-.37,0-.45.29l-.42,1.26a4.6,4.6,0,0,0-.26,1c0,.14.06.22.35.24l.4,0a.19.19,0,0,1,0,.3c-.31,0-.68,0-1.25,0-.4,0-.83,0-1.15,0a.24.24,0,0,1,0-.3l.4,0a.8.8,0,0,0,.72-.59c.22-.55.55-1.33,1.06-2.67l1.22-3.24a1.72,1.72,0,0,0,.2-.85,1.34,1.34,0,0,0,.62-.46.17.17,0,0,1,.18.11c.16.53.35,1.08.53,1.61l1.64,4.82c.35,1,.5,1.21,1,1.27l.32,0a.23.23,0,0,1,0,.3c-.49,0-.91,0-1.45,0s-1,0-1.38,0a.2.2,0,0,1,0-.3l.35,0c.25,0,.42-.1.42-.22a2.47,2.47,0,0,0-.16-.64Zm-2.37-1.07c-.1.28-.08.29.25.29h1.47c.35,0,.37,0,.26-.37l-.65-2c-.1-.29-.2-.61-.28-.76h0a7.34,7.34,0,0,0-.29.71Z"/><path class="cls-1" d="M222,47.61c0-1.27,0-1.47-.73-1.54l-.3,0c-.07,0,0-.26,0-.3.6,0,1,0,1.51,0s.89,0,1.49,0c.07,0,.1.25,0,.3l-.3,0c-.71.06-.73.26-.73,1.54v4.27c0,1.27,0,1.44.73,1.52l.3,0c.07,0,0,.26,0,.3-.6,0-1,0-1.49,0s-.91,0-1.51,0a.23.23,0,0,1,0-.3l.3,0c.71-.08.73-.25.73-1.52Z"/><path class="cls-1" d="M224.46,46a.2.2,0,0,1,0-.29c.32,0,.86,0,1.24,0s.95,0,1.37,0c.11,0,.1.2,0,.29l-.28,0c-.25,0-.4.1-.4.2a9.71,9.71,0,0,0,.62,1.61c.67,1.5,1.38,3,2.08,4.47.29-.6.61-1.27.92-1.94a2.2,2.2,0,0,0,.19-.49,1,1,0,0,0-.1-.31c-.42-1-.86-1.92-1.32-2.88-.18-.37-.36-.62-.77-.66l-.29,0a.18.18,0,0,1,0-.29c.35,0,.8,0,1.28,0s1,0,1.32,0c.08,0,.1.19,0,.29l-.31,0c-.47,0-.48.12-.25.66s.59,1.34.92,2.09c.23-.47.44-.92.71-1.57.43-1,.37-1.15,0-1.17l-.36,0c-.08-.12-.06-.25,0-.29.32,0,.68,0,1.13,0s.87,0,1.15,0c.08,0,.1.19,0,.29l-.35,0c-.5,0-.72.58-1,1.07s-.76,1.49-.94,1.91a1,1,0,0,0-.11.29.9.9,0,0,0,.08.29c.41.92.83,1.82,1.22,2.73.37-.84.73-1.68,1.08-2.53.24-.58.88-2.17,1-2.39a7.22,7.22,0,0,0,.36-1.09c0-.17-.14-.26-.4-.28l-.35,0c-.1-.11-.08-.24,0-.29.46,0,.78,0,1.15,0s.8,0,1.12,0c.1,0,.11.19,0,.29l-.23,0c-.6.06-.71.42-1.43,2.09l-.87,2c-.53,1.22-1,2.4-1.5,3.68a.26.26,0,0,1-.14,0,.39.39,0,0,1-.17,0c-.38-1.07-1.08-2.57-1.45-3.41a36.78,36.78,0,0,0-1.5,3.41.26.26,0,0,1-.14,0,.49.49,0,0,1-.18,0c-.2-.5-.67-1.58-.83-1.93-.77-1.67-1.51-3.33-2.29-5-.23-.49-.37-.82-.87-.86Z"/><path class="cls-1" d="M240,50.92c-.08-.26-.13-.3-.49-.3h-1.81c-.3,0-.37,0-.46.29l-.42,1.26a4.6,4.6,0,0,0-.26,1c0,.14.06.22.35.24l.4,0a.19.19,0,0,1,0,.3c-.31,0-.68,0-1.25,0-.4,0-.83,0-1.15,0a.24.24,0,0,1,0-.3l.4,0a.8.8,0,0,0,.72-.59c.22-.55.55-1.33,1.06-2.67l1.22-3.24a1.72,1.72,0,0,0,.2-.85,1.34,1.34,0,0,0,.62-.46.17.17,0,0,1,.18.11c.16.53.35,1.08.53,1.61l1.64,4.82c.35,1,.5,1.21,1,1.27l.32,0a.23.23,0,0,1,0,.3c-.49,0-.91,0-1.45,0s-1,0-1.38,0a.2.2,0,0,1,0-.3l.35,0c.25,0,.42-.1.42-.22a2.47,2.47,0,0,0-.16-.64Zm-2.37-1.07c-.1.28-.08.29.25.29h1.47c.35,0,.37,0,.26-.37l-.65-2c-.1-.29-.2-.61-.28-.76h0a7.35,7.35,0,0,0-.29.71Z"/><path class="cls-1" d="M250.58,51.66c0,.36,0,1.79,0,2.1a.22.22,0,0,1-.23.13c-.14-.2-.49-.62-1.54-1.81l-2.78-3.17c-.32-.37-1.14-1.36-1.39-1.62h0a3.05,3.05,0,0,0-.06.78v2.61a9.39,9.39,0,0,0,.22,2.48c.07.13.31.2.61.23l.37,0a.22.22,0,0,1,0,.3c-.54,0-1,0-1.4,0s-.83,0-1.25,0a.22.22,0,0,1,0-.3l.32,0c.28,0,.47-.11.53-.24a11.58,11.58,0,0,0,.16-2.47V47.22a1.1,1.1,0,0,0-.26-.86,1.3,1.3,0,0,0-.74-.29l-.2,0a.21.21,0,0,1,0-.3c.5,0,1.14,0,1.35,0a4,4,0,0,0,.55,0,16.53,16.53,0,0,0,2.05,2.64L248,49.69c.83.92,1.41,1.59,2,2.17h0a1.21,1.21,0,0,0,0-.5V48.79a8.41,8.41,0,0,0-.24-2.48c-.07-.11-.26-.18-.74-.24l-.2,0c-.08-.07-.07-.26,0-.3.55,0,1,0,1.42,0s.83,0,1.24,0a.21.21,0,0,1,0,.3l-.17,0c-.38.06-.62.16-.67.25a9.66,9.66,0,0,0-.18,2.47Z"/></g></g></svg>