<svg xmlns="http://www.w3.org/2000/svg" viewBox="0 0 208.38 29.41"><defs><style>.cls-1{fill:#68afc1;}.cls-2{fill:#494342;}.cls-3{fill:#14537f;}.cls-4{fill:#727171;}.cls-5{fill:#b2c6bf;}.cls-6{fill:#a4c8db;}.cls-7,.cls-8{fill:#84a2b2;}.cls-8{fill-rule:evenodd;}.cls-9{fill:#9fa0a0;}</style></defs><title>資產 1</title><g id="圖層_2" data-name="圖層 2"><g id="圖層_1-2" data-name="圖層 1"><path class="cls-1" d="M39.41,17.31c.1-2.5.1-4.73,0-7.21a.23.23,0,0,0-.23-.22c-.7,0-1.42,0-2.11,0l-.47,0,0-1.63h8l0,1.63c-.53,0-1.74-.06-2.57-.06a.23.23,0,0,0-.23.22c0,2.15,0,5.37.08,7.2Z"/><path class="cls-2" d="M46.7,17.48c-2.17,0-2.36-1.51-2.38-1.81-.09-1.62,1.41-2,2.72-2.25.93-.21,1.74-.39,1.7-1.07,0-.49-.43-.78-1.09-.78a7.48,7.48,0,0,0-2.52.55l.12-1.2a12.82,12.82,0,0,1,3-.4c2.32,0,2.67.91,2.71,1.71,0,.11,0,.59,0,1.21,0,1.16,0,2.86,0,3.87H48.84c0-.8,0-1.61,0-2.39v-.54a.23.23,0,0,0-.13-.2l-.1,0a.23.23,0,0,0-.14,0,2.65,2.65,0,0,1-.67.27c-.64.2-1.44.45-1.4,1.18,0,.49.4.78,1,.78a2.27,2.27,0,0,0,.4,0l-.24,1A6.57,6.57,0,0,1,46.7,17.48Z"/><path class="cls-2" d="M53,17.31c.1-1.93.09-3.89,0-6.61h2.22c-.08,2.16,0,4.28.13,6.61Zm0-7.95,0-1.22h2.16V9.36Z"/><path class="cls-2" d="M63.58,17.31l-1.12-4a.23.23,0,0,0-.22-.17h0a.23.23,0,0,0-.22.17c-.28,1.16-.63,2.34-1,3.48l-.15.49H58.79l-.21-.58c-.7-2-1.43-4-2.22-6h2l1.26,4.15a.23.23,0,0,0,.22.16h0a.23.23,0,0,0,.22-.17l1.12-4.14h2.18l1.18,4.14a.23.23,0,0,0,.22.17h0a.23.23,0,0,0,.22-.17l1.13-4.14h1.95l-.52,1.46c-.6,1.68-1.22,3.42-1.8,5.15Z"/><path class="cls-2" d="M71,17.48c-2.17,0-2.36-1.51-2.38-1.81-.09-1.62,1.41-2,2.72-2.25.93-.21,1.74-.39,1.7-1.07,0-.49-.43-.78-1.09-.78a7.48,7.48,0,0,0-2.52.55l.12-1.2a12.82,12.82,0,0,1,3-.4c2.32,0,2.67.91,2.71,1.71,0,.11,0,.6,0,1.21,0,1.16,0,2.86,0,3.86H73.13c0-.8,0-1.61,0-2.39v-.54a.23.23,0,0,0-.13-.2l-.1,0a.23.23,0,0,0-.14,0,2.65,2.65,0,0,1-.67.27c-.64.2-1.44.45-1.4,1.18,0,.49.4.78,1,.78a2.27,2.27,0,0,0,.4,0l-.24,1A6.57,6.57,0,0,1,71,17.48Z"/><path class="cls-2" d="M82.38,17.31c0-.23,0-.46,0-.69,0-.91,0-1.86,0-2.79-.07-1.28-.73-1.55-1.28-1.55a1.54,1.54,0,0,0-1.5,1.34,18.65,18.65,0,0,0-.14,3.69H77.25c.14-2.38.09-4.76,0-6.61h2.16v.69a.23.23,0,0,0,.07.17l0,0a.23.23,0,0,0,.16.07h0a.23.23,0,0,0,.17-.1,2.51,2.51,0,0,1,2.28-1c1.5,0,2.29.69,2.36,2,0,.12,0,.49,0,1,0,1,0,2.58.05,3.77Z"/><path class="cls-3" d="M88.23,17.31c.08-1.62.09-5.61-.08-9h6.51V9.9c-.68,0-1.37,0-2,0H90.78a.23.23,0,0,0-.23.23l0,1.66a.23.23,0,0,0,.23.22H94l0,1.59c-.51,0-1,0-1.52,0H90.81a.23.23,0,0,0-.23.23l.11,3.51Z"/><path class="cls-2" d="M95.36,17.31c.1-1.93.09-3.89,0-6.61h2.22c-.08,2.16,0,4.28.13,6.61Zm0-7.95,0-1.22h2.16V9.36Z"/><path class="cls-2" d="M98.6,17.31c.08-2.8.07-5.75,0-9h2.22c-.05,1.74-.07,6.48,0,9Z"/><path class="cls-2" d="M110.66,17.31c0-.89,0-3.21,0-3.89,0-.32-.07-1.28-1-1.28-.37,0-1,.19-1.13,1.5a19.66,19.66,0,0,0,0,2.57c0,.36,0,.74,0,1.1h-2.16c0-1.12,0-3.71,0-3.95-.05-1-.56-1.22-1-1.22-1,0-1.09,1.21-1.12,1.61a22,22,0,0,0,0,2.77c0,.26,0,.53,0,.79h-2.17c0-2.18,0-4.4-.07-6.61h2v.68a.23.23,0,0,0,.15.21h.08a.23.23,0,0,0,.17-.08l0,0,0,0a2,2,0,0,1,1.88-.94,1.89,1.89,0,0,1,1.87,1,.23.23,0,0,0,.2.12h0a.23.23,0,0,0,.2-.12,2,2,0,0,1,2-1,1.82,1.82,0,0,1,2.09,1.7c0,.12,0,.55,0,1.1,0,1,0,2.57,0,4Z"/><path class="cls-4" d="M39.43,25.08v-.49c0-1.52,0-3.09-.06-5.15h1.52c0,1.79,0,3.64.08,5.64Z"/><path class="cls-2" d="M47.15,25.08c0-.61,0-1.31,0-2.06s0-1.44,0-2H48v.58a.16.16,0,0,0,.11.15h0a.16.16,0,0,0,.13-.07,2.88,2.88,0,0,1,.2-.29A1.23,1.23,0,0,1,49,21a2,2,0,0,1,.35-.1,2.28,2.28,0,0,1,.42,0,2.43,2.43,0,0,1,.67.09,1.15,1.15,0,0,1,.5.27,1,1,0,0,1,.26.4,2,2,0,0,1,.09.5q0,.11,0,.37v1.9q0,.32,0,.68h-.87c0-.26,0-.64,0-1.16s0-1,0-1.26a1.45,1.45,0,0,0-.15-.62.9.9,0,0,0-.41-.38,1.23,1.23,0,0,0-.54-.12,1.21,1.21,0,0,0-.53.12,1.14,1.14,0,0,0-.41.34,1.47,1.47,0,0,0-.26.54,4.78,4.78,0,0,0-.09,1c0,.38,0,.89,0,1.51h-.89Z"/><path class="cls-2" d="M58.65,25.18a5.33,5.33,0,0,1-.59,0,5.6,5.6,0,0,1-.65-.12l-.09-.59a3.89,3.89,0,0,0,.47.15,2.43,2.43,0,0,0,.56.07,1.31,1.31,0,0,0,.45-.07.6.6,0,0,0,.31-.24A.56.56,0,0,0,59.2,24a.69.69,0,0,0,0-.14.6.6,0,0,0-.06-.14L59,23.63l-.12-.12-.2-.16-.23-.18L58,22.75a2,2,0,0,1-.28-.29,1.18,1.18,0,0,1-.17-.3,1,1,0,0,1-.07-.31.9.9,0,0,1,.13-.52A.82.82,0,0,1,58,21a2.15,2.15,0,0,1,.77-.12,6.54,6.54,0,0,1,1.12.11l.06.54a2.45,2.45,0,0,0-.75-.13,1.71,1.71,0,0,0-.46.06.6.6,0,0,0-.34.21.51.51,0,0,0-.1.33.62.62,0,0,0,0,.2.72.72,0,0,0,.12.19,1.35,1.35,0,0,0,.17.17l.36.28.47.37a2.09,2.09,0,0,1,.31.31,1.28,1.28,0,0,1,.19.32,1.07,1.07,0,0,1,.08.34.85.85,0,0,1-.14.51,1,1,0,0,1-.48.37A2.07,2.07,0,0,1,58.65,25.18Z"/><path class="cls-2" d="M67.55,25.18a2.16,2.16,0,0,1-.52-.06.75.75,0,0,1-.34-.18.68.68,0,0,1-.19-.3,1.51,1.51,0,0,1-.07-.39s0-.08,0-.15,0-2.43,0-2.43a.16.16,0,0,0-.16-.16h-.44c0-.14,0-.31,0-.53h.47a.16.16,0,0,0,.16-.15c0-.15,0-.39,0-.74l.36-.07.4-.1c0,.32,0,.62,0,.91a.16.16,0,0,0,.16.15h.9c0,.21,0,.39,0,.53h-.9a.16.16,0,0,0-.16.16c0,1.18,0,1.87,0,2.06a1.39,1.39,0,0,0,.09.47.57.57,0,0,0,.26.29.75.75,0,0,0,.34.08l.24,0,.18,0c0,.14,0,.33-.07.55l-.42.08Z"/><path class="cls-2" d="M74.29,25.08c0-.36,0-.68,0-.93,0-.46,0-1,0-1.61s0-1.07,0-1.57h.89q0,.67,0,1.29c0,.46,0,1,0,1.58s0,.92,0,1.24h-.93Zm-.05-5.19q0-.31,0-.51h.89s0,.51,0,.51h-.88Z"/><path class="cls-2" d="M82.83,25.18a2.16,2.16,0,0,1-.52-.06.75.75,0,0,1-.34-.18.68.68,0,0,1-.19-.3,1.51,1.51,0,0,1-.07-.39s0-.08,0-.15,0-2.43,0-2.43a.16.16,0,0,0-.16-.16h-.44c0-.14,0-.31,0-.53h.47a.16.16,0,0,0,.16-.15c0-.15,0-.39,0-.74l.36-.07.4-.1c0,.32,0,.62,0,.91a.16.16,0,0,0,.16.15h.9c0,.21,0,.39,0,.53h-.9a.16.16,0,0,0-.16.16c0,1.18,0,1.87,0,2.06a1.39,1.39,0,0,0,.09.47.57.57,0,0,0,.26.29.75.75,0,0,0,.34.08l.24,0,.18,0c0,.14,0,.33-.07.55l-.42.08Z"/><path class="cls-2" d="M91,25.18a2,2,0,0,1-.76-.13,1.15,1.15,0,0,1-.5-.38,1.34,1.34,0,0,1-.21-.74V21.25c0-.08,0-.18,0-.28h.87l0,1.82c0,.16,0,.29,0,.39s0,.19,0,.24a1.52,1.52,0,0,0,.13.58.83.83,0,0,0,.4.39,1.26,1.26,0,0,0,.55.12A1.23,1.23,0,0,0,92,24.4a1.05,1.05,0,0,0,.38-.29,1.37,1.37,0,0,0,.24-.48,2.41,2.41,0,0,0,.09-.57c0-.16,0-.44,0-.83s0-.85,0-1.27h.86q0,.58,0,1.4t0,1.55q0,.54,0,1.17h-.8l0-.57a.16.16,0,0,0-.12-.15h0a.16.16,0,0,0-.14.08,3.27,3.27,0,0,1-.18.28,1.05,1.05,0,0,1-.45.33,2.1,2.1,0,0,1-.35.1A2.21,2.21,0,0,1,91,25.18Z"/><path class="cls-2" d="M101.15,25.18a2.16,2.16,0,0,1-.52-.06.75.75,0,0,1-.34-.18.68.68,0,0,1-.19-.3,1.51,1.51,0,0,1-.07-.39s0-.08,0-.15,0-2.43,0-2.43a.16.16,0,0,0-.16-.16h-.44c0-.14,0-.31,0-.53h.47a.16.16,0,0,0,.16-.15c0-.15,0-.39,0-.74l.36-.07.4-.1c0,.32,0,.62,0,.91A.16.16,0,0,0,101,21h.9c0,.21,0,.39,0,.53H101a.16.16,0,0,0-.16.16c0,1.18,0,1.87,0,2.06a1.39,1.39,0,0,0,.09.47.57.57,0,0,0,.26.29.75.75,0,0,0,.34.08l.24,0,.18,0c0,.14,0,.33-.07.55l-.42.08Z"/><path class="cls-2" d="M110,25.18a3.76,3.76,0,0,1-.94-.11,1.7,1.7,0,0,1-.71-.38,1.8,1.8,0,0,1-.47-.68,2.72,2.72,0,0,1-.19-.87,2.88,2.88,0,0,1,.12-1,1.88,1.88,0,0,1,.42-.76,1.55,1.55,0,0,1,.64-.41,2.56,2.56,0,0,1,.8-.12,2.79,2.79,0,0,1,.77.1,1.46,1.46,0,0,1,.6.33,1.68,1.68,0,0,1,.39.56,2.07,2.07,0,0,1,.17.73,2,2,0,0,1,0,.26h-2.9a.16.16,0,0,0-.16.16q0,.17,0,.27a1.66,1.66,0,0,0,.14.59,1.36,1.36,0,0,0,.34.47,1.37,1.37,0,0,0,.51.28,1.83,1.83,0,0,0,.55.09,3.35,3.35,0,0,0,.65-.07,5.4,5.4,0,0,0,.56-.15c0,.15,0,.34-.06.57-.24.05-.45.09-.62.11A5.3,5.3,0,0,1,110,25.18Zm-.29-3.91a1.17,1.17,0,0,0-.39.07,1.1,1.1,0,0,0-.34.19,1.06,1.06,0,0,0-.24.28,1.28,1.28,0,0,0-.13.29,2.87,2.87,0,0,0-.07.35.16.16,0,0,0,.15.18h1.94a.16.16,0,0,0,.16-.16,2.86,2.86,0,0,0,0-.33,1.36,1.36,0,0,0-.08-.26,1,1,0,0,0-.15-.27.93.93,0,0,0-.22-.2,1,1,0,0,0-.28-.12A1.27,1.27,0,0,0,109.68,21.28Z"/><rect class="cls-1" x="18.6" y="-1.83" width="6.45" height="18.03" rx="0.32" ry="0.32" transform="translate(4.69 22.49) rotate(-60)"/><rect class="cls-3" x="7.02" y="9.46" width="10.96" height="8.31" rx="0.32" ry="0.32" transform="translate(-5.54 17.63) rotate(-60)"/><path class="cls-5" d="M27,15.65l-6.64-3.84a.32.32,0,0,0-.44.12l-5.16,8.94a.32.32,0,0,0,.12.44l6,3.46H0v.42H21.66a.32.32,0,0,0,.28-.15l5.16-8.94A.32.32,0,0,0,27,15.65Z"/><path d="M198.61,15l.13,7,0,1.31,0,1,7.1,5,2.49-12.18Zm4.87,1.78.75.18L204,18.05l-.75-.18Zm-1.37-.33.75.18-.22,1.08-.75-.18Zm-2.73-.66.75.18-.22,1.08-.75-.18Zm.62,8.33-.66-.43.52-.94.66.43Zm.74-8,.75.18-.22,1.08-.75-.18Zm.45,8.79-.66-.43.52-.94.66.43Zm1.2.79-.66-.43.52-.94.66.43Zm1.2.79-.66-.43.52-.94.66.43Zm1.2.79-.66-.43.52-.94.66.43Zm.59-8.92-.75-.18.22-1.08.75.18Zm.62.15.22-1.08.75.18-.22,1.08Z"/><polygon class="cls-6" points="192.4 6.29 179.68 6.29 181.73 7.61 191 7.61 191 11.41 192.4 11.35 192.4 6.29"/><polygon class="cls-6" points="185.81 23.42 185.81 24.74 192.4 24.74 192.4 24.47 189.66 23.42 185.81 23.42"/><polygon class="cls-6" points="191 22.27 191 22.7 191.82 22.98 192.2 21.64 191.28 21.32 191 22.27"/><polygon class="cls-6" points="191.58 12.22 191 12.23 191 13.63 191.61 13.62 191.58 12.22"/><polygon class="cls-6" points="185.81 20.92 185.84 20.93 185.84 20.82 185.81 20.92"/><path class="cls-6" d="M179.68,6.29V23.48l6.15,4V10.25ZM184.75,19c-.18,0-.32-.23-.32-.51s.14-.51.32-.51.32.23.32.51S184.92,19,184.75,19Z"/><path class="cls-7" d="M198.54,11.1l-6.14.25-1.4.06-5.17.21v.75h.41l0,1.4h-.44v7l.35-1.24.93.32-.38,1.34-.9-.31v1l3.82,1.47,2.74,1.05,6.44,2.47Zm-11.45,2.64,0-1.4,1,0,0,1.4Zm1.35,8.08-.93-.32.38-1.34.93.32Zm.4-9.53,1,0,0,1.4-1,0Zm1.3,10.11-.93-.32.38-1.34.93.32Zm.48-10.15h.4l.57,0,0,1.4-.6,0h-.37ZM191.82,23,191,22.7l-.11,0,.11-.39.27-.95.93.32Zm.58-9.84,0-.95h0l1,0,0,1.4-1,0Zm1.11,10.42-.93-.32L193,21.9l.93.32Zm.64-11.41,1,0,0,1.4-1,0Zm1.06,12-.93-.32.38-1.34.93.32Zm.72-12,1,0,0,1.4-1,0Zm1,12.62L196,24.4l.38-1.34.93.32Z"/><path class="cls-7" d="M143.86,6.12a.49.49,0,0,0-.4-.25h-.14a.49.49,0,0,0-.4.25l-3.08,6.46a.16.16,0,0,0,.16.25h.93a.47.47,0,0,0,.39-.26l.4-.9a.47.47,0,0,1,.39-.26h2.55a.47.47,0,0,1,.4.26l.4.9a.47.47,0,0,0,.4.26h.93a.16.16,0,0,0,.16-.25Zm.3,4.12h-1.54a.17.17,0,0,1-.16-.26l.81-1.79c.06-.14.17-.14.23,0l.82,1.79A.17.17,0,0,1,144.16,10.24Z"/><path class="cls-7" d="M149.08,5.86h-.86a.28.28,0,0,0-.28.28v6.4a.28.28,0,0,0,.28.28h.86a.28.28,0,0,0,.28-.28V6.14A.28.28,0,0,0,149.08,5.86Z"/><path class="cls-7" d="M160.61,5.86h-1a.44.44,0,0,0-.38.26l-1.37,3.7c-.05.15-.15.15-.21,0L156,6.12a.47.47,0,0,0-.4-.26h0a.48.48,0,0,0-.4.26l-1.68,3.71c-.06.14-.16.14-.21,0l-1.37-3.7a.44.44,0,0,0-.38-.26h-1a.18.18,0,0,0-.18.26l2.54,6.44a.45.45,0,0,0,.38.26h0a.46.46,0,0,0,.39-.26l1.74-4.06c.06-.14.16-.14.22,0l1.75,4.06a.47.47,0,0,0,.39.26h0a.45.45,0,0,0,.38-.26l2.53-6.44A.18.18,0,0,0,160.61,5.86Z"/><path class="cls-7" d="M164,6.12a.49.49,0,0,0-.4-.25h-.14a.49.49,0,0,0-.4.25L160,12.57a.16.16,0,0,0,.16.25h.93a.47.47,0,0,0,.39-.26l.4-.9a.47.47,0,0,1,.39-.26h2.55a.47.47,0,0,1,.4.26l.4.9a.47.47,0,0,0,.4.26h.93a.16.16,0,0,0,.16-.25Zm.3,4.12h-1.54a.17.17,0,0,1-.16-.26l.81-1.79c.06-.14.17-.14.23,0l.82,1.79A.17.17,0,0,1,164.32,10.24Z"/><path class="cls-7" d="M174,5.86h-.86a.28.28,0,0,0-.28.28V10c0,.15-.09.19-.19.08l-3.76-4a.75.75,0,0,0-.47-.2h-.13a.28.28,0,0,0-.28.28v6.4a.28.28,0,0,0,.28.28h.85a.28.28,0,0,0,.28-.28V8.72c0-.15.09-.19.19-.08l3.77,4a.75.75,0,0,0,.48.2H174a.28.28,0,0,0,.28-.28V6.14A.28.28,0,0,0,174,5.86Z"/><path class="cls-7" d="M139.9,5.86h-5.3a.28.28,0,0,0-.28.28v.66a.28.28,0,0,0,.28.28h1.65a.28.28,0,0,1,.28.28v5.18a.28.28,0,0,0,.28.28h.86a.28.28,0,0,0,.28-.28V7.37a.28.28,0,0,1,.28-.28h1.66a.28.28,0,0,0,.28-.28V6.14A.28.28,0,0,0,139.9,5.86Z"/><path class="cls-7" d="M164.82,21.29h0a.29.29,0,0,0-.36,0h0l0,0a3.23,3.23,0,0,1-2.34,1.07,3.16,3.16,0,0,1,0-6.32,2.83,2.83,0,0,1,2.38,1.11.26.26,0,0,0,.38,0l1.08-.92h0a.29.29,0,0,0,.06-.42h0a5.3,5.3,0,0,0-3.88-1.66,5.07,5.07,0,1,0,0,10.13,5,5,0,0,0,3.85-1.7.23.23,0,0,0,0-.38Z"/><path class="cls-7" d="M171.55,18.32c-1.49-.34-2.19-.63-2.19-1.33s.56-1.07,1.57-1.07a13,13,0,0,1,2.73.57.37.37,0,0,0,.42-.18l.54-1.07h0a.3.3,0,0,0-.16-.39h0a9.51,9.51,0,0,0-3.5-.68c-2.26,0-3.65,1.24-3.65,3,0,2,1.64,2.53,3.68,3,1.45.34,2.11.63,2.11,1.31s-.65,1.12-1.73,1.12a12.84,12.84,0,0,1-3.17-.66.34.34,0,0,0-.41.17l-.49,1.05h0a.29.29,0,0,0,.15.35h0a7.38,7.38,0,0,0,3.85.81c2.3,0,3.83-1.12,3.83-3S173.69,18.8,171.55,18.32Z"/><path class="cls-7" d="M138.8,14.29h-3.62a.3.3,0,0,0-.3.3v9.3a.3.3,0,0,0,.3.3h3.94a4.86,4.86,0,0,0,4.66-4.94A5,5,0,0,0,138.8,14.29Zm.15,8.06h-1.82a.3.3,0,0,1-.3-.3V16.43a.3.3,0,0,1,.3-.3h1.67a3.07,3.07,0,0,1,3,3.12A3,3,0,0,1,139,22.35Z"/><path class="cls-8" d="M150.3,14.28a5,5,0,1,0,5.2,5A5.11,5.11,0,0,0,150.3,14.28Zm0,8.36a3.34,3.34,0,1,1,3.46-3.34A3.4,3.4,0,0,1,150.3,22.64Z"/><rect class="cls-9" x="119.85" y="17.33" width="7.43" height="0.3" transform="translate(23.83 92.49) rotate(-45)"/><rect class="cls-9" x="123.42" y="13.76" width="0.3" height="7.43" transform="translate(23.83 92.49) rotate(-45)"/></g></g></svg>