<svg xmlns="http://www.w3.org/2000/svg" viewBox="0 0 608.69 244.74"><defs><style>.cls-1{fill:#ffc20c;}.cls-2,.cls-4{fill:#221e1f;}.cls-2,.cls-3{fill-rule:evenodd;}</style></defs><title>資產 1</title><g id="圖層_2" data-name="圖層 2"><g id="Layer_1" data-name="Layer 1"><path class="cls-1" d="M292.71,223.28a15.7,15.7,0,0,0-.43-3.07,7.7,7.7,0,0,0-1.3-2.83l-.06.06c-.26-.36-.52-.73-.77-1.12a3,3,0,0,0-1-.94l.36-.18v.05a.3.3,0,0,1-.28.1.75.75,0,0,1-.28-.12,1.84,1.84,0,0,1-.24-.2l-.22-.19a7.37,7.37,0,0,0-.9-.59,9.73,9.73,0,0,0-1.08-.52c-.38-.15-.76-.29-1.15-.4s-.74-.23-1.06-.31v-.15l-2.78-.4v-.06l-.32.12-.43-.28-.1.16-.72-.09.1-.15-.64.18-.79.16a4.85,4.85,0,0,1-.78.09,2.05,2.05,0,0,1-.67-.08v.06l-.65.06.06.08-.72.13,0-.06-.09.21a3.22,3.22,0,0,0-1.15.26,6.52,6.52,0,0,1-1.08.4v.15a4.07,4.07,0,0,0-1,.44l-.91.57a2.06,2.06,0,0,1-.46.42l-.52.37a3.88,3.88,0,0,0-.49.4,1.57,1.57,0,0,0-.36.48l-.17-.24-.1.63-.1-.06V217l-.52.18.07,0c-.07.09,0,.16.16.2l-.51.74a3.3,3.3,0,0,0-.37.8,19.44,19.44,0,0,0-.85,2.51,5.12,5.12,0,0,0,0,2.6h-.15a13.88,13.88,0,0,0,.71,3.52,25.5,25.5,0,0,0,1.45,3.32l-.29.15a.11.11,0,0,0,0,.14.1.1,0,0,0,.1.08.69.69,0,0,1,.57.18,4.11,4.11,0,0,1,.6.61q.3.36.58.77a7.44,7.44,0,0,0,.54.72l.07-.1,1.17,1.15-.09.06c.15-.15.25-.21.28-.18s0,.06,0,.13,0,.14,0,.2,0,0,.12-.06l.65.39-.07.09-.13.19.13-.19.07-.09.32.15.3.21,0,0,.52.21-.17.06c.15,0,.34.1.58.16s.45.15.68.23.45.17.65.27a1.87,1.87,0,0,1,.48.31c.09.08.1.15,0,.21l.11-.34.93.2a2.85,2.85,0,0,0,1,0,2.1,2.1,0,0,0,1.11.27,7.88,7.88,0,0,0,1.51-.16,12.35,12.35,0,0,0,1.67-.47c.57-.2,1.11-.41,1.65-.65s1-.46,1.45-.69.79-.43,1-.6l.33.13-.23.15.23.06-.17-.42L288,234l.1.06a1.43,1.43,0,0,0,.37-.36c.13-.15.26-.29.39-.43a2.63,2.63,0,0,1,.44-.37.7.7,0,0,1,.49-.12l-.39-.16a3.52,3.52,0,0,0,.61-.73c.19-.26.35-.52.51-.78s.34-.52.53-.77a5.4,5.4,0,0,1,.64-.71l-.07.09-.17-.15c.16-.36.32-.83.51-1.38s.34-1.15.47-1.75a13.83,13.83,0,0,0,.26-1.77,3.32,3.32,0,0,0-.13-1.41Z"/><path class="cls-1" d="M311.68,196.28a17.26,17.26,0,0,0-2.13-2.39,8.51,8.51,0,0,0-2.73-1.75l0,.08c-.43-.17-.86-.36-1.29-.56a3.16,3.16,0,0,0-1.38-.31l.2-.33,0,.05a.25.25,0,0,1-.18.21,1,1,0,0,1-.31,0l-.32-.05c-.1,0-.2,0-.29-.06a9.15,9.15,0,0,0-1.1-.06,9.69,9.69,0,0,0-1.22.11,11,11,0,0,0-1.2.21c-.39.09-.75.17-1.07.27l-.08-.13-2.58,1,0-.05-.2.26h-.52V193l-.67.28v-.17c-.11.13-.26.29-.43.47l-.57.53a5.62,5.62,0,0,1-.62.46,1.81,1.81,0,0,1-.61.27l0,.05-.53.37.11.05-.54.45v-.07l0,.24a2.57,2.57,0,0,0-.81.79,5.9,5.9,0,0,1-.69.87l.09.13a3.5,3.5,0,0,0-.6.87c-.14.32-.3.63-.45.93a2.34,2.34,0,0,1-.14.58c-.08.19-.16.38-.24.57a3.48,3.48,0,0,0-.19.58,1.47,1.47,0,0,0,0,.58l-.28-.12.28.59h-.12l.13.17-.34.41s0-.07,0-.08.09.15.26.1c0,.29,0,.58,0,.87a2.78,2.78,0,0,0,.14.87,19,19,0,0,0,.73,2.54,5.39,5.39,0,0,0,1.47,2.22l-.14.08a15.41,15.41,0,0,0,2.64,2.62,27.25,27.25,0,0,0,3.13,2.11l-.16.27a.11.11,0,0,0,0,.13.1.1,0,0,0,.13,0,.7.7,0,0,1,.59-.13,5.34,5.34,0,0,1,.86.22c.31.11.62.23.93.38a7.07,7.07,0,0,0,.87.33v-.11l1.66.39-.05.1c.05-.19.09-.29.13-.29s.08,0,.11.1a1.79,1.79,0,0,1,.08.19c0,.05,0,0,.06-.11h.79v0l.36,0,.37,0h0l.57-.07-.11.13.58-.14.71-.14a5.65,5.65,0,0,1,.71-.09,2.43,2.43,0,0,1,.58,0c.12,0,.17.08.15.17l-.11-.33.9-.29a2.79,2.79,0,0,0,.84-.43,2.2,2.2,0,0,0,1.1-.32,6.48,6.48,0,0,0,1.17-.88,10.85,10.85,0,0,0,1.14-1.21c.37-.45.71-.91,1-1.37s.6-.9.84-1.31.42-.74.54-1l.35-.05-.11.24.22-.06-.37-.28.13-.54H314a1.31,1.31,0,0,0,.12-.48,3.85,3.85,0,0,1,.08-.56,3,3,0,0,1,.16-.53.69.69,0,0,1,.35-.34l-.42.07a3.62,3.62,0,0,0,.11-.92c0-.3,0-.62,0-.91s0-.61,0-.91a4.71,4.71,0,0,1,.13-.92v.11l-.22,0c-.08-.38-.21-.87-.37-1.43a17.51,17.51,0,0,0-.61-1.72,13.13,13.13,0,0,0-.8-1.63,3.74,3.74,0,0,0-.92-1.13Z"/><path d="M263.18,212a14.3,14.3,0,0,1-7.16,2.22,11.94,11.94,0,1,1,0-23.87,12.54,12.54,0,0,1,6.68,1.88l0,.33c0,.38-.08,1.58-.24,3.6q-1.31-3.46-6.53-3.51a8.79,8.79,0,0,0-6.71,2.83,9.55,9.55,0,0,0-2.76,6.85,9.34,9.34,0,0,0,2.76,6.76,9.07,9.07,0,0,0,6.75,2.83,7.41,7.41,0,0,0,4.71-1.5v-6.77h-3c-.35,0-.67.26-1,.77a11.2,11.2,0,0,0-.62,1.2v-4.28h7Z"/><path d="M338,227.93a11.34,11.34,0,0,1-3.17,7.82,10.15,10.15,0,0,1-7.64,3.56h-9.37l0-.43q1.78-.28,1.78-1.2V218.31c0-.73-.59-1.15-1.78-1.24l-.24-.54h8.17a12.5,12.5,0,0,1,8.63,3.22A10.54,10.54,0,0,1,338,227.93Zm-2.45.14a9.2,9.2,0,0,0-1.51-5.09,7.87,7.87,0,0,0-4-3.27,10.09,10.09,0,0,0-2.55-.72h-5.38v18h5.09a7.76,7.76,0,0,0,5.91-2.84A8.81,8.81,0,0,0,335.58,228.07Z"/><path d="M261.45,221l-.43-.14a6.62,6.62,0,0,0-.29-1.46A1.09,1.09,0,0,0,260,219h-8.16v7h8.07c.3,0,.58-.26.87-.78s.34-.81.53-1.2l0,6.29a3.06,3.06,0,0,1-.53-1.15c-.22-.58-.51-.86-.86-.86h-8v10.8l-2.55,2.31V228.36a1.33,1.33,0,0,0-1.34.84,4.53,4.53,0,0,1-.47,1.13l-.05-6.29a1.91,1.91,0,0,1,.49,1,1.54,1.54,0,0,0,.91,1.06l.56-.15v-9.18h10.66c.29,0,.58-.27.87-.82.16-.38.33-.78.53-1.2Z"/><path d="M337.85,202.14a11.5,11.5,0,0,1-3.2,7.9,10.27,10.27,0,0,1-7.7,3.58h-9.44l0-.44c1.19-.19,1.8-.6,1.8-1.2V192.45c0-.74-.6-1.16-1.8-1.26l-.23-.53h8.23a12.52,12.52,0,0,1,8.69,3.24A10.59,10.59,0,0,1,337.85,202.14Zm-2.47.14a9.35,9.35,0,0,0-1.53-5.13,8,8,0,0,0-4-3.29,10.1,10.1,0,0,0-2.57-.72h-5.42v18.16H327a7.78,7.78,0,0,0,6-2.86A8.84,8.84,0,0,0,335.38,202.28Z"/><path class="cls-1" d="M292.56,202.34a16.11,16.11,0,0,0-.42-3.08,7.9,7.9,0,0,0-1.31-2.83l-.07.06c-.26-.37-.52-.74-.77-1.12a3,3,0,0,0-1-.94l.36-.18v.06a.29.29,0,0,1-.28.09.7.7,0,0,1-.28-.12,2,2,0,0,1-.25-.2l-.21-.19a8.5,8.5,0,0,0-.89-.6,9.67,9.67,0,0,0-1.09-.51c-.38-.15-.77-.29-1.15-.41s-.73-.22-1-.3v-.15l-2.79-.39v-.06l-.33.12-.42-.27-.1.15-.72-.09.1-.15c-.18.07-.39.12-.64.19l-.78.17a4.6,4.6,0,0,1-.78.09,1.78,1.78,0,0,1-.67-.07v.06l-.65.06.06.09-.72.12,0-.05-.09.21a3.1,3.1,0,0,0-1.14.27,6.52,6.52,0,0,1-1.08.4v.15a4.09,4.09,0,0,0-1,.44l-.91.57a2.43,2.43,0,0,1-.46.42l-.52.36a3.44,3.44,0,0,0-.49.39,1.51,1.51,0,0,0-.36.48l-.16-.25-.1.64-.1-.06v.21l-.52.18s.07,0,.07-.06,0,.17.16.21c-.18.23-.34.49-.51.74a3.38,3.38,0,0,0-.37.8,19.86,19.86,0,0,0-.84,2.51,5,5,0,0,0,0,2.61h-.16a13.64,13.64,0,0,0,.72,3.51,26.19,26.19,0,0,0,1.44,3.33l-.3.15a.14.14,0,0,0,0,.14c0,.05.05.08.1.08a.67.67,0,0,1,.57.17,3.85,3.85,0,0,1,.61.61c.19.24.39.5.57.78a8.21,8.21,0,0,0,.54.71l.07-.1,1.17,1.16-.1.06c.15-.14.24-.2.28-.18s0,.06,0,.13,0,.13,0,.19,0,0,.11-.06l.65.4-.06.08-.13.18.13-.18.06-.08.32.14.3.21,0,0,.52.21-.16.06.57.17.69.23c.22.08.44.18.65.28a2.07,2.07,0,0,1,.47.3c.09.08.1.15,0,.21l.1-.33.94.19a2.74,2.74,0,0,0,1,.05,2.08,2.08,0,0,0,1.11.27,7.26,7.26,0,0,0,1.5-.17,12.18,12.18,0,0,0,1.67-.46c.57-.2,1.12-.42,1.65-.65s1-.47,1.45-.7.79-.43,1-.58l.33.12-.23.15.23.06-.17-.42.42-.39.1.06a1.37,1.37,0,0,0,.37-.35,5.71,5.71,0,0,1,.39-.44,3.06,3.06,0,0,1,.44-.36.79.79,0,0,1,.5-.13l-.39-.14a4.15,4.15,0,0,0,.62-.73l.51-.78c.16-.27.34-.53.52-.77a5.1,5.1,0,0,1,.63-.72l-.06.09-.16-.15c.16-.36.32-.82.5-1.39a17.44,17.44,0,0,0,.48-1.75,13.06,13.06,0,0,0,.26-1.77,3.35,3.35,0,0,0-.13-1.41Z"/><path class="cls-1" d="M312.42,217.53a18.67,18.67,0,0,0-2.13-2.39,9.13,9.13,0,0,0-2.74-1.76l0,.09c-.43-.18-.86-.37-1.29-.57a3.35,3.35,0,0,0-1.39-.29l.2-.33,0,0a.26.26,0,0,1-.18.22.71.71,0,0,1-.3,0,2,2,0,0,1-.33,0l-.29-.07a8.83,8.83,0,0,0-1.1-.05,9.52,9.52,0,0,0-1.21.1c-.41.06-.81.13-1.2.22s-.75.17-1.07.26l-.09-.13-2.57,1,0-.05-.2.27-.52,0v.18l-.66.27v-.17c-.12.14-.26.29-.43.47l-.57.53a5.57,5.57,0,0,1-.62.46,1.89,1.89,0,0,1-.61.27l0,.06-.53.37.12,0-.54.46V217l0,.22a3,3,0,0,0-.82.8,5.32,5.32,0,0,1-.69.87l.09.13a3.58,3.58,0,0,0-.6.87c-.14.31-.29.62-.45.93a2,2,0,0,1-.15.58l-.23.56a4.82,4.82,0,0,0-.19.57,1.48,1.48,0,0,0,0,.59l-.28-.12.29.59H289l.12.17-.34.41s0-.07,0-.09.09.16.26.1c0,.29,0,.59,0,.88a3.67,3.67,0,0,0,.15.87,19.4,19.4,0,0,0,.72,2.54,5.41,5.41,0,0,0,1.47,2.22l-.14.08a15.16,15.16,0,0,0,2.63,2.62,27.7,27.7,0,0,0,3.13,2.11l-.16.27a.1.1,0,0,0,.05.13.12.12,0,0,0,.13,0,.68.68,0,0,1,.58-.13,4,4,0,0,1,.86.22c.31.1.62.23.93.36a7.53,7.53,0,0,0,.86.34v-.11L302,237l0,.1c0-.2.09-.3.13-.3s.07,0,.11.11.06.12.08.18,0,0,.06-.11h.78v0l.37,0,.37,0h0l.56-.07-.1.13.58-.14c.23-.06.47-.1.71-.14a6.49,6.49,0,0,1,.71-.1,1.84,1.84,0,0,1,.58,0c.12,0,.17.08.14.16l-.1-.33.9-.29a2.74,2.74,0,0,0,.85-.44,2.09,2.09,0,0,0,1.09-.31,6.61,6.61,0,0,0,1.17-.89,9.63,9.63,0,0,0,1.14-1.22c.36-.45.7-.9,1-1.36s.59-.9.83-1.31.41-.75.54-1l.35-.06-.11.24.22-.06-.38-.28.13-.54h.11a1.13,1.13,0,0,0,.12-.48,3.68,3.68,0,0,1,.09-.56,2,2,0,0,1,.17-.53.62.62,0,0,1,.34-.34l-.42.07a3.34,3.34,0,0,0,.11-.92c0-.31,0-.62,0-.92a8.36,8.36,0,0,1,0-.91,4.35,4.35,0,0,1,.13-.92v.11l-.22,0q-.12-.57-.37-1.43a18.17,18.17,0,0,0-.61-1.72,13.53,13.53,0,0,0-.79-1.63,3.9,3.9,0,0,0-.92-1.12Z"/><path d="M23.1,85.7c2.36,1.52,5.3-.5,7.07-2,5.3-7.07,17.08-2,25.32-2,11.78-5.55,25.91,2,36.51-6.56,4.71-8.58-7.07-12.62-12.37-17.67-3.53-5-11.78-11.11-18.85-11.11C49,54.41,64.92,61,67.27,68c-8.24,4-19.43,5-28.86,3.53C33.12,62,47.84,58.44,52.55,51.37l-2.36-6.06c-21.79-5-23,19.18-36.51,28.27C11.92,79.14,23.1,79.64,23.1,85.7Z"/><path d="M117.33,93.36c-1.77-3.53-6.48-8.08-11.19-10.09-10.6,1-5.3,12.62-14.72,16.15-22.38,1.52-48.29,3-70.08-4-7.66,2-14.13-7.07-21.2-.5C-.45,109,.73,123.14,6,135.77a14,14,0,0,0,11.19,3.53c24.73-5,55.36-4,81.86-4.54l7.07-3C107.9,118.6,120.27,108.51,117.33,93.36ZM91.42,127.18c-22.38,2.53-46.52,2.53-70.08,2.53-4.71-5-2.35-13.63-1.77-19.18C28.41,108,39,108,49,108.51c14.13,0,30.62-.51,45.34.5l1.18,2.52C94.36,116.58,98.48,124.66,91.42,127.18Z"/><path class="cls-2" d="M224.45,42.58a27.41,27.41,0,0,1-.86,11.64c8.14.84,10.77.24,19,.16,3.87-2.93,3.83-2.31,7.1-5.39,2,.28,2.42,1.86,3.68,2.76.17,4.19-1.49,3.67-3,8.15-2.66,3.27-3.83,1.78-6.29,3.77-5.26-.31-3,1.08-8.33.83-10.38-.49-28.66.17-31.67,0-4.66-.27-6.67-1.08-6.37-.81-.9-.44-2.43-3.68-2-7.16,5.89.81,15.89-1.66,22.29-2.65-1.88-2.6-2-8.66-3-12C217,42.94,221.33,39.5,224.45,42.58Z"/><path class="cls-3" d="M208.56,80.4l2.5-3.45c7.45-6.21,20.26-6.42,29.27.18-2.5,6.56-11.13,6.06-16.36,8.11-1-1.27-2.61-2.42-2.45-3.87C217,79.79,213.4,84,208.56,80.4Z"/><path d="M229.65,88.5C223,94,214.42,92.85,207,95.36c5.45,7.19,14.94,2,22.41,3.07,2.85-3.71,9.84.77,9.56-5.71C237.19,89,233.1,89,229.65,88.5Z"/><path d="M232,104.4c-4.42,2.32-11.73.14-14.08,4.5,2.4,3.84,7.89,2.26,12.4,3.46,3.13,2.77.28,6.48.38,10-3.35,3.05-8.1,3.57-12.12,3q-4.07-2.31-4.23-7.6c-.59-4.18-4.4-10.56-9.89-9,2.19,9.66-.2,22.8,10.08,28.89,1-15.67,14.92-2.05,22.11-7.5-.7-7.71,4.26-14.05,8.08-20.55C240.35,107.31,237.3,104,232,104.4Z"/><path d="M283.08,72.5c-4.24-.05-7.75-1.59-11.54-1.05-1.41-12.95-7.73,2.13-13.09,2.46-2.64,7.61,2.91,13.68,6.29,20-1.09,4.1-5.64,2.41-7.71,5.85-2,2.91-6.67,6-2.92,9.7a16.65,16.65,0,0,0,8.06,3.23c8.22,5.91,14.73-2.76,22.33-.12,4.44-5.24.68-12.66-.7-18.16A19.45,19.45,0,0,0,283.08,72.5ZM263.93,84.23a8.56,8.56,0,0,1,5.32-7.78c3.72,0,6,2.43,7.77,5.32C277,86,275.36,90,271.63,90.07,268,89.56,265,88.09,263.93,84.23Zm3.47,21.2c-1.49-.74-.76-2.23-.54-3.79,3.34-1.14,9.28-5.63,10.58.39C275.75,106.57,272.33,108.23,267.4,105.43Z"/><path d="M263.53,118.18c-1.17,4.62-1.29,9.39,2.6,12,7,6.81,3.25-4.34,7.71-5.85,4.24.05,3.08,4.68,5.4,7.12,4.84-.4,11.78,3.21,14.59-1.72-6.71-1.45-10.1-7.76-15.48-11.16C272.65,125.27,269.46,113.68,263.53,118.18Z"/><path d="M250.3,121.68c-.14,1,1.13,3.34,2.7,3.56,3-2.25.93-6.78.24-9.53C252.43,117.72,249.61,118.93,250.3,121.68Z"/><path d="M190.3,101.16c.71-2.74,3.61-4.8,5.92-6.34l-2.85-3.47c-5.64,3.57-12.77,8.45-18.81,2.82C169,84.4,184,85.24,187,80.4c-2.71-1.27-5.52-.86-10-1.11-6.87,3.51-17.63,6.81-16.49,16.33,5.64-1.36,6.93,5.39,9.55,8.32-3.61,4.8-9.34,7.83-13.44,11.49-2.47,4.31,6.19,8.69-1.24,12.17-2.37,2.65-3.73,7,.55,10,7.21.4,5.61-10.82,10.3-15,9.3,2.75-.25,14.45,6.22,18.15,11,2.28,1.18-11.06,4.85-17,2.89-2.07,6.13-.22,8.93-.61,1.45,4-4,2.55-3.15,6.5.37,3.36,3.61,5.21,6.93,5.39,2.84-1,2.44-3.76,3.7-6.47-8.32-10.48,10.26-4.43,6.38-14.67C197.63,109.37,195.75,103.14,190.3,101.16ZM187.52,111c-3.73,7-12.39,2.65-17.54,5.14-2.16-1.23.71-2.74.77-3.85,5.15-2.49,9.34-7.82,15-9.18C187.31,104.89,189.9,108.38,187.52,111Z"/><path d="M166.52,60.2l-6.37-5c-5.51,2.24-8.78-6.88-13.08-1.89.52,6.37-7.4,9.12-6.19,15.66.34,1.55,2.41,2.24,4.3,1.89,8.09-.34,16.18,1.2,23.06-3.79A8.75,8.75,0,0,0,166.52,60.2Z"/><path d="M131.7,90.57c-1.88,6.76.56,13.14.75,19.89.94,4.51-2.07,8.26.56,12.2,2.07,4.32-1.88,12.39,4.13,13.7,2.82-5.63,2.44-12.58,8.26-17.08-.94-6.95,2.63-12,3.38-18.39C145.59,94.32,138.08,92.44,131.7,90.57Z"/><path d="M158.35,161c-7.13,4.88-7.7,13.7-13.7,19.71-.94,3.19,1.31,5.07,2.06,7.51,2.82,5.07,5.44,10.7,11.64,11.64.19-7.7,1.88-17.27,1.31-25.34,2.44-5.26,1.5-11.82,2.63-17.64C160,155.88,158.54,159.26,158.35,161Z"/><path class="cls-4" d="M226,152c1.89-6.33,5.36-11.69,7.25-18.51-1.26-3.41-3.46-5.36-5.36-7.3-6.3-2.44-11.34,5.85-16.38,9.25.94,2.43,2.84.49,3.78,1.95,6,2.92,1.26,12.17,2.83,18.51-2.83,19.48-17.33,17.53-24.89,27.27l.63,1.46c7.56,7.3,16.38,2.92,23-5.36,2.52,7.3-2.84,12.66-3.47,19.48,1.26,2.92,3.15,4.87,5.36,3.89.94,4.38-.32,10.23-.32,14.61-2.52,7.79-5.67,20.45-12.92,20-.63,1.46-2.52,2-1.89,4.38,2.2,6.33,6.62,1,10.4,1,3.47-7.79,14.18-8.77,11.66-22.4,3.47-8.28,1.26-19-1.89-26.79,2.21-7.79,5.67-15.58,7.87-23.86,0-2.44,0-4.87-1.57-6.33-2.21-3.89-5.67-1.46-8.19-.49C220.68,158.86,224.47,155,226,152Z"/><path d="M373.33,97.72c-4.94-9,3.19-16.56,3.75-25.41-.87-3.53-2.89-4.23-5.08-6.73-3.73,1.71-5.8-5.08-10.12-2.18-7.44,3.65,2.64,9,2.15,14.91,2.33,7.67,1.88,15.84-1.59,22a19.33,19.33,0,0,1-12.28,1.18,9.87,9.87,0,0,1-11.26-1.17,74,74,0,0,1,9.64-34.1c1.65-3.09,6.34-4,4.79-9-2.6-6.75-9.2-3.63-13.19-2.79-5.18,14.26-5,30.72-8,45.68-1.2,9.59-9.37,5.64-14,8.58-5.55,1.21-13.1-3.7-17,3.22-1.24,3.73-3.63,8.25-1.25,12.76a10.58,10.58,0,0,0,6.69-2.22c7.32.65,11.36-7,19.17-5,3.45,4.63.84,10.53,1,15.71.11,2.92,2.84,3.79,4.66,4.29,4.25,5.46,11,6.16,13.17,13.63-5.93,8.24-13.28,12.79-20.59,17.78-2.45-1.57-5.59.76-8-.81a4.65,4.65,0,0,0-3.23,5.05,11.87,11.87,0,0,0,7.33,6.29c9.32-4.28,18.27-8.76,26.26-15.84,3.07-1.2,4.11-6.94,8.06-6.42,6.41,5.93,13.55,8.4,20.84,10.63,2-1.32,4.69-.9,5.77-4.39-1.07-3.73-3.94-2.33-6-3.48-4.16-6.37-10.66-7.78-16-11.78-2.38-4.51,0-8.8,1.25-12.76a111,111,0,0,1,8.33-29.24l9.75-1.62c2.27-4.06,8.23-2.82,7.84-8.65C381.64,97.6,378.42,97.23,373.33,97.72Zm-21.46,40c-3.32,4.16-7.47-2.21-11.35-2.06-5.25-3.11-4.56-10.62-4-16.09l.77-4.81c5.9-3,13.9-2.69,20-3.51l1.44,2.12C357.64,122.25,353.53,129.19,351.87,137.7Z"/><path d="M443.61,115c1.76-4.27-6.82,1.91-6,1.63-1.09.37-10.77,3.06-11,0,0,1.85-1.21,1.94-2.21,2a2.59,2.59,0,0,1-1.32-2.94c1.69-2.67.11-6,.87-8.9.67-2.52,2.31-3.33,3.1-5.64,1.7-4.94,7.06-22.47,5.85-27.53-.09-1.34-.43-3-1.72-2.24l0,0c-1.68,4.39-5.59-1-7.94,3-2.49-2.43-9.74-4.34-12.71-4-5.5.63-7.2,7-13.28,3.28-3.25,1.57-7.12,2.18-8.8,7,1,3.63-.93,5.78-1,8.81,0-5.23,4.08,6.73,3.23,5.56,4.09,5.62,10.62,8.46,14.47,14.25,2.25,3.38,6.16,5,6.86,10.12l-3,1.22c-1.66.67-34.79,1.16-33,5.32.93,2.13,1.43,4.44,2.78,6.2,1.83.54,3.83.41,5.5,2,2-1.82,4.14-4.83,6.5-1.65,1.26-2.8,10.1-2.5,12.67-2.54,1.94,3.74,4.23-.29,6.08-1.1,2.41,2.53,6.42,2.25,6.06,8.33-1.07.75-2.49,1.18-1.65,3.65,2.92,8.21-5.15,4.73-5.43,12-.81,15.9-31.46,7.33-35.9-1.26-3.43,1.51-6.53-.91-9.65-2.69-12.73,21.11,27.07,34.41,37.51,29.28,1-.52,2.18-2.84,3.42-3.55,3.3-1.89,6.76.26,10.23-2.45,4.15-3.24,6.36-8,11.74-8.59-1.29-2.79-1.81-31.24-.86-31.09l2.27.34c3.39-6.85,11.37-.73,14.45-4.53,2.16-2.67,7.41.5,7.43-5.73-1.76-2.74-3.51-5.48-5.28-8.38ZM391.7,84.1l.36-1.2c.44,0,.74,1,.9,1.62C392.51,84.54,392,84.75,391.7,84.1Zm22.79,20.62c-1.05-5.48-6.06-.25-5.87-7.16-.9-3.3-3.18-.62-4.39-2.05-1.81-3.57-7.12-4.21-5.81-9.52,2.06-1,4.2,4.08,5.45-.38,3.39-2.76,7.09,2.2,10-.7,2.37.34,4.76.85,7.13,1.19C418.31,92,418.15,99.42,414.49,104.72Z"/><path d="M608.5,157.09c-1.8-1.35-3.5-.39-3.32-3-2.86-.19-5.91-2-8.67-2.17-.34,2.11-.31,1-1.93,0-1.19.64-.33,1-1,1.46a3.48,3.48,0,0,0-.93-1.5c-.62,2.23-3.7-.79-4.87,1.37-1.22-3.07-5.38-1.06-8.66-2.67,1.44-.39-1.45-.42-.44-2-1.55-.64-.41,1.59-2,.94.08-2.59-3.81-2.66-5.75-2.6-.06-2.1-3.17-2.2-3.85-1.08-1-4.08-6.06-2.1-6.18-5.08a3.1,3.1,0,0,0-2.43.44c0-.63.64-.67.52-1.47-7.54-3.05-14.89-8.28-21.07-12.53-.27.32-2.67.5-2.37-.34,1.17.79,1.46-1.64.52-1.47-.14.69-1.08.54-1.47,1,.07-1.5-2.26-.64-2.35-3,.57-.06,1.37.12,1.46-.46a1.43,1.43,0,0,0-1.53-.18c.55-2.35-1.14-2.79-3.32-3l.09-.33c-1.4-.77-1.81.51-2.4-1,2.3,1-.7-.79.52-1.47-3.64-.86-6.52-4.45-9.4-6.63,4.38-1.37,8.1-.23,12.69-2.07,1.87,3.84,6.69,2.8,9.67,2.8.74-1.39,1.85-3.83.73-5.93-3.72-1.75-3.36-8-8.93-7.34-.75-4.89-2.24-7.68-2.25-12.57,5.94-4.18-.39-12.21,8.15-15-3-3.49-1.5-11.17-8.57-10.48-5.57,3.48-10.4,1.73-17.1,1.37-6.3,8-18.21,2.76-24.89,10.08-1.49-.35-3.35-1.4-4.83-1.05-1.48,6.63-1.46,13.61-1.83,20.24-2.22,5.58.76,12.91-2.57,18.14-3.34,3.48,1.87,4.54,2.24,7.68-3,8-.35,15-1.45,23,1.86,2.45,5.58,4.89,3.73,8.38l-2.23-2.1c-.74.7-.37,1.74-.37,2.44a4.84,4.84,0,0,1-5.95,1c-4.83,3.48-10.4,6.62-13.36,11.5-.74,2.79,2.61,2.45,4.47,2.8,2.6,0,3.71-2.79,4.82-4.53,1.86-.35,4.09,1.05,6.32.36,1.11-1.39,5.2,0,4.09-3.13,7.8-4.53,17.09-5.56,24.51-11.48,8.55,1.76,12.26-5.57,18.95-7.3,1.17-1.52,2.52-3,3.75-4.57,4.28,1.62,7.64,5,13.15,6.34-.17,3.47,6.57,2.48,5.7,5.07,7.21,3.72,12.27,8.07,22,10.37-.2,1.8,5.53,4.9,8.14,4.13,1.47,2,5.7,2.28,8.21,1.18-.5,2.68,5.28.11,5.74,3.09-.26-1.82,1.27,0,2.14-.58a1.06,1.06,0,0,1,.3-.35.9.9,0,0,1-.3.35c-.6,1.18,3.75,1.63,1.26.16,1.23.5,3.34,1.07,3.88-.4,2.93,3.29,5.75-1.29,10.17.24C609.6,159.33,607.94,158.76,608.5,157.09ZM502.81,72.39A31.08,31.08,0,0,1,521.39,70l2.23,2.44c-.37,3.49-2.59,6.28-3.7,9.42-4.45,4.88-12.64-2.46-15.23,4.87-4.83.34-8.17,4.52-13.38,1C487.21,78,500.22,78.67,502.81,72.39Zm-12.59,28.95c4.83-2.09,10-2.78,14.49-5.91a138.19,138.19,0,0,0,16.35-1.72c1.12,2.79.75,7-3,7.67-6.69-1.06-9.65,6.27-16,5.21-3,1-7.44-1.75-8.55,2.43-2.6,0-3.35-2.79-4.1-4.89C490.6,103.43,489.48,102,490.22,101.34Zm10.47,37c-5.95-1.05-10.4,4.52-15.6,5.91-1.12-.7-2.23-1.75-1.86-3.14,0-2.09,2.6-2.44,4.08-3.48,1.85-5.93-1.88-11.17,1.46-16.75,1.11-4.54,7.43-1.73,10.4-2.43,3.48-2.56,7.46-3.57,11.27-5a17.43,17.43,0,0,1,.19,2.88,14.43,14.43,0,0,1,2.59,1.88,1.67,1.67,0,0,0-.67,1.3,7.07,7.07,0,0,1,1.38.85l.13.11c2.76,2.34,2.26,6.18,2.59,9.51C513.7,138.71,504,130.67,500.69,138.34Zm36.83-11.51.43.3C538,127,537.92,126.93,537.51,126.83ZM562,123c3.48-3.58,8.9-4.84,13.53-7.44,3.88-2.91,10.45-3.18,12.43-7.39-.17-3.43-3.22-5.7-5.54-8.36-6.36-2.82-15.47-2.1-21.92.57,1.27,3.38,5,3.92,7.63,6.21l-6,11.58C561.42,119.58,560.06,121.7,562,123ZM491.21,48.28c5.42-4.51,9.73-10.11,14.78-15,4.11,2.95,9.41,3.43,13.52,6.73,6.49-1.28,11.71,2.77,17.35,5,7.86,4.82,14.52,12.46,23.19,15.51,7.2.52,11.59,7.76,19.62,5.45,2.67-.65,7.59.18,7.31-3.75-4.77-7.24-14.28-6.75-22.21-8.72-8.33-1.27-13.45-9.58-21-11.9-2.13-6.11-10.16-3.8-12.69-9.57-8,.17-6.21-10.48-14.2-10-1.1-1.81,1.22-3.54,2.4-5.29,1.62-4.24-.95-8.22-2.75-12.19C513.22.3,506.42-1.28,502.18,1.12c1.67,9.66-3,16.68-7.76,23.35-4.84,12-15.69,21.38-23.15,31.91-8.07,4.09-9.39,11.9-17.83,15.27-1.62,4.24-8.85,4.79-8.57,9.43,1.94-1.74,5-1.31,7.64-2,2.74-3.5,11-.46,10.8-6.88C472.61,64.25,480.79,55.52,491.21,48.28Z"/></g></g></svg>