<svg xmlns="http://www.w3.org/2000/svg" xmlns:xlink="http://www.w3.org/1999/xlink" viewBox="0 0 133.79 118.3"><defs><style>.cls-1{fill:none;}.cls-2{fill:#000e1f;}.cls-3{fill:#fff;}.cls-4{clip-path:url(#clip-path);}.cls-5{clip-path:url(#clip-path-3);}.cls-6{fill:url(#linear-gradient);}</style><clipPath id="clip-path"><rect class="cls-1" y="1.23" width="133.79" height="117.07"/></clipPath><clipPath id="clip-path-3"><path class="cls-1" d="M43.69,57.69h-6V79.28H55.88l2-4.91H43.69Zm14-25.18L50.31,19.08l7.09-8.15h-8l-6.29,8.16V10.93h-6V32.51h6V27.25l3.1-3.61,4.1,8.87ZM51,56l7.21-21.58H52.08L47.77,50,43.4,34.45H37.12L44.46,56Zm15.7,1.66-7.3,21.58h6.13l.95-3.56h6.82l1,3.56h6.29l-7.3-21.58Zm0-23.24L59.37,56h6.13l.94-3.56h6.82l1,3.56h6.29l-7.3-21.58Zm7.56-1.94h6.29l-7.3-21.58H66.68l-7.3,21.58h6.12l.95-3.56h6.81ZM101,79.28V57.69H95.38V69.63L88.07,57.69h-5.6V79.28h5.64V67.42l7.28,11.85Z"/></clipPath><linearGradient id="linear-gradient" x1="-57.76" y1="198.89" x2="-56.02" y2="198.89" gradientTransform="matrix(43, 0, 0, -43, 2515.53, 8596.98)" gradientUnits="userSpaceOnUse"><stop offset="0" stop-color="#c3a123"/><stop offset="0.5" stop-color="#f7f3b4"/><stop offset="1" stop-color="#caae64"/></linearGradient></defs><title>資產 1</title><g id="圖層_2" data-name="圖層 2"><g id="Ebene_1" data-name="Ebene 1"><rect class="cls-2" y="1.23" width="133.79" height="117.07"/><polygon class="cls-3" points="83.94 90.12 83.94 91.05 86.41 91.05 86.41 90.12 85.81 90.12 86.12 89.31 87.89 89.31 88.19 90.12 87.57 90.12 87.57 91.05 90.03 91.05 90.03 90.12 89.36 90.12 87.95 86.66 88.56 86.66 88.56 85.79 85.44 85.79 85.44 86.66 86.04 86.66 84.66 90.12 83.94 90.12"/><polygon class="cls-2" points="86.44 88.42 87.57 88.42 87.02 86.85 86.44 88.42"/><polygon class="cls-3" points="95.94 96.22 97.35 96.22 95.09 99.69 92.6 96.22 94.02 96.22 94.02 94.81 89.41 94.81 89.4 94.81 85 94.81 85 96.22 86.29 96.22 82.69 100.11 86.16 104.64 84.95 104.64 84.95 106.05 89.52 106.05 89.52 104.64 88.31 104.64 84.76 100.11 88.21 96.22 89.4 96.22 89.41 96.22 90.77 96.22 94.12 100.93 94.12 104.64 92.61 104.64 92.61 106.05 97.35 106.05 97.35 104.64 95.81 104.64 95.81 100.93 98.93 96.22 100.42 96.22 100.42 94.81 95.94 94.81 95.94 96.22"/><polygon class="cls-3" points="82.64 96.22 84.08 96.22 84.08 94.81 79.53 94.81 79.53 96.22 80.94 96.22 80.94 104.64 79.53 104.64 79.53 106.05 83.93 106.05 83.93 104.64 82.64 104.64 82.64 96.22"/><polygon class="cls-3" points="90.61 90.12 90.61 91.05 94.95 91.05 94.95 88.44 93.87 88.44 93.87 90.12 92.5 90.12 92.5 86.72 93.17 86.72 93.17 85.79 90.61 85.79 90.61 86.72 91.32 86.72 91.32 90.12 90.61 90.12"/><polygon class="cls-3" points="49.45 96.22 50.79 96.22 48.7 103.57 46.65 96.22 47.97 96.22 47.97 94.81 42.81 94.81 42.81 96.22 44.15 96.22 42.1 103.57 39.98 96.22 41.32 96.22 41.32 94.81 37.03 94.81 37.03 96.22 38.38 96.22 41.24 106.16 42.8 106.16 45.31 97.28 47.84 106.16 49.45 106.16 52.26 96.22 53.58 96.22 53.58 94.81 49.45 94.81 49.45 96.22"/><polygon class="cls-3" points="83.28 86.72 83.28 85.79 81.13 85.79 79.76 88.95 78.42 85.79 76.27 85.79 76.27 86.72 76.93 86.72 76.93 90.12 76.27 90.12 76.27 91.05 78.53 91.05 78.53 90.12 77.92 90.12 77.92 87.31 79.55 91.1 79.81 91.1 79.91 91.1 81.56 87.31 81.56 90.12 80.9 90.12 80.9 91.05 83.28 91.05 83.28 90.12 82.62 90.12 82.62 86.72 83.28 86.72"/><polygon class="cls-3" points="95.65 87.98 96.64 87.98 96.64 86.72 97.47 86.72 97.47 90.12 96.76 90.12 96.76 91.05 99.32 91.05 99.32 90.12 98.6 90.12 98.6 86.72 99.43 86.72 99.43 87.98 100.42 87.98 100.42 85.79 95.65 85.79 95.65 87.98"/><polygon class="cls-3" points="69.51 87.59 69.51 85.79 64.63 85.79 64.63 86.72 65.34 86.72 65.34 90.12 64.63 90.12 64.63 91.05 69.51 91.05 69.51 89.22 68.52 89.22 68.52 90.12 66.48 90.12 66.48 88.81 68.52 88.81 68.52 87.88 66.48 87.88 66.48 86.72 68.52 86.72 68.52 87.59 69.51 87.59"/><polygon class="cls-3" points="65.8 96.22 67.01 96.22 67.01 104.64 65.8 104.64 65.8 106.05 69.92 106.05 69.92 104.64 68.71 104.64 68.71 96.22 69.92 96.22 69.92 94.81 65.8 94.81 65.8 96.22"/><polygon class="cls-3" points="44.5 86.72 44.5 85.79 42.17 85.79 42.17 86.72 42.77 86.72 42.77 90.12 42.17 90.12 42.17 91.05 44.5 91.05 44.5 90.12 43.91 90.12 43.91 86.72 44.5 86.72"/><polygon class="cls-3" points="60.55 96.22 61.87 96.22 61.87 99.43 56.98 99.43 56.98 96.22 58.3 96.22 58.3 94.81 54.01 94.81 54.01 96.22 55.29 96.22 55.29 104.64 54.01 104.64 54.01 106.05 58.3 106.05 58.3 104.64 56.98 104.64 56.98 100.84 61.87 100.84 61.87 104.64 60.55 104.64 60.55 106.05 64.85 106.05 64.85 104.64 63.57 104.64 63.57 96.22 64.85 96.22 64.85 94.81 60.55 94.81 60.55 96.22"/><g class="cls-4"><path class="cls-3" d="M37.89,88.52a7,7,0,0,0,1.13.34,2.77,2.77,0,0,1,.81.29.41.41,0,0,1,.16.38.56.56,0,0,1-.22.47.92.92,0,0,1-.59.19,1.31,1.31,0,0,1-1.14-.7v-.55H37v2.11h1v-.27a2.21,2.21,0,0,0,1.2.34h0a2,2,0,0,0,1.33-.45,1.46,1.46,0,0,0,.55-1.16,1.54,1.54,0,0,0-.26-.89,1.57,1.57,0,0,0-.63-.54,6.91,6.91,0,0,0-1.08-.33c-.37-.09-.62-.15-.73-.19a.59.59,0,0,1-.24-.18.38.38,0,0,1-.09-.25.37.37,0,0,1,.18-.33,1,1,0,0,1,.59-.15,1.22,1.22,0,0,1,1,.47v.45h1V85.76h-1V86a2.27,2.27,0,0,0-1.07-.27,2,2,0,0,0-1.26.41A1.38,1.38,0,0,0,37,87.23a1.32,1.32,0,0,0,.24.78,1.55,1.55,0,0,0,.63.51"/><path class="cls-3" d="M77.08,100a12.12,12.12,0,0,0-2.16-.72,12.86,12.86,0,0,1-1.53-.45,1.46,1.46,0,0,1-.64-.5,1.33,1.33,0,0,1-.25-.8,1.3,1.3,0,0,1,.5-1,2.13,2.13,0,0,1,1.41-.42,2.71,2.71,0,0,1,2.38,1.3v.78h1.38V94.76H76.79v.75a4.07,4.07,0,0,0-2.5-.87,3.4,3.4,0,0,0-2.36.84,3,3,0,0,0,.65,4.86,13,13,0,0,0,2.24.76,5.65,5.65,0,0,1,1.77.7A1.34,1.34,0,0,1,77,103a1.7,1.7,0,0,1-.57,1.33,2.06,2.06,0,0,1-1.41.51A3,3,0,0,1,72.43,103v-1H71V106h1.41v-.93a4,4,0,0,0,2.76,1.11,3.56,3.56,0,0,0,2.51-.94,3.09,3.09,0,0,0,1-2.37,3.36,3.36,0,0,0-.48-1.8A3,3,0,0,0,77.08,100"/></g><polygon class="cls-3" points="59.45 90.12 59.45 91.05 63.79 91.05 63.79 88.44 62.71 88.44 62.71 90.12 61.33 90.12 61.33 86.72 62 86.72 62 85.79 59.45 85.79 59.45 86.72 60.16 86.72 60.16 90.12 59.45 90.12"/><g class="cls-4"><path class="cls-3" d="M55.38,86.68a2,2,0,0,1,1.07.29,1.72,1.72,0,0,1,.65.67l0,.09h1V85.79h-1v.41a3.2,3.2,0,0,0-1.77-.49,3,3,0,0,0-2.14.77,2.57,2.57,0,0,0-.8,1.92,2.68,2.68,0,0,0,.78,1.92,3.09,3.09,0,0,0,2.33.81h0a3.2,3.2,0,0,0,2.1-.66,2.21,2.21,0,0,0,.82-1.79c0-.05,0-.11,0-.18v-.15h-2.3v.93h1a1.15,1.15,0,0,1-.49.58,2,2,0,0,1-1.09.31,2,2,0,0,1-1.33-.48,1.62,1.62,0,0,1-.54-1.29,1.69,1.69,0,0,1,.48-1.22,1.72,1.72,0,0,1,1.31-.5"/></g><polygon class="cls-3" points="49.52 91.1 50.61 91.1 50.61 86.72 51.42 86.72 51.42 85.79 48.86 85.79 48.86 86.72 49.63 86.72 49.63 89.25 47.46 85.79 45.34 85.79 45.34 86.72 46.13 86.72 46.13 90.12 45.34 90.12 45.34 91.05 47.91 91.05 47.91 90.12 47.12 90.12 47.12 87.25 49.52 91.1"/><g class="cls-5"><rect class="cls-6" x="31.67" y="5.9" width="74.82" height="78.41" transform="translate(-6.78 12.68) rotate(-10)"/></g><polygon class="cls-2" points="69.72 64.72 71.86 72.48 67.59 72.48 69.72 64.72"/><polygon class="cls-2" points="69.73 41.48 71.88 49.24 67.61 49.24 69.73 41.48"/><polygon class="cls-2" points="69.73 17.95 71.88 25.71 67.61 25.71 69.73 17.95"/></g></g></svg>