<svg xmlns="http://www.w3.org/2000/svg" viewBox="0 0 123.54 142.65"><defs><style>.cls-1{fill:#c9a063;}</style></defs><title>資產 1</title><g id="圖層_2" data-name="圖層 2"><g id="圖層_1-2" data-name="圖層 1"><path class="cls-1" d="M.32,120a1.2,1.2,0,0,1-.32-.87V108.29a1.17,1.17,0,0,1,.32-.86,1.17,1.17,0,0,1,.86-.32,1.19,1.19,0,0,1,.88.32,1.17,1.17,0,0,1,.32.86v10.89a1.2,1.2,0,0,1-.32.87,1.17,1.17,0,0,1-.88.33A1.15,1.15,0,0,1,.32,120Z"/><path class="cls-1" d="M19,107.43a1.19,1.19,0,0,1,.32.86v11a1.1,1.1,0,0,1-.3.82,1.06,1.06,0,0,1-.78.3,1,1,0,0,1-.76-.3,1.14,1.14,0,0,1-.28-.82v-7.64l-3.15,6a1.85,1.85,0,0,1-.48.6,1,1,0,0,1-.61.19,1,1,0,0,1-.61-.19,1.7,1.7,0,0,1-.48-.61l-3.17-5.88v7.55a1.13,1.13,0,0,1-.29.81,1,1,0,0,1-.77.31,1,1,0,0,1-.76-.3,1.14,1.14,0,0,1-.28-.82v-11a1.21,1.21,0,0,1,.31-.86,1.08,1.08,0,0,1,.83-.32,1.25,1.25,0,0,1,1.13.8L13,115.74l4.1-7.84a1.23,1.23,0,0,1,1.09-.8A1.11,1.11,0,0,1,19,107.43Z"/><path class="cls-1" d="M23.91,120.05a1.19,1.19,0,0,1-.32-.88V108.32a1.11,1.11,0,0,1,.31-.83,1.16,1.16,0,0,1,.84-.3H29.3a4.72,4.72,0,0,1,3.26,1,4.29,4.29,0,0,1,0,5.89,4.69,4.69,0,0,1-3.26,1.06H26v4a1.12,1.12,0,0,1-1.21,1.21A1.17,1.17,0,0,1,23.91,120.05Zm5.09-6.7q2.47,0,2.47-2.15T29,109H26v4.3Z"/><path class="cls-1" d="M47.9,119.41a.87.87,0,0,1-.34.7,1.24,1.24,0,0,1-.81.28,1.2,1.2,0,0,1-1-.56l-2.47-3.75a2.41,2.41,0,0,0-.79-.83,2.16,2.16,0,0,0-1.08-.24H39.57v4.15a1.21,1.21,0,0,1-.31.88,1.14,1.14,0,0,1-.85.32,1.17,1.17,0,0,1-.86-.32,1.19,1.19,0,0,1-.32-.88V108.32a1.11,1.11,0,0,1,.31-.83,1.16,1.16,0,0,1,.84-.3H43a5.07,5.07,0,0,1,3.38,1,3.56,3.56,0,0,1,1.16,2.87,3.62,3.62,0,0,1-.86,2.49,4.09,4.09,0,0,1-2.44,1.25,2.35,2.35,0,0,1,.95.46,4.1,4.1,0,0,1,.8.93l1.69,2.58A1.17,1.17,0,0,1,47.9,119.41Zm-3.25-6.74a1.89,1.89,0,0,0,.63-1.57,1.87,1.87,0,0,0-.63-1.57,3.23,3.23,0,0,0-2-.49H39.55v4.13h3.12A3.14,3.14,0,0,0,44.65,112.67Z"/><path class="cls-1" d="M51.8,120a1.11,1.11,0,0,1-.31-.83V108.32a1.11,1.11,0,0,1,.31-.83,1.16,1.16,0,0,1,.84-.3h6.69a1.29,1.29,0,0,1,.83.24.83.83,0,0,1,.3.69.88.88,0,0,1-.3.71,1.26,1.26,0,0,1-.83.25H53.83v3.6H59a1.29,1.29,0,0,1,.83.24.86.86,0,0,1,.3.71.83.83,0,0,1-.3.69,1.29,1.29,0,0,1-.83.24H53.83v3.82h5.51a1.26,1.26,0,0,1,.83.25.88.88,0,0,1,.3.71.83.83,0,0,1-.3.69,1.29,1.29,0,0,1-.83.24H52.65A1.16,1.16,0,0,1,51.8,120Z"/><path class="cls-1" d="M65.45,120.05a6,6,0,0,1-2.07-1,1.13,1.13,0,0,1-.19-1.57.69.69,0,0,1,.55-.29,1.51,1.51,0,0,1,.76.26,5.56,5.56,0,0,0,1.67.83,6.71,6.71,0,0,0,1.93.26,3.79,3.79,0,0,0,2.08-.47,1.55,1.55,0,0,0,.72-1.38,1.19,1.19,0,0,0-.68-1.08,9,9,0,0,0-2.25-.73,13.34,13.34,0,0,1-2.65-.82,3.75,3.75,0,0,1-1.54-1.19,3.07,3.07,0,0,1-.52-1.84A3.45,3.45,0,0,1,63.9,109a4.28,4.28,0,0,1,1.81-1.42,7.17,7.17,0,0,1,6.93.9,1.43,1.43,0,0,1,.34.4,1.15,1.15,0,0,1-.13,1.17.69.69,0,0,1-.55.29,1,1,0,0,1-.34-.06,2.66,2.66,0,0,1-.42-.2,6.3,6.3,0,0,0-1.47-.83,5,5,0,0,0-1.75-.27,3.44,3.44,0,0,0-2,.51,1.63,1.63,0,0,0-.73,1.42,1.3,1.3,0,0,0,.65,1.17,7.61,7.61,0,0,0,2.21.76,14.75,14.75,0,0,1,2.68.83,4,4,0,0,1,1.58,1.16,2.79,2.79,0,0,1,.55,1.76,3.37,3.37,0,0,1-.64,2,4.17,4.17,0,0,1-1.8,1.37,6.78,6.78,0,0,1-2.66.49A9.38,9.38,0,0,1,65.45,120.05Z"/><path class="cls-1" d="M78.67,120.05a6,6,0,0,1-2.07-1,1.13,1.13,0,0,1-.2-1.57.69.69,0,0,1,.55-.29,1.51,1.51,0,0,1,.76.26,5.56,5.56,0,0,0,1.67.83,6.71,6.71,0,0,0,1.93.26,3.79,3.79,0,0,0,2.08-.47,1.55,1.55,0,0,0,.72-1.38,1.19,1.19,0,0,0-.68-1.08,9,9,0,0,0-2.25-.73,13.35,13.35,0,0,1-2.65-.82A3.75,3.75,0,0,1,77,112.85a3.08,3.08,0,0,1-.52-1.84,3.45,3.45,0,0,1,.65-2.06,4.28,4.28,0,0,1,1.81-1.42,7.17,7.17,0,0,1,6.93.9,1.43,1.43,0,0,1,.34.4,1.15,1.15,0,0,1-.13,1.17.69.69,0,0,1-.55.29,1,1,0,0,1-.34-.06,2.67,2.67,0,0,1-.42-.2,6.3,6.3,0,0,0-1.47-.83,5,5,0,0,0-1.75-.27,3.44,3.44,0,0,0-2,.51,1.63,1.63,0,0,0-.73,1.42,1.3,1.3,0,0,0,.65,1.17,7.6,7.6,0,0,0,2.21.76,14.75,14.75,0,0,1,2.68.83,4,4,0,0,1,1.58,1.16,2.79,2.79,0,0,1,.55,1.76,3.37,3.37,0,0,1-.64,2,4.17,4.17,0,0,1-1.8,1.37,6.78,6.78,0,0,1-2.66.49A9.38,9.38,0,0,1,78.67,120.05Z"/><path class="cls-1" d="M90.39,120a1.2,1.2,0,0,1-.32-.87V108.29a1.12,1.12,0,0,1,1.19-1.19,1.19,1.19,0,0,1,.88.32,1.17,1.17,0,0,1,.32.86v10.89a1.2,1.2,0,0,1-.32.87,1.17,1.17,0,0,1-.88.33A1.15,1.15,0,0,1,90.39,120Z"/><path class="cls-1" d="M99.18,119.62A5.45,5.45,0,0,1,97,117.28a8.75,8.75,0,0,1,0-7.11,5.39,5.39,0,0,1,2.16-2.33,7.14,7.14,0,0,1,6.63,0,5.41,5.41,0,0,1,2.15,2.33,8.75,8.75,0,0,1,0,7.11,5.46,5.46,0,0,1-2.16,2.34,7.08,7.08,0,0,1-6.6,0Zm6.12-2.34a6.76,6.76,0,0,0,0-7.11,3.84,3.84,0,0,0-5.64,0,6.76,6.76,0,0,0,0,7.11,3.82,3.82,0,0,0,5.64,0Z"/><path class="cls-1" d="M123.23,107.43a1.21,1.21,0,0,1,.31.86v10.89a1.22,1.22,0,0,1-.32.87,1.17,1.17,0,0,1-1.72-.09l-6.77-8.81v8a1.27,1.27,0,0,1-.3.87,1.16,1.16,0,0,1-1.63,0,1.26,1.26,0,0,1-.3-.87V108.29a1.18,1.18,0,0,1,.32-.86,1.11,1.11,0,0,1,.83-.32,1,1,0,0,1,.89.43l6.75,8.77v-8a1.21,1.21,0,0,1,.31-.86,1.06,1.06,0,0,1,.81-.32A1.08,1.08,0,0,1,123.23,107.43Z"/><path class="cls-1" d="M25.27,142.29a1.17,1.17,0,0,1-.32-.86v-10H21.57q-1.11,0-1.11-1t1.11-1h9.14q1.11,0,1.11,1t-1.11,1H27.33v10a1.12,1.12,0,0,1-1.19,1.19A1.19,1.19,0,0,1,25.27,142.29Z"/><path class="cls-1" d="M45,141.57a.92.92,0,0,1-.34.72,1.17,1.17,0,0,1-.79.3,1,1,0,0,1-1-.65l-1.11-2.48H35.23l-1.11,2.48a1.06,1.06,0,0,1-.41.49,1.09,1.09,0,0,1-.57.16,1.18,1.18,0,0,1-.78-.3.91.91,0,0,1-.35-.72,1.14,1.14,0,0,1,.11-.48l5.12-11a1.19,1.19,0,0,1,.51-.57,1.48,1.48,0,0,1,1.46,0,1.2,1.2,0,0,1,.51.57l5.14,11A1.14,1.14,0,0,1,45,141.57Zm-8.92-4h4.9L38.5,132.1Z"/><path class="cls-1" d="M48.48,142.3a1.2,1.2,0,0,1-.32-.87V130.54a1.12,1.12,0,0,1,1.19-1.19,1.19,1.19,0,0,1,.88.32,1.17,1.17,0,0,1,.32.86v10.89a1.2,1.2,0,0,1-.32.87,1.17,1.17,0,0,1-.88.33A1.15,1.15,0,0,1,48.48,142.3Z"/><path class="cls-1" d="M71.57,129.52a1.16,1.16,0,0,1,.64-.19,1.14,1.14,0,0,1,.77.28.93.93,0,0,1,.33.74,1.88,1.88,0,0,1-.09.48l-4,11a1.14,1.14,0,0,1-.49.58,1.45,1.45,0,0,1-.75.2,1.49,1.49,0,0,1-.76-.2,1,1,0,0,1-.48-.58l-3.08-8.73-3.13,8.73a1.15,1.15,0,0,1-.49.58,1.48,1.48,0,0,1-1.5,0,1.05,1.05,0,0,1-.47-.58l-4-11a1.55,1.55,0,0,1-.09-.48.91.91,0,0,1,.34-.74,1.3,1.3,0,0,1,1.47-.09,1,1,0,0,1,.43.56l3.15,9.07,3.25-9a1.18,1.18,0,0,1,.43-.58,1.09,1.09,0,0,1,.65-.21,1.13,1.13,0,0,1,.66.21,1.16,1.16,0,0,1,.44.6l3.15,9.1,3.21-9.18A1,1,0,0,1,71.57,129.52Z"/><path class="cls-1" d="M87.45,141.57a.92.92,0,0,1-.34.72,1.17,1.17,0,0,1-.79.3,1,1,0,0,1-1-.65l-1.11-2.48H77.72l-1.11,2.48a1.05,1.05,0,0,1-.41.49,1.09,1.09,0,0,1-.57.16,1.18,1.18,0,0,1-.78-.3.91.91,0,0,1-.35-.72,1.14,1.14,0,0,1,.11-.48l5.12-11a1.19,1.19,0,0,1,.51-.57,1.48,1.48,0,0,1,1.46,0,1.2,1.2,0,0,1,.51.57l5.14,11A1.14,1.14,0,0,1,87.45,141.57Zm-8.92-4h4.9L81,132.1Z"/><path class="cls-1" d="M101.37,129.68a1.21,1.21,0,0,1,.31.86v10.89a1.22,1.22,0,0,1-.32.87,1.07,1.07,0,0,1-.82.33,1.06,1.06,0,0,1-.91-.43l-6.77-8.81v8a1.26,1.26,0,0,1-.3.87,1.16,1.16,0,0,1-1.63,0,1.26,1.26,0,0,1-.3-.87V130.54a1.19,1.19,0,0,1,.32-.86,1.11,1.11,0,0,1,.83-.32,1,1,0,0,1,.89.43l6.75,8.77v-8a1.21,1.21,0,0,1,.31-.86,1.06,1.06,0,0,1,.81-.32A1.08,1.08,0,0,1,101.37,129.68Z"/><circle class="cls-1" cx="57.6" cy="26.16" r="1.04"/><circle class="cls-1" cx="62.65" cy="26.86" r="1.4"/><circle class="cls-1" cx="56.6" cy="61.12" r="1.4"/><circle class="cls-1" cx="69.55" cy="61.12" r="1.4"/><circle class="cls-1" cx="66.89" cy="26.16" r="1.04"/><circle class="cls-1" cx="62.65" cy="23.04" r="1.04"/><circle class="cls-1" cx="57.7" cy="22.92" r="1.04"/><circle class="cls-1" cx="53.49" cy="22.58" r="0.56"/><circle class="cls-1" cx="66.06" cy="22.82" r="0.56"/><circle class="cls-1" cx="56.78" cy="64.88" r="1.04"/><circle class="cls-1" cx="69.9" cy="65.81" r="1.04"/><circle class="cls-1" cx="28.52" cy="62.8" r="1.4"/><circle class="cls-1" cx="22.58" cy="41.32" r="1.04"/><circle class="cls-1" cx="67.45" cy="58.04" r="1.04"/><circle class="cls-1" cx="67.54" cy="53.27" r="1.04"/><circle class="cls-1" cx="100.62" cy="57.12" r="1.04"/><circle class="cls-1" cx="18.79" cy="36.84" r="0.56"/><circle class="cls-1" cx="59.61" cy="57.93" r="0.56"/><circle class="cls-1" cx="56.84" cy="68.37" r="0.56"/><circle class="cls-1" cx="70.44" cy="29.05" r="0.56"/><circle class="cls-1" cx="69.76" cy="63.72" r="0.56"/><circle class="cls-1" cx="19.63" cy="42.82" r="0.56"/><circle class="cls-1" cx="59.06" cy="54.18" r="0.56"/><circle class="cls-1" cx="70.34" cy="22.99" r="0.53"/><circle class="cls-1" cx="28.56" cy="49.17" r="0.53"/><circle class="cls-1" cx="28.37" cy="55.11" r="0.53"/><circle class="cls-1" cx="25.76" cy="55.11" r="0.53"/><circle class="cls-1" cx="70.34" cy="20.5" r="0.53"/><circle class="cls-1" cx="74.53" cy="20.5" r="0.53"/><circle class="cls-1" cx="74.53" cy="22.58" r="0.53"/><circle class="cls-1" cx="70.34" cy="26.23" r="1.04"/><circle class="cls-1" cx="62.65" cy="30.65" r="1.04"/><circle class="cls-1" cx="31.89" cy="45.79" r="0.94"/><circle class="cls-1" cx="70.34" cy="25.99" r="0.09"/><circle class="cls-1" cx="72.34" cy="63.43" r="0.94"/><circle class="cls-1" cx="115.17" cy="24.82" r="0.94"/><circle class="cls-1" cx="100.48" cy="44.62" r="0.94"/><circle class="cls-1" cx="100.48" cy="51.44" r="0.94"/><circle class="cls-1" cx="108.68" cy="87.23" r="1.04"/><circle class="cls-1" cx="24.05" cy="46.75" r="0.94"/><circle class="cls-1" cx="28.26" cy="52.32" r="0.94"/><circle class="cls-1" cx="28.37" cy="60.22" r="0.53"/><circle class="cls-1" cx="25.76" cy="60.22" r="0.53"/><circle class="cls-1" cx="28.26" cy="57.43" r="0.94"/><circle class="cls-1" cx="103.75" cy="44.65" r="0.94"/><circle class="cls-1" cx="103.75" cy="41.59" r="0.94"/><circle class="cls-1" cx="106.7" cy="41.59" r="0.94"/><circle class="cls-1" cx="106.37" cy="44.74" r="0.51"/><circle class="cls-1" cx="114.8" cy="28.03" r="0.94"/><circle class="cls-1" cx="28.6" cy="45.95" r="0.94"/><circle class="cls-1" cx="24.17" cy="50.04" r="0.94"/><circle class="cls-1" cx="111.76" cy="35.47" r="0.51"/><circle class="cls-1" cx="94.95" cy="45.24" r="0.51"/><circle class="cls-1" cx="100.52" cy="54.59" r="0.48"/><circle class="cls-1" cx="111.42" cy="87.37" r="0.48"/><circle class="cls-1" cx="100.52" cy="48.37" r="0.48"/><circle class="cls-1" cx="97.22" cy="47.84" r="0.94"/><circle class="cls-1" cx="18.79" cy="42.78" r="0.08"/><circle class="cls-1" cx="96.69" cy="47.69" r="0.08"/><circle class="cls-1" cx="8.02" cy="12.68" r="1.92"/><circle class="cls-1" cx="5.99" cy="7.96" r="1.06"/><circle class="cls-1" cx="9.09" cy="2.84" r="1.92"/><circle class="cls-1" cx="69.04" cy="39.79" r="2.86"/><circle class="cls-1" cx="69.04" cy="44.46" r="2.5"/><circle class="cls-1" cx="69.04" cy="49.14" r="2.14"/><circle class="cls-1" cx="75.06" cy="63.43" r="1.78"/><circle class="cls-1" cx="70.6" cy="52.85" r="1.06"/><circle class="cls-1" cx="96.97" cy="7.96" r="1.06"/><circle class="cls-1" cx="108.17" cy="30.51" r="1.06"/><circle class="cls-1" cx="102.81" cy="38.55" r="1.06"/><circle class="cls-1" cx="113.6" cy="20.79" r="1.06"/><circle class="cls-1" cx="80.89" cy="18.89" r="1.06"/><circle class="cls-1" cx="70.68" cy="31.77" r="0.77"/><circle class="cls-1" cx="86.88" cy="81.26" r="0.77"/><circle class="cls-1" cx="74.22" cy="30.44" r="2.57"/><circle class="cls-1" cx="78.9" cy="30.44" r="2.57"/><circle class="cls-1" cx="74.22" cy="35.12" r="2.79"/><circle class="cls-1" cx="78.9" cy="35.12" r="2.79"/><circle class="cls-1" cx="74.22" cy="39.79" r="2.77"/><circle class="cls-1" cx="78.9" cy="39.79" r="2.77"/><circle class="cls-1" cx="74.22" cy="44.46" r="2.57"/><circle class="cls-1" cx="78.9" cy="44.46" r="2.57"/><circle class="cls-1" cx="74.22" cy="49.14" r="2.35"/><circle class="cls-1" cx="78.9" cy="49.14" r="2.35"/><circle class="cls-1" cx="78.9" cy="67.85" r="2.14"/><circle class="cls-1" cx="80.52" cy="75.93" r="1.71"/><circle class="cls-1" cx="84.27" cy="82.42" r="1.49"/><circle class="cls-1" cx="85.6" cy="85.48" r="1.49"/><circle class="cls-1" cx="84.18" cy="30.44" r="2.57"/><circle class="cls-1" cx="78.9" cy="25.3" r="2.57"/><circle class="cls-1" cx="84.18" cy="25.3" r="2.57"/><circle class="cls-1" cx="84.18" cy="35.12" r="2.79"/><circle class="cls-1" cx="84.18" cy="39.79" r="2.77"/><circle class="cls-1" cx="84.18" cy="44.46" r="2.57"/><circle class="cls-1" cx="84.18" cy="49.14" r="2.35"/><circle class="cls-1" cx="84.18" cy="67.85" r="2.14"/><circle class="cls-1" cx="84.18" cy="76.07" r="1.71"/><circle class="cls-1" cx="67.25" cy="32.5" r="1.49"/><circle class="cls-1" cx="84.18" cy="79.29" r="1.49"/><circle class="cls-1" cx="79.18" cy="20.94" r="1.49"/><circle class="cls-1" cx="94.68" cy="79.29" r="1.49"/><circle class="cls-1" cx="89.26" cy="80.35" r="1.49"/><circle class="cls-1" cx="113.2" cy="7.42" r="1.49"/><circle class="cls-1" cx="92.32" cy="46.65" r="0.77"/><circle class="cls-1" cx="89.26" cy="49.04" r="2.35"/><circle class="cls-1" cx="74.22" cy="53.76" r="2.57"/><circle class="cls-1" cx="78.9" cy="53.76" r="2.57"/><circle class="cls-1" cx="78.9" cy="63.51" r="2.35"/><circle class="cls-1" cx="84.18" cy="53.76" r="2.57"/><circle class="cls-1" cx="89.26" cy="53.76" r="2.57"/><circle class="cls-1" cx="89.26" cy="76.31" r="2.57"/><circle class="cls-1" cx="94.68" cy="83.36" r="2.57"/><circle class="cls-1" cx="99.55" cy="83.3" r="2.16"/><circle class="cls-1" cx="84.18" cy="63.51" r="2.35"/><circle class="cls-1" cx="89.26" cy="63.42" r="2.35"/><circle class="cls-1" cx="89.26" cy="67.75" r="2.14"/><circle class="cls-1" cx="98.42" cy="72.17" r="1.71"/><circle class="cls-1" cx="89.26" cy="45.01" r="1.71"/><circle class="cls-1" cx="93.77" cy="49.45" r="1.71"/><circle class="cls-1" cx="75.04" cy="67.29" r="1.49"/><circle class="cls-1" cx="97.59" cy="75.88" r="0.77"/><circle class="cls-1" cx="106.61" cy="91.25" r="0.77"/><circle class="cls-1" cx="67.11" cy="29.18" r="0.77"/><circle class="cls-1" cx="58.65" cy="29.18" r="0.77"/><circle class="cls-1" cx="94.68" cy="67.85" r="2.14"/><circle class="cls-1" cx="95.77" cy="87.46" r="1.78"/><circle class="cls-1" cx="78.9" cy="72.15" r="2.14"/><circle class="cls-1" cx="84.18" cy="72.15" r="2.14"/><circle class="cls-1" cx="89.26" cy="72.05" r="2.14"/><circle class="cls-1" cx="89.26" cy="84.12" r="2.14"/><circle class="cls-1" cx="94.68" cy="72.15" r="2.14"/><circle class="cls-1" cx="94.68" cy="76.07" r="1.71"/><circle class="cls-1" cx="98.35" cy="89.93" r="1.49"/><circle class="cls-1" cx="98.72" cy="67.57" r="1.49"/><circle class="cls-1" cx="102.7" cy="89.49" r="1.49"/><circle class="cls-1" cx="95.77" cy="90.77" r="0.77"/><circle class="cls-1" cx="106.9" cy="84.5" r="0.77"/><circle class="cls-1" cx="96.83" cy="50.88" r="0.77"/><circle class="cls-1" cx="107.32" cy="33.06" r="0.77"/><circle class="cls-1" cx="100.7" cy="87.07" r="1.71"/><circle class="cls-1" cx="105.21" cy="87.07" r="1.71"/><circle class="cls-1" cx="114.8" cy="87.07" r="1.71"/><circle class="cls-1" cx="114.51" cy="1.71" r="1.71"/><circle class="cls-1" cx="103.94" cy="83.24" r="1.71"/><circle class="cls-1" cx="16.13" cy="31.47" r="1.71"/><circle class="cls-1" cx="97.98" cy="79.22" r="1.71"/><circle class="cls-1" cx="92.32" cy="87.1" r="1.49"/><circle class="cls-1" cx="111.32" cy="81.18" r="1.49"/><circle class="cls-1" cx="94.68" cy="53.76" r="2.57"/><circle class="cls-1" cx="70.6" cy="57.5" r="1.06"/><circle class="cls-1" cx="74.22" cy="58.41" r="2.57"/><circle class="cls-1" cx="78.9" cy="58.41" r="2.57"/><circle class="cls-1" cx="84.18" cy="58.41" r="2.57"/><circle class="cls-1" cx="89.26" cy="58.41" r="2.57"/><circle class="cls-1" cx="94.68" cy="58.41" r="2.57"/><circle class="cls-1" cx="94.68" cy="63.51" r="2.35"/><circle class="cls-1" cx="74.22" cy="25.92" r="1.92"/><circle class="cls-1" cx="69.36" cy="35.15" r="1.92"/><circle class="cls-1" cx="57.62" cy="35.15" r="1.92"/><circle class="cls-1" cx="100.32" cy="6.19" r="1.92"/><circle class="cls-1" cx="84.18" cy="20.77" r="1.92"/><circle class="cls-1" cx="84.18" cy="16.92" r="1.92"/><circle class="cls-1" cx="104.55" cy="3.81" r="1.92"/><circle class="cls-1" cx="89.3" cy="30.44" r="2.57"/><circle class="cls-1" cx="89.3" cy="25.23" r="2.57"/><circle class="cls-1" cx="89.3" cy="20.02" r="2.57"/><circle class="cls-1" cx="89.3" cy="13.96" r="2.57"/><circle class="cls-1" cx="89.3" cy="40.31" r="2.57"/><circle class="cls-1" cx="93.98" cy="30.44" r="2.57"/><circle class="cls-1" cx="89.3" cy="35.12" r="2.79"/><circle class="cls-1" cx="93.98" cy="35.12" r="2.79"/><circle class="cls-1" cx="93.98" cy="40.78" r="2.77"/><circle class="cls-1" cx="99.26" cy="30.44" r="2.57"/><circle class="cls-1" cx="99.26" cy="40.31" r="2.57"/><circle class="cls-1" cx="93.98" cy="25.3" r="2.57"/><circle class="cls-1" cx="93.98" cy="16.56" r="2.57"/><circle class="cls-1" cx="93.98" cy="10.43" r="2.57"/><circle class="cls-1" cx="99.26" cy="25.3" r="2.57"/><circle class="cls-1" cx="99.26" cy="12.05" r="2.57"/><circle class="cls-1" cx="114.84" cy="12.05" r="2.57"/><circle class="cls-1" cx="114.84" cy="16.99" r="2.57"/><circle class="cls-1" cx="117.37" cy="7.52" r="2.57"/><circle class="cls-1" cx="104.83" cy="8.81" r="2.57"/><circle class="cls-1" cx="99.26" cy="35.12" r="2.79"/><circle class="cls-1" cx="93.98" cy="20.94" r="1.49"/><circle class="cls-1" cx="118.08" cy="2.84" r="1.92"/><circle class="cls-1" cx="99.26" cy="20.77" r="1.92"/><circle class="cls-1" cx="99.26" cy="16.92" r="1.92"/><circle class="cls-1" cx="104.69" cy="27.2" r="2.57"/><circle class="cls-1" cx="104.69" cy="22.06" r="2.57"/><circle class="cls-1" cx="104.69" cy="17.53" r="1.92"/><circle class="cls-1" cx="104.69" cy="31.91" r="1.92"/><circle class="cls-1" cx="104.69" cy="35.78" r="1.92"/><circle class="cls-1" cx="104.69" cy="13.68" r="1.92"/><circle class="cls-1" cx="110.11" cy="3.3" r="3.23"/><circle class="cls-1" cx="109.97" cy="22.35" r="2.57"/><circle class="cls-1" cx="109.97" cy="17.21" r="2.57"/><circle class="cls-1" cx="109.97" cy="12.68" r="1.92"/><circle class="cls-1" cx="109.97" cy="27.05" r="1.92"/><circle class="cls-1" cx="109.97" cy="8.83" r="1.92"/><circle class="cls-1" cx="58.13" cy="39.79" r="2.86"/><circle class="cls-1" cx="58.13" cy="44.46" r="2.5"/><circle class="cls-1" cx="58.13" cy="49.14" r="2.14"/><circle class="cls-1" cx="52.12" cy="63.43" r="1.78"/><circle class="cls-1" cx="56.58" cy="52.85" r="1.06"/><circle class="cls-1" cx="30.21" cy="7.96" r="1.06"/><circle class="cls-1" cx="19.01" cy="30.51" r="1.06"/><circle class="cls-1" cx="24.36" cy="38.55" r="1.06"/><circle class="cls-1" cx="13.58" cy="20.79" r="1.06"/><circle class="cls-1" cx="46.29" cy="18.89" r="1.06"/><circle class="cls-1" cx="56.5" cy="31.77" r="0.77"/><circle class="cls-1" cx="40.29" cy="81.26" r="0.77"/><circle class="cls-1" cx="52.95" cy="30.44" r="2.57"/><circle class="cls-1" cx="48.28" cy="30.44" r="2.57"/><circle class="cls-1" cx="52.95" cy="35.12" r="2.79"/><circle class="cls-1" cx="48.28" cy="35.12" r="2.79"/><circle class="cls-1" cx="52.95" cy="39.79" r="2.77"/><circle class="cls-1" cx="48.28" cy="39.79" r="2.77"/><circle class="cls-1" cx="52.95" cy="44.46" r="2.57"/><circle class="cls-1" cx="48.28" cy="44.46" r="2.57"/><circle class="cls-1" cx="52.95" cy="49.14" r="2.35"/><circle class="cls-1" cx="48.28" cy="49.14" r="2.35"/><circle class="cls-1" cx="48.28" cy="67.85" r="2.14"/><circle class="cls-1" cx="46.66" cy="75.93" r="1.71"/><circle class="cls-1" cx="42.91" cy="82.42" r="1.49"/><circle class="cls-1" cx="41.57" cy="85.48" r="1.49"/><circle class="cls-1" cx="42.99" cy="30.44" r="2.57"/><circle class="cls-1" cx="48.28" cy="25.3" r="2.57"/><circle class="cls-1" cx="42.99" cy="25.3" r="2.57"/><circle class="cls-1" cx="42.99" cy="35.12" r="2.79"/><circle class="cls-1" cx="42.99" cy="39.79" r="2.77"/><circle class="cls-1" cx="42.99" cy="44.46" r="2.57"/><circle class="cls-1" cx="42.99" cy="49.14" r="2.35"/><circle class="cls-1" cx="42.99" cy="67.85" r="2.14"/><circle class="cls-1" cx="42.99" cy="76.07" r="1.71"/><circle class="cls-1" cx="42.99" cy="79.29" r="1.49"/><circle class="cls-1" cx="48" cy="20.94" r="1.49"/><circle class="cls-1" cx="32.5" cy="79.29" r="1.49"/><circle class="cls-1" cx="37.92" cy="80.35" r="1.49"/><circle class="cls-1" cx="13.97" cy="7.42" r="1.49"/><circle class="cls-1" cx="34.86" cy="46.65" r="0.77"/><circle class="cls-1" cx="37.92" cy="49.04" r="2.35"/><circle class="cls-1" cx="52.95" cy="53.76" r="2.57"/><circle class="cls-1" cx="48.28" cy="53.76" r="2.57"/><circle class="cls-1" cx="48.28" cy="63.51" r="2.35"/><circle class="cls-1" cx="42.99" cy="53.76" r="2.57"/><circle class="cls-1" cx="37.92" cy="53.76" r="2.57"/><circle class="cls-1" cx="37.92" cy="76.31" r="2.57"/><circle class="cls-1" cx="32.5" cy="83.36" r="2.57"/><circle class="cls-1" cx="27.56" cy="83.36" r="2.57"/><circle class="cls-1" cx="42.99" cy="63.51" r="2.35"/><circle class="cls-1" cx="37.92" cy="63.42" r="2.35"/><circle class="cls-1" cx="37.92" cy="67.75" r="2.14"/><circle class="cls-1" cx="28.76" cy="72.17" r="1.71"/><circle class="cls-1" cx="37.92" cy="45.01" r="1.71"/><circle class="cls-1" cx="33.41" cy="49.45" r="1.71"/><circle class="cls-1" cx="52.13" cy="67.29" r="1.49"/><circle class="cls-1" cx="29.58" cy="75.88" r="0.77"/><circle class="cls-1" cx="26.14" cy="91.83" r="0.77"/><circle class="cls-1" cx="21.27" cy="90.4" r="0.77"/><circle class="cls-1" cx="32.5" cy="67.85" r="2.14"/><circle class="cls-1" cx="31.4" cy="87.46" r="1.78"/><circle class="cls-1" cx="48.28" cy="72.15" r="2.14"/><circle class="cls-1" cx="42.99" cy="72.15" r="2.14"/><circle class="cls-1" cx="37.92" cy="72.05" r="2.14"/><circle class="cls-1" cx="37.92" cy="84.12" r="2.14"/><circle class="cls-1" cx="32.5" cy="72.15" r="2.14"/><circle class="cls-1" cx="32.5" cy="76.07" r="1.71"/><circle class="cls-1" cx="28.83" cy="89.93" r="1.49"/><circle class="cls-1" cx="28.46" cy="67.57" r="1.49"/><circle class="cls-1" cx="24.47" cy="89.49" r="1.49"/><circle class="cls-1" cx="31.4" cy="90.77" r="0.77"/><circle class="cls-1" cx="20.28" cy="84.5" r="0.77"/><circle class="cls-1" cx="30.35" cy="50.88" r="0.77"/><circle class="cls-1" cx="19.86" cy="33.06" r="0.77"/><circle class="cls-1" cx="26.47" cy="87.07" r="1.71"/><circle class="cls-1" cx="21.96" cy="87.07" r="1.71"/><circle class="cls-1" cx="18.11" cy="87.64" r="1.71"/><circle class="cls-1" cx="12.67" cy="1.71" r="1.71"/><circle class="cls-1" cx="23.24" cy="83.24" r="1.71"/><circle class="cls-1" cx="29.2" cy="79.22" r="1.71"/><circle class="cls-1" cx="34.86" cy="87.1" r="1.49"/><circle class="cls-1" cx="46.66" cy="79.29" r="1.49"/><circle class="cls-1" cx="32.5" cy="53.76" r="2.57"/><circle class="cls-1" cx="56.58" cy="57.5" r="1.06"/><circle class="cls-1" cx="52.95" cy="58.41" r="2.57"/><circle class="cls-1" cx="48.28" cy="58.41" r="2.57"/><circle class="cls-1" cx="42.99" cy="58.41" r="2.57"/><circle class="cls-1" cx="37.92" cy="58.41" r="2.57"/><circle class="cls-1" cx="32.5" cy="58.41" r="2.57"/><circle class="cls-1" cx="32.5" cy="63.51" r="2.35"/><circle class="cls-1" cx="52.95" cy="25.92" r="1.92"/><circle class="cls-1" cx="26.86" cy="6.19" r="1.92"/><circle class="cls-1" cx="42.99" cy="20.77" r="1.92"/><circle class="cls-1" cx="42.99" cy="16.92" r="1.92"/><circle class="cls-1" cx="22.63" cy="3.81" r="1.92"/><circle class="cls-1" cx="37.87" cy="30.44" r="2.57"/><circle class="cls-1" cx="37.87" cy="25.23" r="2.57"/><circle class="cls-1" cx="37.87" cy="20.02" r="2.57"/><circle class="cls-1" cx="37.87" cy="13.96" r="2.57"/><circle class="cls-1" cx="37.87" cy="40.31" r="2.57"/><circle class="cls-1" cx="33.2" cy="30.44" r="2.57"/><circle class="cls-1" cx="37.87" cy="35.12" r="2.79"/><circle class="cls-1" cx="33.2" cy="35.12" r="2.79"/><circle class="cls-1" cx="33.2" cy="40.78" r="2.77"/><circle class="cls-1" cx="27.91" cy="30.44" r="2.57"/><circle class="cls-1" cx="27.91" cy="40.31" r="2.57"/><circle class="cls-1" cx="33.2" cy="25.3" r="2.57"/><circle class="cls-1" cx="33.2" cy="16.56" r="2.57"/><circle class="cls-1" cx="33.2" cy="10.43" r="2.57"/><circle class="cls-1" cx="27.91" cy="25.3" r="2.57"/><circle class="cls-1" cx="27.91" cy="12.05" r="2.57"/><circle class="cls-1" cx="12.34" cy="12.05" r="2.57"/><circle class="cls-1" cx="12.34" cy="16.99" r="2.57"/><circle class="cls-1" cx="9.8" cy="7.52" r="2.57"/><circle class="cls-1" cx="22.35" cy="8.81" r="2.57"/><circle class="cls-1" cx="27.91" cy="35.12" r="2.79"/><circle class="cls-1" cx="33.2" cy="20.94" r="1.49"/><circle class="cls-1" cx="27.91" cy="20.77" r="1.92"/><circle class="cls-1" cx="27.91" cy="16.92" r="1.92"/><circle class="cls-1" cx="22.49" cy="27.2" r="2.57"/><circle class="cls-1" cx="22.49" cy="22.06" r="2.57"/><circle class="cls-1" cx="22.49" cy="17.53" r="1.92"/><circle class="cls-1" cx="22.49" cy="31.91" r="1.92"/><circle class="cls-1" cx="22.49" cy="35.78" r="1.92"/><circle class="cls-1" cx="22.49" cy="13.68" r="1.92"/><circle class="cls-1" cx="17.07" cy="3.3" r="3.23"/><circle class="cls-1" cx="17.21" cy="22.35" r="2.57"/><circle class="cls-1" cx="17.21" cy="17.21" r="2.57"/><circle class="cls-1" cx="17.21" cy="12.68" r="1.92"/><circle class="cls-1" cx="17.21" cy="27.05" r="1.92"/><circle class="cls-1" cx="17.21" cy="8.83" r="1.92"/><circle class="cls-1" cx="63.26" cy="40.97" r="2.43"/><circle class="cls-1" cx="63.26" cy="45.45" r="2.74"/><circle class="cls-1" cx="63.26" cy="49.92" r="2.39"/><circle class="cls-1" cx="63.26" cy="54.39" r="2.05"/><circle class="cls-1" cx="63.26" cy="35.98" r="1.35"/><circle class="cls-1" cx="63.26" cy="62.01" r="1.35"/><circle class="cls-1" cx="63.26" cy="65.11" r="1.35"/><circle class="cls-1" cx="63.26" cy="40.97" r="2.58"/><circle class="cls-1" cx="63.26" cy="35.8" r="2.58"/><circle class="cls-1" cx="63.26" cy="45.45" r="2.64"/><circle class="cls-1" cx="63.26" cy="49.92" r="2.32"/><circle class="cls-1" cx="63.26" cy="54.39" r="2"/><circle class="cls-1" cx="63.26" cy="58.25" r="2"/></g></g></svg>