<svg xmlns="http://www.w3.org/2000/svg" xmlns:xlink="http://www.w3.org/1999/xlink" viewBox="0 0 134.49 150.43"><defs><style>.cls-1{fill:none;}.cls-2{clip-path:url(#clip-path);}.cls-3{fill:url(#linear-gradient);}.cls-4{fill:url(#linear-gradient-2);}.cls-5{fill:url(#linear-gradient-3);}.cls-6{fill:url(#linear-gradient-4);}.cls-7{fill:url(#linear-gradient-5);}.cls-8{fill:url(#linear-gradient-6);}.cls-9{fill:url(#linear-gradient-7);}.cls-10{fill:url(#linear-gradient-8);}.cls-11{fill:url(#linear-gradient-9);}.cls-12{fill:url(#linear-gradient-10);}.cls-13{fill:url(#linear-gradient-11);}.cls-14{fill:url(#linear-gradient-12);}.cls-15{fill:url(#linear-gradient-13);}.cls-16{fill:url(#linear-gradient-14);}.cls-17{fill:url(#linear-gradient-15);}.cls-18{fill:url(#linear-gradient-16);}.cls-19{fill:url(#linear-gradient-17);}.cls-20{fill:url(#linear-gradient-18);}.cls-21{fill:url(#linear-gradient-19);}.cls-22{fill:url(#linear-gradient-20);}.cls-23{fill:url(#linear-gradient-21);}.cls-24{fill:url(#linear-gradient-22);}.cls-25{fill:url(#linear-gradient-23);}.cls-26{fill:url(#linear-gradient-24);}.cls-27{fill:url(#linear-gradient-25);}.cls-28{fill:url(#linear-gradient-26);}.cls-29{fill:url(#linear-gradient-27);}.cls-30{fill:url(#linear-gradient-28);}.cls-31{fill:url(#linear-gradient-29);}.cls-32{fill:url(#linear-gradient-30);}.cls-33{fill:url(#linear-gradient-31);}.cls-34{fill:url(#linear-gradient-32);}.cls-35{fill:url(#linear-gradient-33);}.cls-36{fill:url(#linear-gradient-34);}.cls-37{fill:url(#linear-gradient-35);}.cls-38{fill:url(#linear-gradient-36);}.cls-39{fill:url(#linear-gradient-37);}.cls-40{fill:url(#linear-gradient-38);}.cls-41{fill:url(#linear-gradient-39);}.cls-42{fill:url(#linear-gradient-40);}.cls-43{fill:url(#linear-gradient-41);}.cls-44{fill:url(#linear-gradient-42);}.cls-45{fill:url(#linear-gradient-43);}.cls-46{fill:url(#linear-gradient-44);}.cls-47{fill:url(#linear-gradient-45);}.cls-48{fill:url(#linear-gradient-46);}.cls-49{fill:url(#linear-gradient-47);}.cls-50{fill:url(#linear-gradient-48);}.cls-51{fill:url(#linear-gradient-49);}.cls-52{fill:url(#linear-gradient-50);}.cls-53{fill:url(#linear-gradient-51);}.cls-54{fill:url(#linear-gradient-52);}.cls-55{fill:url(#linear-gradient-53);}.cls-56{fill:url(#linear-gradient-54);}.cls-57{fill:url(#linear-gradient-55);}.cls-58{fill:url(#linear-gradient-56);}.cls-59{fill:url(#linear-gradient-57);}.cls-60{fill:url(#linear-gradient-58);}.cls-61{fill:url(#linear-gradient-59);}.cls-62{fill:url(#linear-gradient-60);}.cls-63{fill:url(#linear-gradient-61);}.cls-64{fill:url(#linear-gradient-62);}.cls-65{fill:url(#linear-gradient-63);}.cls-66{fill:url(#linear-gradient-64);}.cls-67{fill:url(#linear-gradient-65);}.cls-68{fill:#231815;}</style><clipPath id="clip-path"><path class="cls-1" d="M66,30.47,60.29-.8H54l5.72,31.27H35.27l10,79s.51,4.8,5.15,4.8H81.8a6.2,6.2,0,0,0,6.59-5.39l9.42-78.36Z"/></clipPath><linearGradient id="linear-gradient" x1="69.71" y1="100.1" x2="106.4" y2="100.1" gradientUnits="userSpaceOnUse"><stop offset="0" stop-color="#00a0e9"/><stop offset="1" stop-color="#1d2088"/></linearGradient><linearGradient id="linear-gradient-2" x1="61.75" y1="22.33" x2="64.51" y2="22.33" xlink:href="#linear-gradient"/><linearGradient id="linear-gradient-3" x1="57.32" y1="15.15" x2="60.09" y2="15.15" xlink:href="#linear-gradient"/><linearGradient id="linear-gradient-4" x1="57.58" y1="1.48" x2="59.18" y2="1.48" xlink:href="#linear-gradient"/><linearGradient id="linear-gradient-5" x1="58.15" y1="63.85" x2="80.17" y2="63.85" xlink:href="#linear-gradient"/><linearGradient id="linear-gradient-6" x1="30.86" y1="80.69" x2="47.28" y2="80.69" xlink:href="#linear-gradient"/><linearGradient id="linear-gradient-7" x1="41.7" y1="47.39" x2="49.91" y2="47.39" xlink:href="#linear-gradient"/><linearGradient id="linear-gradient-8" x1="75.88" y1="42.29" x2="81.53" y2="42.29" xlink:href="#linear-gradient"/><linearGradient id="linear-gradient-9" x1="42.32" y1="35.64" x2="45.85" y2="35.64" xlink:href="#linear-gradient"/><linearGradient id="linear-gradient-10" x1="89.08" y1="35.13" x2="95.17" y2="35.13" xlink:href="#linear-gradient"/><linearGradient id="linear-gradient-11" x1="63.81" y1="36.09" x2="68.95" y2="36.09" xlink:href="#linear-gradient"/><linearGradient id="linear-gradient-12" x1="84.2" y1="49.22" x2="90.9" y2="49.22" gradientUnits="userSpaceOnUse"><stop offset="0" stop-color="#e4007f"/><stop offset="1" stop-color="#e60012"/></linearGradient><linearGradient id="linear-gradient-13" x1="59.1" y1="37.53" x2="63.73" y2="37.53" xlink:href="#linear-gradient-12"/><linearGradient id="linear-gradient-14" x1="38.89" y1="53.38" x2="43.52" y2="53.38" xlink:href="#linear-gradient-12"/><linearGradient id="linear-gradient-15" x1="95.63" y1="31.36" x2="98.46" y2="31.36" xlink:href="#linear-gradient-12"/><linearGradient id="linear-gradient-16" x1="61.87" y1="26.04" x2="63.41" y2="26.04" xlink:href="#linear-gradient-12"/><linearGradient id="linear-gradient-17" x1="36.58" y1="35.51" x2="39.86" y2="35.51" xlink:href="#linear-gradient-12"/><linearGradient id="linear-gradient-18" x1="53.95" y1="49.74" x2="68.3" y2="49.74" xlink:href="#linear-gradient-12"/><linearGradient id="linear-gradient-19" x1="55.43" y1="3.94" x2="57.5" y2="3.94" xlink:href="#linear-gradient-12"/><linearGradient id="linear-gradient-20" x1="60.31" y1="15.72" x2="62.38" y2="15.72" xlink:href="#linear-gradient-12"/><linearGradient id="linear-gradient-21" x1="70.03" y1="33.85" x2="72.11" y2="33.85" xlink:href="#linear-gradient-12"/><linearGradient id="linear-gradient-22" x1="50.66" y1="36.67" x2="52.73" y2="36.67" xlink:href="#linear-gradient-12"/><linearGradient id="linear-gradient-23" x1="76.23" y1="39.48" x2="78.3" y2="39.48" xlink:href="#linear-gradient-12"/><linearGradient id="linear-gradient-24" x1="72.59" y1="64.54" x2="87.66" y2="64.54" xlink:href="#linear-gradient-12"/><linearGradient id="linear-gradient-25" x1="33.4" y1="75.99" x2="65.82" y2="75.99" xlink:href="#linear-gradient-12"/><linearGradient id="linear-gradient-26" x1="63.29" y1="108.34" x2="83.67" y2="108.34" xlink:href="#linear-gradient-12"/><linearGradient id="linear-gradient-27" x1="43.01" y1="58.28" x2="60.79" y2="58.28" gradientUnits="userSpaceOnUse"><stop offset="0" stop-color="#8fc31f"/><stop offset="1" stop-color="#22ac38"/></linearGradient><linearGradient id="linear-gradient-28" x1="87.31" y1="83.22" x2="103.54" y2="83.22" xlink:href="#linear-gradient-27"/><linearGradient id="linear-gradient-29" x1="91.52" y1="50.76" x2="99.23" y2="50.76" xlink:href="#linear-gradient-27"/><linearGradient id="linear-gradient-30" x1="65.6" y1="74.83" x2="81.45" y2="74.83" xlink:href="#linear-gradient-27"/><linearGradient id="linear-gradient-31" x1="59.47" y1="6.06" x2="61.38" y2="6.06" xlink:href="#linear-gradient-27"/><linearGradient id="linear-gradient-32" x1="58.88" y1="21.65" x2="60.79" y2="21.65" xlink:href="#linear-gradient-27"/><linearGradient id="linear-gradient-33" x1="61.53" y1="29.79" x2="63.44" y2="29.79" xlink:href="#linear-gradient-27"/><linearGradient id="linear-gradient-34" x1="76.19" y1="31.18" x2="79.52" y2="31.18" xlink:href="#linear-gradient-27"/><linearGradient id="linear-gradient-35" x1="66.48" y1="41.93" x2="69.81" y2="41.93" xlink:href="#linear-gradient-27"/><linearGradient id="linear-gradient-36" x1="35.08" y1="34.67" x2="38.42" y2="34.67" xlink:href="#linear-gradient-27"/><linearGradient id="linear-gradient-37" x1="30.97" y1="105.12" x2="70.17" y2="105.12" xlink:href="#linear-gradient-27"/><linearGradient id="linear-gradient-38" x1="46.39" y1="45.57" x2="56.97" y2="45.57" gradientUnits="userSpaceOnUse"><stop offset="0" stop-color="#fff100"/><stop offset="1" stop-color="#f39800"/></linearGradient><linearGradient id="linear-gradient-39" x1="73.32" y1="55.87" x2="83.9" y2="55.87" xlink:href="#linear-gradient-38"/><linearGradient id="linear-gradient-40" x1="58.03" y1="18.73" x2="60.59" y2="18.73" xlink:href="#linear-gradient-38"/><linearGradient id="linear-gradient-41" x1="79.42" y1="45" x2="84.32" y2="45" xlink:href="#linear-gradient-38"/><linearGradient id="linear-gradient-42" x1="56.75" y1="6.12" x2="59.32" y2="6.12" xlink:href="#linear-gradient-38"/><linearGradient id="linear-gradient-43" x1="55.3" y1="31.99" x2="57.86" y2="31.99" xlink:href="#linear-gradient-38"/><linearGradient id="linear-gradient-44" x1="79.16" y1="35.01" x2="81.21" y2="35.01" xlink:href="#linear-gradient-38"/><linearGradient id="linear-gradient-45" x1="89.96" y1="40.81" x2="92.52" y2="40.81" xlink:href="#linear-gradient-38"/><linearGradient id="linear-gradient-46" x1="60.22" y1="41.54" x2="65.98" y2="41.54" xlink:href="#linear-gradient-38"/><linearGradient id="linear-gradient-47" x1="30.05" y1="65.12" x2="48.05" y2="65.12" xlink:href="#linear-gradient-38"/><linearGradient id="linear-gradient-48" x1="52.28" y1="90.33" x2="82.1" y2="90.33" xlink:href="#linear-gradient-38"/><linearGradient id="linear-gradient-49" x1="73.72" y1="81.65" x2="95.96" y2="81.65" gradientUnits="userSpaceOnUse"><stop offset="0" stop-color="#601986"/><stop offset="1" stop-color="#a40b5d"/></linearGradient><linearGradient id="linear-gradient-50" x1="65.75" y1="49.72" x2="75.54" y2="49.72" xlink:href="#linear-gradient-49"/><linearGradient id="linear-gradient-51" x1="55.69" y1="42.46" x2="59.9" y2="42.46" xlink:href="#linear-gradient-49"/><linearGradient id="linear-gradient-52" x1="90.45" y1="38.95" x2="95.35" y2="38.95" xlink:href="#linear-gradient-49"/><linearGradient id="linear-gradient-53" x1="58.32" y1="11.96" x2="61.38" y2="11.96" xlink:href="#linear-gradient-49"/><linearGradient id="linear-gradient-54" x1="59.53" y1="26.81" x2="61.34" y2="26.81" xlink:href="#linear-gradient-49"/><linearGradient id="linear-gradient-55" x1="54.39" y1="0.9" x2="56.18" y2="0.9" xlink:href="#linear-gradient-49"/><linearGradient id="linear-gradient-56" x1="64.25" y1="32.45" x2="67.31" y2="32.45" xlink:href="#linear-gradient-49"/><linearGradient id="linear-gradient-57" x1="44.95" y1="40.03" x2="48.01" y2="40.03" xlink:href="#linear-gradient-49"/><linearGradient id="linear-gradient-58" x1="34.41" y1="46.27" x2="43.59" y2="46.27" gradientUnits="userSpaceOnUse"><stop offset="0" stop-color="#e77600"/><stop offset="1" stop-color="#e8380d"/></linearGradient><linearGradient id="linear-gradient-59" x1="83.29" y1="33.07" x2="86.72" y2="33.07" xlink:href="#linear-gradient-58"/><linearGradient id="linear-gradient-60" x1="68.8" y1="43.78" x2="74.75" y2="43.78" xlink:href="#linear-gradient-58"/><linearGradient id="linear-gradient-61" x1="59.46" y1="32.03" x2="62.88" y2="32.03" xlink:href="#linear-gradient-58"/><linearGradient id="linear-gradient-62" x1="54.29" y1="9.57" x2="57.71" y2="9.57" xlink:href="#linear-gradient-58"/><linearGradient id="linear-gradient-63" x1="75.87" y1="50.05" x2="80.99" y2="50.05" xlink:href="#linear-gradient-58"/><linearGradient id="linear-gradient-64" x1="57.83" y1="83.81" x2="67.01" y2="83.81" xlink:href="#linear-gradient-58"/><linearGradient id="linear-gradient-65" x1="82.73" y1="64.15" x2="103.86" y2="64.15" xlink:href="#linear-gradient-58"/></defs><title>資產 1</title><g id="圖層_2" data-name="圖層 2"><g id="圖層_1-2" data-name="圖層 1"><g class="cls-2"><circle class="cls-3" cx="88.06" cy="100.1" r="18.34"/><circle class="cls-4" cx="63.13" cy="22.33" r="1.38"/><circle class="cls-5" cx="58.7" cy="15.15" r="1.38"/><circle class="cls-6" cx="58.38" cy="1.48" r="0.8"/><path class="cls-7" d="M80.17,63.84a11,11,0,1,1-11-11A11,11,0,0,1,80.17,63.84Z"/><circle class="cls-8" cx="39.07" cy="80.69" r="8.21"/><path class="cls-9" d="M49.91,47.39a4.11,4.11,0,1,1-4.1-4.1A4.11,4.11,0,0,1,49.91,47.39Z"/><circle class="cls-10" cx="78.71" cy="42.29" r="2.82"/><circle class="cls-11" cx="44.09" cy="35.64" r="1.77"/><circle class="cls-12" cx="92.12" cy="35.13" r="3.05"/><path class="cls-13" d="M69,36.09a2.57,2.57,0,1,1-2.57-2.64A2.6,2.6,0,0,1,69,36.09Z"/><circle class="cls-14" cx="87.55" cy="49.22" r="3.35"/><path class="cls-15" d="M63.73,37.53a2.32,2.32,0,1,1-2.31-2.32A2.32,2.32,0,0,1,63.73,37.53Z"/><circle class="cls-16" cx="41.21" cy="53.38" r="2.32"/><circle class="cls-17" cx="97.05" cy="31.36" r="1.42"/><circle class="cls-18" cx="62.64" cy="26.04" r="0.77"/><circle class="cls-19" cx="38.22" cy="35.51" r="1.64"/><circle class="cls-20" cx="61.12" cy="49.74" r="7.17"/><circle class="cls-21" cx="56.47" cy="3.94" r="1.04"/><circle class="cls-22" cx="61.35" cy="15.73" r="1.04"/><circle class="cls-23" cx="71.07" cy="33.85" r="1.04"/><circle class="cls-24" cx="51.69" cy="36.67" r="1.04"/><circle class="cls-25" cx="77.26" cy="39.48" r="1.04"/><circle class="cls-26" cx="80.12" cy="64.54" r="7.53"/><circle class="cls-27" cx="49.61" cy="75.99" r="16.21"/><circle class="cls-28" cx="73.48" cy="108.34" r="10.19"/><circle class="cls-29" cx="51.9" cy="58.28" r="8.89"/><path class="cls-30" d="M103.54,83.23a8.11,8.11,0,1,1-8.11-8.12A8.11,8.11,0,0,1,103.54,83.23Z"/><path class="cls-31" d="M99.23,50.75a3.85,3.85,0,1,1-3.85-3.85A3.85,3.85,0,0,1,99.23,50.75Z"/><circle class="cls-32" cx="73.53" cy="74.83" r="7.92"/><circle class="cls-33" cx="60.42" cy="6.06" r="0.95"/><circle class="cls-34" cx="59.83" cy="21.65" r="0.95"/><circle class="cls-35" cx="62.49" cy="29.79" r="0.95"/><circle class="cls-36" cx="77.86" cy="31.18" r="1.66"/><circle class="cls-37" cx="68.14" cy="41.93" r="1.67"/><circle class="cls-38" cx="36.75" cy="34.67" r="1.67"/><path class="cls-39" d="M70.17,105.13a19.6,19.6,0,1,1-19.6-19.61A19.6,19.6,0,0,1,70.17,105.13Z"/><circle class="cls-40" cx="51.68" cy="45.57" r="5.29"/><circle class="cls-41" cx="78.61" cy="55.87" r="5.29"/><circle class="cls-42" cx="59.31" cy="18.73" r="1.28"/><path class="cls-43" d="M84.32,45a2.45,2.45,0,1,1-2.45-2.44A2.45,2.45,0,0,1,84.32,45Z"/><path class="cls-44" d="M59.32,6.12A1.28,1.28,0,1,1,58,4.84,1.28,1.28,0,0,1,59.32,6.12Z"/><circle class="cls-45" cx="56.58" cy="31.99" r="1.28"/><path class="cls-46" d="M81.21,35a1,1,0,1,1-1-1A1,1,0,0,1,81.21,35Z"/><circle class="cls-47" cx="91.24" cy="40.81" r="1.28"/><circle class="cls-48" cx="63.1" cy="41.54" r="2.88"/><circle class="cls-49" cx="39.05" cy="65.12" r="9"/><circle class="cls-50" cx="67.19" cy="90.33" r="14.91"/><circle class="cls-51" cx="84.84" cy="81.65" r="11.12"/><path class="cls-52" d="M75.54,49.71a4.89,4.89,0,1,1-4.9-4.89A4.89,4.89,0,0,1,75.54,49.71Z"/><circle class="cls-53" cx="57.8" cy="42.46" r="2.11"/><path class="cls-54" d="M95.35,38.95a2.45,2.45,0,1,1-2.45-2.44A2.45,2.45,0,0,1,95.35,38.95Z"/><circle class="cls-55" cx="59.85" cy="11.96" r="1.53"/><path class="cls-56" d="M61.34,26.81a.9.9,0,1,1-.91-.9A.9.9,0,0,1,61.34,26.81Z"/><circle class="cls-57" cx="55.28" cy="0.9" r="0.9"/><circle class="cls-58" cx="65.78" cy="32.45" r="1.53"/><circle class="cls-59" cx="46.48" cy="40.03" r="1.53"/><circle class="cls-60" cx="39" cy="46.27" r="4.59"/><circle class="cls-61" cx="85.01" cy="33.07" r="1.71"/><circle class="cls-62" cx="71.77" cy="43.78" r="2.97"/><circle class="cls-63" cx="61.17" cy="32.03" r="1.71"/><circle class="cls-64" cx="56" cy="9.57" r="1.71"/><circle class="cls-65" cx="78.43" cy="50.05" r="2.56"/><circle class="cls-66" cx="62.42" cy="83.81" r="4.59"/><circle class="cls-67" cx="93.3" cy="64.15" r="10.56"/></g><path class="cls-68" d="M131.72,149.7v-2.2h1a1.51,1.51,0,0,1,.47.06.52.52,0,0,1,.26.21.62.62,0,0,1,.09.33.56.56,0,0,1-.15.4.84.84,0,0,1-.5.2.72.72,0,0,1,.18.11,1.48,1.48,0,0,1,.25.3l.4.6h-.38l-.3-.46-.22-.31a.56.56,0,0,0-.15-.14.4.4,0,0,0-.14-.06H132v1Zm.31-1.23h.65a1.13,1.13,0,0,0,.33,0,.37.37,0,0,0,.17-.13.34.34,0,0,0-.06-.46.6.6,0,0,0-.37-.1H132Z"/><path class="cls-68" d="M134.3,148.66a1.64,1.64,0,0,1-1.67,1.6,1.7,1.7,0,0,1-1.18-.47,1.55,1.55,0,0,1,0-2.26,1.73,1.73,0,0,1,2.37,0A1.56,1.56,0,0,1,134.3,148.66Zm-1.67-1.77a1.9,1.9,0,0,0-1.31.52,1.72,1.72,0,0,0,0,2.51,1.91,1.91,0,0,0,1.31.52,1.82,1.82,0,0,0,1.86-1.77,1.71,1.71,0,0,0-.55-1.25A1.89,1.89,0,0,0,132.63,146.89Z"/><path class="cls-68" d="M76.15,149.72a.64.64,0,0,1-.64.64H61.46A1.32,1.32,0,0,1,60.13,149V127.82a1.32,1.32,0,0,1,1.32-1.32H75.51a.64.64,0,0,1,.64.63v2.77a.64.64,0,0,1-.64.64H64.37v5.62H74.78a.63.63,0,0,1,.63.63v2.91a.63.63,0,0,1-.63.64H64.37v6H75.51a.64.64,0,0,1,.64.64Z"/><path class="cls-68" d="M53.47,149.73v0a.64.64,0,0,0,.64.64h2.66a.64.64,0,0,0,.64-.64V131.6a4.94,4.94,0,0,0-4.71-5.14,4.75,4.75,0,0,0-4.43,3.39,4.76,4.76,0,0,0-4.43-3.39,4.94,4.94,0,0,0-4.71,5.14v18.12a.64.64,0,0,0,.64.64h2.66a.64.64,0,0,0,.64-.64V133.34a1.71,1.71,0,1,1,3.4,0h0v7.1a.65.65,0,0,0,.66.63h2.3a.64.64,0,0,0,.64-.64v-7.09a1.71,1.71,0,1,1,3.4,0Z"/><path class="cls-68" d="M94.81,143.86c0-3.21-1.73-5.24-4.39-5.66h0a5.75,5.75,0,0,0,3.73-5.4,6.3,6.3,0,0,0-6.34-6.34H80.42a1.32,1.32,0,0,0-1.32,1.32V149a1.32,1.32,0,0,0,1.32,1.32h7.9A6.49,6.49,0,0,0,94.81,143.86Zm-11.5-13.94h4a2.84,2.84,0,0,1,2.84,2.84c0,1.57-1.27,3.36-2.84,3.36h-4Zm3.76,16.94H83.32v-6.73h3.76c2,0,3.62,1.11,3.62,3.11A3.62,3.62,0,0,1,87.08,146.86Z"/><path class="cls-68" d="M114.5,127.1a.64.64,0,0,0-.64-.64h-2.92a.64.64,0,0,0-.64.64v14.79a4.43,4.43,0,0,1-8.85,0V127.1a.63.63,0,0,0-.63-.64H97.9a.64.64,0,0,0-.64.64v15.16a8.63,8.63,0,0,0,17.24,0Z"/><path class="cls-68" d="M132.47,126.46h-2.89a.88.88,0,0,0-1,.52l-3.84,7.37L121,127a.88.88,0,0,0-1-.52h-2.89a.64.64,0,0,0-.64.64.53.53,0,0,0,0,.16l0,0,6,11.42V149.8a.63.63,0,0,0,.64.64h3.14a.64.64,0,0,0,.64-.64V138.73l6-11.42,0,0a.45.45,0,0,0,0-.16A.64.64,0,0,0,132.47,126.46Z"/><path class="cls-68" d="M28.17,126.48c-5,0-9,4.08-9,11.93,0,7.67,4,11.93,9,11.93s9-4.26,9-11.93C37.2,130.55,33.16,126.48,28.17,126.48Zm0,19.18c-2.42,0-4.39-2.59-4.39-7.25s2-7.25,4.39-7.25,4.39,2.48,4.39,7.25S30.6,145.65,28.17,145.65Z"/><path class="cls-68" d="M17.22,143.93a.61.61,0,0,0-.36-.77L13.65,142a.58.58,0,0,0-.8.3v0c-.75,2.19-2.18,3.37-3.81,3.37-2.43,0-4.39-2.59-4.39-7.25s2-7.25,4.39-7.25a4,4,0,0,1,3.59,2.76l0,0a.6.6,0,0,0,.8.29l3.21-1.18a.64.64,0,0,0,.35-.83v0c-1.51-3.83-4.52-5.81-8-5.81-5,0-9,4.08-9,11.93,0,7.67,4,11.93,9,11.93,3.61,0,6.73-2.24,8.17-6.4Z"/></g></g></svg>